<svg xmlns="http://www.w3.org/2000/svg" xmlns:xlink="http://www.w3.org/1999/xlink" version="1.0" id="Layer_1" x="0px" y="0px" viewBox="0 0 164.3 142.1" style="enable-background:new 0 0 164.3 142.1;" xml:space="preserve">
<style type="text/css">
	.st0{fill:#A55833;}
	.st1{fill:#37452E;}
	.st2{fill:#CCAC8B;}
	.st3{fill:#929E3F;}
	.st4{fill:#D48A38;}
	.st5{fill:#AE6E4F;}
	.st6{fill:#5E7748;}
	.st7{fill:#62565D;}
	.st8{fill:#4A5D40;}
	.st9{fill:#AB8DA7;}
</style>
<g>
	<path class="st0" d="M107.2,115c0-0.2,0-0.3-0.1-0.5c-0.5-3.1-2.3-4.5-4.5-4.9c0-1.1-0.3-2.2-0.8-3.1c3-2.1,1.3-7.4-2-8.8   c-2.3-1-4.7-1.4-7.1-1.4c-0.4-1.4-1.4-2.7-3.4-3.1c-7.6-1.6-15.2-2.2-22.9-2.6c2-3.7-2.2-8.7-7-6.7c-6.1,2.6-12.4,4.2-19,5.2   c-3.2,0.5-4.1,3-3.4,5.4c-1.7-0.5-3.5-1.1-5.2-1.7c-3.2-1.2-6.2,1.8-6.3,4.8c0,0.6,0,1.1,0.1,1.7c-0.1,0-0.1,0-0.2-0.1   c-3.7-1-6.5,2.4-6.3,5.5c-2.2,1.3-2.9,4.7-1.7,7c0.4,0.8,0.9,1.6,1.4,2.3c-0.3,0-0.6,0.1-1,0.2c-3.8,0.8-4.6,5.7-2.2,8.4   c0.4,0.4,0.8,0.9,1.3,1.3c-1.4,2.5-0.9,6.4,2.7,7.6c4.3,1.4,8.8,2.6,13,4.4c3.4,1.4,5.9,2.9,9.7,3.3c9.2,1,17.8,3.3,27.2,2.8   c8.2-0.5,17.3-1.3,24.7-5.2c5.6-3,14.8-9,16-15.7C110.7,118.7,109.7,115.9,107.2,115z"/>
	<path class="st1" d="M162.1,69c-0.1,0.3-0.1,0.8-0.6,0.7c-0.3-0.1-0.3-0.4-0.4-0.7c0-0.5,0-0.9-0.1-1.4c-0.7-0.1-1.3-0.4-1.3-1.1   c0-0.9,0.8-1.3,1.5-1.7c0.4-0.2,0.9-0.1,1.4-0.1c0.6-0.1,1.3-0.3,1.6-0.8c0-0.4,0-0.8-0.1-1.2c-0.6-0.7-1.4-1-2.4-0.9   c-0.9,0.1-1.7,0-2.6,0c-0.6-0.1-1.2-0.2-0.4-1c0-0.6,0.5-0.9,0.8-1.4c0.9-1.4,0.8-2.4-0.6-3.2c-1-0.5-1.2-1.1-1.2-2   c0-0.1,0-0.2,0-0.3c-0.6-0.2-1.2-0.5-1.7-0.8c-2.4-1.5-4.4-3.8-5.1-4.5c-1.4-1.4-2.6-3.2-4.3-4.3c-1.3-0.4-2.3-1.1-2.5-2.6   c-1.2-0.8-1.8-1.8-1.7-2.9c-1.6-2-2-3.7-2.5-6.3c-0.2-1.1-1.8-2.2-2.3-1.7c-0.2,0.7-0.4,1.4-0.6,2.1c0.1,1-0.1,1.7-1.3,1.4   c-1.5-0.4-3-1.1-4.3-2c-0.8-0.6-1.1-1.6-1.1-2.6c-1-2.3-4.4-1.3-4.4-0.5c0,0.7,0.2,1.5-0.7,1.8c-0.3,0.1-0.6,0.1-0.9,0.1   c-1.4-0.2-2.8-0.5-4.2-0.8c-0.9-0.2-1.5-0.6-1.3-1.6c-0.1-0.5-0.2-0.9-0.3-1.4c-0.8-0.4-0.9-0.9-0.1-1.5c0-0.3-0.1-0.6-0.1-1   c-0.7-0.1-0.9-0.5-0.7-1.1l0-1.6c-0.2-0.7,0.1-1,0.8-1.1c0.5,0,0.8-0.3,1-0.7c-0.1-0.1-0.2-0.3-0.3-0.4c-1-0.5-1.7-1.3-2.8-1.5   c-1.3,0.3-1.8,1.1-1.7,2.4c0.1,1.5-0.2,3,0.4,4.5c0.2,0.4,0.2,1-0.3,1.3c-0.6,0.3-1-0.1-1.4-0.5c-0.5-0.5-0.5-1.1-0.5-1.8   c0-0.8,0.2-1.7-0.2-2.4c-0.9-0.5-1.4,1.1-2.2,0.2c-0.3,0-0.6-0.1-1-0.1c-0.5,0-1,0.1-1.4,0.1c0,0.1,0,0.3,0,0.4   c0,0.9,0.1,1.7,0.7,2.4c0.4,0.6,1.1,1.3,0.5,2.1c-0.5,0.7-1.7,1-3.1,0.8c1.1-1.2,0.9-2.4-0.1-3.5c-0.4-0.5-0.5-1.2-0.5-1.8   l-0.3-0.3c-1.1,0.6-2.3,0.9-3.5,0.6c0,0.1,0,0.1,0,0.2c0,0.3,0,0.6,0,0.9c0.2,0.3,0.4,0.6,0.7,0.9c0.3,0,0.5,0.1,0.8,0.1   c0.6,0,1.1,0.3,0.8,1c-0.2,0.5-0.5,0.4-0.9,0.1c-0.3,0-0.5,0-0.8,0c-0.2,0.6-0.5,1.2-1.1,1.4c0.1,1.6-1.4,1.9-2.3,2.7   c-0.3,0.2-0.8,0-1-0.4c-0.3-0.6-1-1.1-1-1.8c0-0.3-0.1-0.6-0.1-0.8c-0.9-0.8-2-1.3-2.4-2.5c-2.1-1.8-2.6-3.4-0.8-5.5   c0,0,0.2-3.1-1.9-2.9c-0.4,0.1-3.4,0.9-4.2,0.5c-0.5-0.2-1-0.5-1.5-0.7c-0.6,0.2-1,0.1-1.1-0.6c-0.1-0.1-0.2-0.1-0.4-0.2   c-0.6,0.1-0.9-0.3-0.8-0.8c0.1-0.5,0.5-0.4,0.9-0.1c0.5-0.1,1-0.3,1.5-0.5c-0.3-0.6-0.5-1.3-0.6-2c-0.7,0-1.4,0.1-2,0.3   c-0.4,0.1-0.8,0.2-1.2,0.1c-0.3,0.1-0.6,0.2-0.9,0.3c-0.6,1-0.7,1-1.4,0.1c-0.8-0.2-1.6-0.2-2.3-0.8c-0.9,0.4-1.6,0.2-1.9-0.7   c-0.3-0.8,0.4-1.1,0.9-1.5c0.4-0.4,0.9-0.6,1.4-0.9c0-0.4,0.2-0.7,0.4-1.1c0.8-1.4,0.8-1.4-1-1.4c-0.4,0.1-0.8,0.1-1.2,0.2   c-1.1,1-2.3,1.9-3.4,2.9c-0.5,1.5-1.7,0.8-2.5,0.6c-0.6-0.1-1.1-0.7-0.5-1.4c0-0.2,0-0.4,0-0.6c-0.8-1.4-0.2-3-0.5-4.5   c-0.6,0-1.1,0-1.7,0c-0.5,1.2-0.3,2.5-0.2,3.8c0.1,0.7,0.2,1.6-0.6,1.8c-1.1,0.3-2.2,0.3-3.3-0.1c-0.4-0.2-0.4-0.7-0.4-1.1   c0-0.9,0-1.7,0-2.6c-0.2-0.4-0.5-0.8-0.9-0.9c-1,0-1.7,0.4-1.6,1.6c0,0.3,0,0.6,0.1,0.9c0.2,0.7,0.8,1.6,0,2.2   c-1,0.6-2.2,0.9-3.4,0.5c-0.8-0.3-0.9-0.9-0.7-1.7c0.5-1.9,0.2-3.8,0.3-5.7c0-0.6-0.1-1.2-0.8-1.3c-0.6-0.1-0.7,0.5-1,0.8   c-0.4,0.4-0.5,0.9-0.6,1.5c-0.1,0.8-0.7,1.1-1.4,1c-0.7-0.1-0.8-0.8-0.9-1.3c-0.1-0.7-0.1-1.4-0.2-2.1c0-0.4-0.3-0.6-0.7-0.5   c-0.3,0-0.6,0.2-0.6,0.6c-0.1,0.5-0.1,1-0.1,1.4c0,2.1,0,4.1,0,6.2c0,0.9,0,1.8-0.9,2.3c0,0.7,0,1.5-0.8,1.7   c-0.8,0.3-1.8,0.5-2.5,0c-1-0.7-0.5-1.6,0.4-2.2c0-0.7,0.1-1.4-0.7-1.7C45.6,8,45.2,8.5,45,9c0.1,1.9-0.1,3.6-1.8,4.8l-0.1,0.1   c-0.2,1.2-0.9,1.4-2,1.3c-0.3,0.1-0.6,0.1-0.9,0.2c-1.5,1.6-2.1,1.5-3-0.1c-0.8-1.5-1-3.1-0.9-4.8c0-0.2-0.1-0.3-0.1-0.5   c-1.2,0-0.6-1.4-1.6-1.7c-0.3,1.7-0.7,3.2,0.5,4.7c1.1,1.4,0.9,3.3,1.1,5c0.1,0.7-0.5,1.1-1.1,1.5c-1.8,1.1-3.5,2.3-4.5,4.1   c-0.4,0.7-1.1,0.9-1.9,0.8c-0.1,0.4-0.3,0.7-0.6,1c0,0.9-0.4,1.4-1.3,1.4c0,0.2-0.1,0.3-0.1,0.5c-0.9,2.1-1,2.1-3.1,1.2   c-0.8-0.3-1.5-1.6-2.2-1c-0.9,0.8,0.5,1.6,0.7,2.4c0.5,1.7,0.7,3.8,0.3,5.5c-0.2,0.7-0.5,1.3-0.8,2c-0.6,1.3-1.5,2-3,1.9   c-1.5-0.2-2.8,0.4-4.1,1c0.9,1.2,2.1,0.8,3.2,0.9c0.7,0,1.5,0.1,1.7,0.9c0.2,0.9-0.4,1.3-1,1.7c-0.7,0.5-1.4,0.8-2.2,0.7   c-0.5,0.3-1.1,0.5-1.4,1.1c-0.1,1-0.9,1.4-1.4,2C13,48,12.7,48.4,13,48.9c0.3,0.6,0.8,0.2,1.2,0.1c0.2,0,0.5,0,0.7,0   c0.1,0,0.3,0,0.4-0.1c0-0.6,0.3-0.9,0.8-1l0.1-0.1c0.1-0.1,0.1-0.3,0.2-0.4c0.6-0.7,1.4-1.2,2.3-0.7c0.7,0.4,0.4,1.3,0.4,2   c-0.1,2.4-1.9,3.1-3.8,3.6c-0.2,0-0.3,0.1-0.5,0.1c-0.1,1.1-1,1.6-1.7,2.2c-0.7,0.7-1.4,1.3-1.2,2.4c0.3,0,0.7,0,1,0.1   c0.3-0.9,1.1-1,1.9-1l0.5-0.1c0.1-0.8,0.6-1.3,1.2-1.7c0.7-0.4,1.5-1,2.3-0.1c0.6,0.7,0.4,1.9-0.5,2.8c0,0.2-0.1,0.3-0.1,0.5   c0,0.4,0,0.9-0.2,1.1c-1.1,1.3-0.8,2.6-0.2,4c0.7,1.6,0.4,3.3,0.2,4.9c0,0.3-0.4,0.4-0.7,0.5l-0.1,0.1c-0.1,0.6-0.4,0.9-1,0.8   c-0.2,0-0.3,0.1-0.5,0.1c0,1-0.9,1.5-1.5,2.1c-0.9,0.9-1.8,1.7-2.3,3c-0.3,0.8-1,1.1-1.9,1.1c-1,0-1.5-0.6-1.7-1.4   c-0.3-1-0.5-2-0.8-2.9c0-0.2-0.1-0.3-0.1-0.5l-1.7,0c-0.6,0.4-0.6,0.9-0.3,1.4c0.7,1.4,1.3,2.9,2,4.3C8.4,77.9,8,78.5,6,78.5   c-0.8,0-1.6,0-2.5,0c-0.1,0.8-0.2,1.6-0.3,2.4c0,0,0,0,0,0c0.6,0.1,1.3,0.1,1.9,0.1c1.3,0.1,1.5,0.3,1.2,1.7   c-0.2,0.9-0.5,1.7-0.7,2.5c-1.2,4.6-2.5,9.2-2.5,14c0,1.8-0.1,1.9-1.9,1.9c-0.3,0-0.5,0-0.8,0c-0.2,1.5-0.3,3-0.5,4.5   c0.3-0.2,0.6-0.4,1-0.6c1.5-0.8,1.7-0.7,1.8,1.1c0,1.9,0,3.8,0,5.8c0,1.3-0.2,2.5-1.6,3.3c-0.5,0.3-0.8,0.8-0.8,1.4   c-0.2,1.8,0,2.1,2.2,2.6c-0.3,0.8-0.9,1.5-1.5,2.1c-0.7,0.8-1.2,1.7-0.3,2.5c0.8,0.8,1.6,0.4,2.3-0.2c0.2-0.2,0.4-0.2,0.6-0.3   c2.1-1.7,2.7-1.6,4.3,0.9c2.4,1,4,3.1,6,4.6c1.3,1,2.6,1.8,4.2,2.2c-0.1-1.5-0.5-2.9-0.5-4.5c0.2-2.8,1.2-5.2,3.4-7   c0.7-2,1.4-3.9,2.4-5.9c1.6-3.1,3.5-6.1,5.2-9.1c1.3-2.2,2.5-4.6,4.8-6.1l0.1-0.1c-0.2-0.6,0.1-1,0.7-1l0-0.1   c0.1-0.3,0-0.7,0.2-0.9c2-1.6,3.5-3.7,5.6-5.2c0-0.5,0-1,0-1.5l-0.1,0c-0.8,0-1.5,0-2.3,0.1c-0.3,0.2-0.6,0.3-0.8,0.5   c-0.2,0.3-0.3,0.8-0.6,1c-2.1,1.3-3.6,3.5-5.8,4.7c0,0.1-0.1,0.2-0.2,0.3c-0.4,1.1-1.2,1.7-2.2,2.2c-0.3,0.8-1.2,1-1.6,1.7   c-0.5,1.9-1.9,3.2-3,4.5c-2.3,2.5-3.8,5.4-5.7,8.2c-1.5,2.2-2.9,4.4-4,6.7c-0.2,0.4-0.5,0.9-1.1,0.5c-0.4-0.3-0.3-0.6-0.2-1.1   c0.9-2.4,1.7-4.9,2.7-7.3c0.6-1.4,1-3,2.7-3.7c0.4-0.3,0.4-0.9,0.6-1.3c-0.1-0.6,0.2-1,0.8-1.1c0.2-0.5,0.3-0.9,0.5-1.4   c0-0.7,0.2-1.3,1-1.5c0-0.1,0.1-0.2,0.1-0.3c-0.1-0.6,0.2-1,0.8-1.1c0.2-0.3,0.4-0.5,0.6-0.8c0-0.7,0.3-1,1-1   c0.3-1.1,0.5-2.3,1.9-2.4c0.8-0.8,1.6-1.6,2.4-2.4c0.3-1.6,1.6-1.7,2.8-2.1c0-0.1,0.1-0.2,0.2-0.2c0.4-2.1,2.3-2.7,3.8-3.6   c1.6-1,3.3-1.8,4.9-2.8c1.5-1,3.3-1.4,5.1-1.8c0.4-0.1,0.8-0.2,1.2-0.2c0.1-0.2,0.2-0.5,0.4-0.5c3.8-1.2,7.5-2.5,11.6-2.2   c0.1,0,0.2,0.2,0.5,0.4c-0.6,1-1.3,1.7-2.6,1.7l0,0c-0.1,0.6-0.5,0.9-1.1,0.8c-1.1,0.1-1.8,1.2-3,1.1c-0.4,1.7-1.7,2.5-3.1,3.3   c-0.1,0.6-0.4,0.9-1,0.7L46,90.2c0,0.6-0.3,0.9-0.9,0.9L45,91.1c0.1,0.6-0.2,0.9-0.8,1c-1.3,2.1-3.6,3.2-5,5.2   c0.1,0.6-0.2,1-0.8,1.1c-0.2,0.3-0.4,0.6-0.6,0.9c0,0.9-0.5,1.4-1.3,1.5c0,0.1-0.1,0.3-0.1,0.4c0,1.2-0.7,1.8-1.9,1.9c0,0,0,0,0,0   c0.1,1.8-1.2,2.9-2.1,4.2c-2.3,3.6-4.7,7.1-6.5,11.1c-0.2,0.4-0.2,0.8,0.2,1.3c1.6-1.4,3.5-2.5,5.1-3.7c1.9-1.4,3.3-3.4,4.7-5.3   c2.5-3.4,4.8-6.9,7.9-9.9c0.9-0.8,1.6-1.7,2.2-2.8c1.1-2,3.2-2.8,4.7-4.4c2-2.2,4.4-4,7-5.6c0.3-0.2,0.6-0.6,1-0.3   c0.3,0.6-0.2,0.9-0.5,1.2c-3.7,4.4-5.9,9.6-8.2,14.7c-0.5,1.1-0.7,2.4-1,3.6c-0.7,3.2-2.3,6.1-2.8,9.3c-0.2,1.6-0.6,3.1-0.8,4.7   c-0.2,1.9,0,2.1,2,2.2c0.3,0,0.6,0,1,0c0.6-1.6,1.2-3.2,1.5-4.8c-0.1-0.6,0.2-0.8,0.6-1.1c0-0.3,0-0.6,0.1-0.8   c-0.4-1.3,0.5-2.3,0.9-3.3c1.6-4.3,3.6-8.4,5.4-12.7c0.5-1.2,1-2.3,1.6-3.5c1-2.1,3-3.5,4-5.6c0.2-0.5,0.9-0.4,1.1,0.1   c0.3,0.7,0.5,1.5,0.6,2.3c0.1,3,0,5.9,0,8.9c0,0.3-0.2,0.6-0.4,0.8c0.1,1-0.4,1.9-0.5,2.8c0,0.2,0,0.4,0,0.6   c0.6,0.5,0.4,1.1,0.4,1.8c-0.4,4.6-0.9,9.3-1,14c0,2.3-0.2,4.6-0.9,6.8c0,2.3,0,4.6,0.1,6.9c0.1,2.4,1.7,4.6,4.1,5.1   c4.6,0.8,9.1,1,13.7-0.2c1.9-0.5,3.9-0.8,5.8-1.2c0.6-0.1,1.2-0.4,1.8-0.7c0.4-0.3,1-0.7,0.9-1.3c-0.1-0.7-0.7-1.1-1.3-1.2   c-0.9-0.1-1.8-0.1-2.6,0c-2.3,0.4-4.5,0.8-6.8,1.2c-0.6,0.1-1.3,0.1-1.9,0.1c-2.6,0-2.5,0.1-1.8-2.5c0.7-2.6,1.2-5.4,1.7-8   c0-4.2,0-8.4,0-12.7c0-0.7,0.1-1.5-0.3-2.1c-0.3-0.5-0.6-1-1.3-0.9c-0.7,0.1-0.8,0.7-0.9,1.2c-0.1,0.6-0.1,1.1-0.2,1.6   c-0.1,0.4-0.5,0.6-0.9,0.7c0.1,1.6,0.2,3.2-0.1,4.8c-0.1,2.8-0.5,5.5-1.2,8.1c0,0.7,0.1,1.5-0.1,2.1c-0.7,2.1-0.9,4.2-0.8,6.3   c0.1,1.2-0.3,1.8-1.6,1.7c-0.2,0-0.3,0-0.5,0c-2.9,0.1-2.6,0.1-2-2.8c0.4-1.7,1.5-3.3,1.3-5.2c-0.1-0.7,0.2-1.6,0.8-2.2   c-0.2-2.4,0.3-4.8,0.7-7.1c0.2-1.3,0.3-2.5,0.3-3.8c0-0.7-0.2-1.5,0.5-2c-0.1-1.8,0.6-3.5,0.4-5.3c-0.6-0.7-0.6-1.3,0.1-1.9   c0-2.6,0-5.2,0-7.7c-0.5-0.3-0.5-0.6-0.1-0.9c0-1.3-0.6-2.6-0.4-3.9c-0.6-0.7-0.9-1.5-0.8-2.4c-0.6-1.6-0.5-3.4-2.3-4.5   c-0.7-0.4-0.9-1.7-0.6-2.7c-0.9-0.8-1.8-1.2-3.1-1.1c1.7-1.2,3.1-2.7,5.2-2.8c1.3-0.1,1.6-0.8,1.6-1.9c0-1.5-0.8-2.7-1.4-4   c-0.5-1.2-0.7-2.2,0-3.4c1-1.7,0.1-3.2-0.8-4.7c-0.8-1.3-1.7-2.6-2.6-4c-0.2-0.3-0.5-0.6-0.3-1.1c0.3-0.5,0.7-0.7,1.2-0.5   c0.9,0.3,1.9,0.3,2.8,0.4c1.8,0.2,2.2,0.8,1.8,2.6c-0.2,1.1-0.5,2.2-0.7,3.2c-0.2,1.2,0,2.2,1.1,2.9c1.3,0.9,1.7,2.2,0.9,3.6   c-0.9,1.6-0.5,3.3-0.6,4.9c0,1,0.6,1.3,1.6,1.4c2.2,0.3,4.2-0.7,6.2-1.3c0.5-0.2,1.1-0.3,1.5-0.6c2.1-1.4,4.3-1.2,6.5-0.2   c0.6,0.3,1.2,0.3,1.9,0.3c0.5,0,0.9,0.3,1,0.8c0.9,0.1,1.8,0.2,2.7,0.3c3.4,0.5,6.5,1.7,9.6,3.2c2.7,1.4,5,3.4,7.5,5   c2.3,1.5,4,3.6,6,5.3c0.9,0.8,2,1.3,2.9,2.1c2.4,2.1,3.3,3.7,1.6,6.5c-0.9,1.5-1.1,3.4-2,5c-0.9,1.5-1.7,3.1-2.6,4.6   c-0.1,0.2-0.4,0.2-0.6,0.3c-0.4,1.5-1.5,2.8-2.2,4.1c-0.5,0.9-1.1,0.8-1.8-0.1c-0.4-0.6-1.2-1.1-1.1-2c-1.3-1.8-2.5-3.6-2.7-5.9   c-0.1-0.1-0.1-0.2-0.1-0.3c-1.2-0.9-1.8-2.1-2.3-3.5c-0.6,0-1.1-0.3-1.3-0.8c-0.7-2-2.5-3-3.6-4.7c-0.2-0.3-0.5-0.6-0.9-0.7   c-0.4-0.1-0.8-0.1-1.1,0.2c-0.3,0.4-0.1,0.7,0.2,1c1.6,1.8,2.4,4,3.4,6.2c0.1,0.3,0.1,0.6,0.2,0.9c0.2,0.2,0.3,0.4,0.5,0.6   c0.6,0.1,0.9,0.6,1.2,1.1c1.5,2.9,3.1,5.8,4.6,8.7c0.4,0.7,0.7,1.4,0.6,2.3c0.9,0.6,0.2,1.1-0.2,1.5c-0.6,0.8-1.1,1.4,0.2,2   c0.7,0.3,0.6,0.9,0.4,1.4c-0.3,0.8-0.4,1.5-0.4,2.3c1.8,0.3,2.9-0.5,4-1.8c0.4-0.5,0.6-1.3,1.3-1.5c0.4-1.3,1-2.4,1.8-3.6   c1.2-1.7,2.9-3,3.6-5c1.4-3.7,2.9-7.3,4.3-10.9c1-2.6,1-2.8,3.8-2.5c3.7,0.4,7.3,0.4,11,0.4c0.7,0,1.5,0.1,2.1-0.2   c1.9-0.8,3.9-0.8,5.9-0.8c3.1,0.1,5.5-1.1,7.8-3.1c3-2.6,5.3-5.8,6.9-9.4c0.6-1.4,1.4-2.1,2.5-2.5c0.1-2.2,0.3-4.5,0.4-6.7   c0,0,0,0,0,0c-1.1-1.7-0.9-4.3,0.4-5.9c0.1-2,0.4-4.4,0.6-6.9c-0.2,0.2-0.4,0.4-0.7,0.5C163.2,68.2,163,69,162.1,69z M134.3,44   c0.5-1,1.3-1.8,2.3-2.3c0.7-0.9,1.4-0.3,2,0c0.6,0,0.9,0.3,0.8,0.9c0.7,0.7,1.4,1.3,2.1,2c0.2,0.1,0.5,0.1,0.6,0.2   c0.3,0.2,0.3,0.7,0,0.8c-0.6,0.3-0.6-0.3-0.6-0.6c-2.2,0-4.4,0-6.5,0C134.4,45,133.5,45,134.3,44z M95,34.1   c6.6-1.8,13.2-3.4,20.2-2.1c3.3-0.5,6.1,1.6,9.3,1.6c0.5,0,0.9,0.3,1.1,0.8c1.5-0.1,2.7,0.8,4.1,1.3c0.5,0.2,1,0.7,1,1.2   c0.1,1,0.5,2.2-0.5,2.9c-0.8,0.6-1.5-0.2-2.1-0.6c-1.4-0.9-3.1-1.3-4-2.8c-0.3-0.1-0.6-0.1-0.9-0.2c-0.7,0.1-1.4,0.2-1.4-0.8   c-2.2,0-4.3-1.1-6.4-1.4c-1.8-0.3-3.6-0.7-5.4-0.6c-3.3,0.1-6.5-0.3-9.8,0.5c-2.2,0.5-4.4,0.9-6.5,2.2C93.5,34.9,94.2,34.4,95,34.1   z M54.3,14.1c5.4-0.8,10.8-1.6,16.4-0.4c2.9,0.6,5.7,1.6,8.4,2.6c1.1,0.4,1.9,1.2,2.8,1.8c3.6,2.5,6.5,5.6,9.4,8.8   c0.5,0.6,0.5,0.8-0.1,1.3c-1,0.7-2.2,0.9-3.2,1.7c-0.4,0.3-1,0.2-1.3-0.3c-0.9-1.2-2.3-1.9-3.2-3.2c-2.3-3.5-5.6-5.9-9.2-8.1   c-5.2-3.1-10.8-3.4-16.6-3.1c-0.3,0-0.6,0-0.9,0.1c-2.9,1-2.9,1-6,0.5C52.1,14.7,53.2,14.3,54.3,14.1z M31.6,45   c1-0.4,1.2,0.2,1.3,0.7c0.5,2.3,1,4.6,1.5,6.9c1.8,0.9,2,1,2.5-0.7c0.7-2.1,0.5-4.4,0.8-6.5c0.2-1.9,0.1-3.8,0.1-5.7   c0-0.8-0.2-1.6,0.7-2.1c0-1.1,0.1-2.1,0.1-3.2c-0.4-0.6-0.4-1.2-0.2-1.8c0.9-2.9,1-5.9,2.3-8.7c-0.2-1.6,0.8-2.9,0.8-4.5   c0.1-1.4,2.6-2.1,3.4-1c1.5,2.1,3.5,3.8,4.3,6.3c0.7,0.9,0.6,2.4,2,2.8c0.7,0.1,0.9,0.5,0.8,1.1c0,0.4,0.1,0.9,0.1,1.3   c1.2,0.2,1.4,0.9,1.3,1.9l0.1,0.1c1-0.1,1,0.6,1,1.3c0.9,0.9,0.9,2.3,1.5,3.4c1.3,0.4,1.3,1.8,1.6,2.7c0.8,2.6,1.8,5.1,3.2,7.4   c0.5,0.9,0.8,1.9,1,2.9c0.3,1.8,0.2,2.2-1.4,2.6c-1.6,0.4-2.7,1.2-3.9,2.2c-0.4,0.4-0.8,0.7-1.4,0.8c-2,0.3-2.8-0.5-2.3-2.4   c0.5-2.1,0.4-4.1,0-6.1c-0.6-2.9-0.9-5.8-1.6-8.6c-0.5-2.2-1.3-4.4-1.6-6.7c-0.8-0.1-1.1-0.7-1.2-1.3c-0.1-1.6-1-2.8-1.5-4.2   c-0.3-0.8-0.6-1.5-0.6-2.3c0-0.4,0-0.9-0.2-1.1c-0.6-0.7-0.7-2-1.9-2c-1.1,0-0.4,1.4-1.2,1.8c0.2,2.1,0.4,4.1,0.6,6.2   c0.3,0.1,0.6,0.2,0.7,0.6c0.3,1.7,1,3.4,0.6,5.2c0,0.3,0.1,0.6,0.1,1c0.3,0.1,0.7,0.2,0.7,0.5c0.1,1.7,0.8,3.4,0.6,5.2   c0,0.3,0.1,0.7,0.1,1c1.3,1.1,1.9,2.6,1.8,4.3c0,0.2,0.1,0.3,0.1,0.5c0.6,0.1,1.1,0.2,0.4,0.9c0,0.3,0,0.7,0,1c0.6,0,0.9,0.4,0.8,1   c0.8,1.5,0.4,2.9-0.4,4.3c0,0.5,0.1,1.2-0.7,1.3c-0.6,0.1-1.1-0.1-1.3-0.7c-0.3-0.7-0.9-1.3-0.7-2.2l-0.2-3.7   c-1.2-0.4-1-1.1-0.4-1.9c0-0.7-0.1-1.3-0.1-2c-1.1-0.2-1.1-1.2-1.2-1.9c-0.1-1.6-0.5-3.1-1-4.6c-0.2-0.6-0.1-1.4-0.1-2.1   c0,0,0,0,0,0c-0.6,0-0.9-0.3-0.9-1c-0.1,0.2-0.4,0.3-0.4,0.5c-0.1,3.2-0.4,6.4,0.1,9.5c0.3,2,1.2,3.9-0.1,6   c-0.5,0.8-0.1,2.2-0.1,3.3c0,0.9-0.3,1.5-1.3,1.7c-1.2,0.2-2.3,0.7-3.5,0.5c-0.5,0.1-0.9,0.1-1.4,0.2c-0.8,1.2-2.2,1-3.4,1.2   c-0.7,0.1-0.9-0.5-0.9-1.1C31.6,53.2,31.6,49,31.6,45z M61.5,70.1c-0.3,0.4-0.9,0.3-1.3,0.2c-0.1,0-0.3-0.1-0.4-0.2   c-3.6-3.5-8.1-5.2-12.6-7c-0.2-0.1-0.3-0.3-0.8-0.9c2.6-0.3,4.8-0.3,7-0.1c0.2,0,0.5,0.2,0.7,0.2c3.2-0.4,4.5,1.9,5.7,4.1   c0.5,0.9,1.4,1.6,1.7,2.6C61.6,69.3,61.8,69.7,61.5,70.1z M23.2,45.8c0.5-0.7,0.6-1.7,0.7-2.5c0.2-2.4,1.3-4.5,2.5-6.6   c0.5,2.6,0.4,5.1,0.3,7.7c-0.1,4.6,0.7,9.2,1.4,13.7c0.1,0.5,0.1,1.1,0.1,1.7c0.1,1.1-0.7,1.6-1.6,1.8c-1,0.3-1.5-0.5-1.7-1.3   c-0.4-1.8-1-3.6-1.6-5.2c-0.8-2-0.8-4-0.8-6C22.5,47.9,22.5,46.8,23.2,45.8z M20.2,59c0.6,0,0.8,0.5,1,0.9c0.5,0.9,0.9,1.9,1.6,2.6   c0.8,0.7,0.3,1.3-0.4,1.8c-0.8,0.6-2.2,0.6-2.3-0.1c-0.2-1.3-1.2-2.3-1.1-3.6C19.1,59.6,19.6,59,20.2,59z M8.7,87.6   c0.9-2.1,1.6-4.3,3.6-5.6c0.1-0.1,0.1-0.2,0.1-0.4c-0.1-1.1,0-2.2,1.4-2.5l0,0c-0.1-0.6,0.2-1,0.9-1c0.2-0.3,0.4-0.6,0.6-0.8   c0.1-1.3,0.7-2,2-1.9c1.6-0.8,2.4-2.4,3.7-3.5c0.1-0.7,0.4-1,1.1-0.8c0.1,0,0.2-0.1,0.3-0.2c0.3-1.1,1.1-1.3,2.1-1.2   c0.1,0,0.3-0.1,0.4-0.1c0.9-1.3,2.2-2,3.3-3c0.6-0.6,1.4-0.8,2.2-0.8c4.2,0,8.4-0.2,12.5,0.9c1.3,0.3,2.3,1.1,3.5,1.4   c0.4,0.1,0.8,0.2,0.7,0.7c-0.1,0.4-0.5,0.6-0.9,0.7c-0.5,0.1-1,0.1-1.3-0.4c-1.8,0-3.5,0.1-5.3,0.1c-0.1,0.3-0.2,0.7-0.5,0.7   c-2.1-0.1-4.2,0.8-6.3,0.5c-1.6,0.3-3.3,0.6-4.9,0.9c-0.2,0.5-0.7,0.6-1.1,0.8c-0.1,0.6-0.4,0.9-1.1,0.8l0,0c0.1,0.4,0,0.8-0.3,1   c-1.5,1-3.2,1.8-4.9,2.4c-1,0.4-1.7,1.1-2.3,2c-0.2,1.7-1.2,2.6-2.9,2.9c-0.5,0.6-1,1.2-1.5,1.8c-0.9,2.5-2.2,4.8-4.6,6.2   C8.3,88.6,8.5,88,8.7,87.6z M64.6,79c0.1,0.6,0.2,1.3-0.5,1.4c-1.6,0.3-3.2,0.4-5.2,0.7c1-2.4,0.3-3.8-1.5-4.9c-0.3,0-0.6,0-0.8,0   c-0.2,0.3-0.4,0.3-0.5,0c-0.4-0.1-0.9-0.2-1.3-0.3c-1.6,0.6-3.3,0.2-4.9,0.3c-0.2,0.5-0.6,0.5-1,0.3c-1.4,0.1-2.8,0.3-4.2,0.4   c-0.3,0.8-0.9,0.9-1.6,0.6c-0.8,0.1-1.5,0.2-2.3,0.3c-0.2,0.5-0.5,0.8-1.1,0.6l-1.9,0.7c0,1-0.7,1-1.4,0.9   c-0.3,0.1-0.6,0.1-0.9,0.2c-0.2,0.6-0.5,0.8-1.1,0.7c-0.6,0.2-1.2,0.5-1.8,0.7c-0.3,1-1.1,1.2-2,1.3C30.5,83,30.3,83,30.2,83   c-0.2,0.9-0.9,0.9-1.6,0.8c-0.1,0-0.2,0.1-0.4,0.1c-0.5,1.4-1.7,2.3-2.8,3.2c-2.4,1.9-4.5,3.8-6.3,6.4c-2.1,3-4.5,5.7-6.3,8.9   c-1.4,2.5-2.7,5-4,7.6c-0.2,0.4-0.3,0.9-1,1.2c-0.6-1.4-0.5-2.9-0.2-4.3c1-4.4,3.2-8.2,5.7-11.9c3.4-5,7.6-9.3,11.4-14.1   c0.4-0.4,0.8-0.8,1.4-0.7l0,0c0-0.6,0.2-1,0.9-0.9c0.1-0.1,0.3-0.1,0.4-0.1c0.1-0.6,0.4-0.9,1-0.8c2.1-1,4.3-1.7,6.6-2.1   c0.2-0.5,0.5-0.8,1.1-0.5c1.5-0.4,3.1-0.3,4.6-0.5c1-1.3,2.3-0.6,3.5-0.6c0.5,0,1-0.1,1.4-0.1c0.7-0.8,1.6-0.5,2.4-0.3   c1.3-0.1,2.5-0.2,3.8-0.3c0-0.6,0.3-0.9,0.9-0.8c2.4-1.2,4,0.1,5.5,1.8c0.3,0,0.6,0,1,0.1C62.8,75.1,63.9,75.9,64.6,79z M72,44.9   c-1.1-0.1-1.4-1-1.6-2.1c-0.4-3.2-1.9-5.9-3.5-8.7c-0.8-1.4-2-2-3.6-1.4c0,0.2,0,0.4,0,0.7c0.2,0.2,0.6,0.4,0.7,0.6   c1.7,4.2,3.9,8.3,5.2,12.7c0.6,2.1,0.3,4-1.4,5.5c-0.5,0.4-0.9,0.5-1.4-0.2c-0.7-0.9-1-2-1.3-3.1c-1.2-4.4-2.1-8.8-3.6-13.1   c-0.5-1.3-1.4-2.3-2-3.5c-0.8-1.9-1.8-3.7-2.8-5.5c-1.9-3.3-4.6-5.8-7.4-8.3c-0.7-0.6-1.3-1.2-1.6-2c0.7-0.5,1.6-1.2,2.1,0.1   c0.8,1.8,2.6,2.5,4.1,3.4c1.7,1,3.1,2.1,4.5,3.4c2.6,2.3,5.3,4.3,7.9,6.6c1.5,1.3,3.3,2.5,4.1,4.6c0.2,0.4,0.5,0.8,0.9,1   c1.2,0.2,2.1,1.1,3,1.8c0.4,0.3,0.7,0.7,1.3,0.4c0.6-0.3,0.6-0.9,0.6-1.4c0-1-1-1.7-0.7-2.7c-0.1-0.3-0.2-0.6-0.3-0.9   c-1-0.2-1.2-1-1.3-1.9c-0.1-0.1-0.1-0.3-0.2-0.4c-1.5-0.8-2.7-1.7-3.1-3.4l-0.1-0.1c-0.2,0-0.5,0-0.7-0.1c-2-1.7-3.9-3.5-5.9-5.2   c-0.2-0.2-0.5-0.5-0.4-0.8c0.2-0.5,0.7-0.4,1-0.3c1.9,0.5,3.9,1.1,5.5,2.2c4.1,2.6,8.2,5.2,11.6,8.7c1.5,1.6,1.6,1.9,0.3,3.6   c-0.8,1-1.6,1.9-2.7,2.6c-1.5,0.9-2.6,2.3-3.8,3.6c-0.4,0.4-0.7,0.8-1.3,0.8c-0.1,0.4-0.2,0.9-0.3,1.3C73.7,44.2,73.1,44.9,72,44.9   z M105.1,79.8c-0.4,0.3-0.7,0-1.1-0.2c-2.5-1.2-4.9-2.6-7.6-3.2c-0.7-0.2-1.4-0.3-2.1-0.3c-0.9,0-1.7-0.2-2.3-1   c-0.6,0-1.2,0-1.8-0.1c-2.6,0.3-5.3,0.1-7.9,0.1c-1.1,0-2.2,0.1-3.2,0.6c-0.8,0.4-1.4,0.7-1.7,1.7c-0.4,1.4-1.9,1.9-3.3,1.3   c-0.3-0.1-0.3-0.5-0.3-0.8c-0.1-1.1,0.7-2,0.5-3c-0.4-1.5,0.2-2.8,0.8-4c-1.2-1.8-0.8-3.8-0.4-5.8c0.2-0.5,0.5-0.9,1-0.9   c1.2,0.1,2.3,0.4,3.5,0.7c0.1,0,0.2,0.4,0.3,0.6c0.5,0,0.9,0.1,1.4,0.1c1-0.2,1.9,0.3,2.7,0.6c0.6,0.2,1.1,0.7,1.1,1.4   c0,0.8-0.8,1-1.4,1.1C82.8,69,82.1,69,81.5,69c-0.7,0-1.4,0.1-1.9,0.5c-0.2,1.3-1.2,0.8-1.9,0.9c-0.2,0.3-0.6,0.5-1,0.6   c-0.2,0.9-0.6,1.8-0.5,2.8c1.3,0.1,2.5,0.1,3.6-0.7c0.5-0.3,1.3-1,2.1-0.3c0.6,0,1.2-0.1,1.8-0.1c0.5-1,1.3-0.8,2.1-0.6   c1.2-0.1,2.5-0.2,3.7-0.3c0.6-1,1.4-1.4,2.5-0.8c0.9,0,1.9,0.1,2.7,0.8c0.5,0.4,1.2,0.8,1.9,0.8c1.1-0.2,1.5,0.3,1.6,1.3   c0.1,0,0.2,0.1,0.3,0.1c2.7,0.5,4.3,2.5,6.3,4c0.2,0.1,0.3,0.4,0.4,0.6C105.5,79,105.6,79.5,105.1,79.8z M90.5,62.6   c-1,0.4-1.9-0.1-2.7-0.5c-0.7-0.3-0.6-1.3,0.2-2c0.8-0.6,1.7-1.1,2.7-1.7c0.7,0.8,0.5,1.4,0.5,2C91,61.3,91.4,62.2,90.5,62.6z    M113.9,71.5c-0.6,1.4-1.1,1.4-2.6,0.7c-0.6-0.3-1.4-0.4-2-0.7c-0.5-0.3-1.3-1-0.6-1.5c1.6-1.2,2.6-2.9,4.3-3.9   c1.7-1.6,3.4-3.1,4.9-4.7c1-1,2.2-2.1,1.7-3.9c-0.4,0-0.8,0-1.2,0c-0.2,0.5-0.5,0.9-1.1,0.6c-0.4,0.1-0.9,0.2-1.3,0.3   c-0.1,0.5-0.5,0.9-1.1,0.8c-0.3,0.2-0.6,0.4-1,0.6c0,0.6-0.3,0.9-0.9,1c-0.3,0.4-0.6,0.7-1,0.9c-0.1,0.9-0.6,1.3-1.4,1.4   c-0.8,0.8-1.6,1.6-2.9,1.4c-1.7,1.4-4,1-5.8,1.9c-0.1,0.1-0.5-0.1-0.6-0.3c-0.2-0.3-0.2-0.6,0-0.9c0.2-0.2,0.5-0.4,0.7-0.6   c0.4-0.3,0.9-0.5,0.8-1.1c-0.2-0.6-0.8-0.4-1.2-0.5c-1.1-0.3-1.3-0.7-0.5-1.6c2.3-2.4,5-3.9,8.2-4.5c0.4-0.1,0.8-0.1,1.3-0.2   c0.9-1.5,2.7-1.5,4-2.1c2-0.9,4.3-1.3,6.7-1c0.3,0,0.7-0.1,1-0.1c2.1-1.1,4.3-0.5,6.4-0.5c0.7,0,1,1.3,0.4,1.9   c-0.4,0.5-1,0.8-1.7,0.8c-0.1,0.1-0.2,0.1-0.3,0.1c-0.2,0.6-0.5,0.9-1.2,0.9c-0.1,0.1-0.2,0.1-0.3,0.1c-0.3,0.8-0.7,1.4-1.7,1.3   c-0.1,0.1-0.2,0.1-0.3,0.1c-0.3,0.8-0.7,1.4-1.7,1.2c-0.2,0.1-0.5,0.2-0.7,0.3c-0.5,1.4-1.5,2.4-2.5,3.4c-0.6,0.6-1.1,1.2-1.6,1.8   c0.1,0.5-0.2,0.9-0.5,1.3C115.8,68,114.7,69.6,113.9,71.5z M132.7,95c-0.3,0.8-1,1.1-1.7,0.5c-2.1-1.5-1.8-5.5,0.6-6.6   c0.5-0.3,0.9,0.1,1.2,0.4c0.8,0.8,0.5,1.8,0.6,3C133.5,93.1,133.1,94.1,132.7,95z M141.1,97.1c-1.3,0.3-2.6,0.5-4,0.5   c-0.7,0-1.5-0.5-1.2-1.4c0.4-1.3,0.3-2.6,0.6-4c1.9,0.9,3.2,2.5,4.8,3.5C142,96.1,141.8,97,141.1,97.1z M146.1,80.3   c-0.4,3.7-1.1,7.5-2.3,11.1c-0.7,2.2-2.2,2.4-3.8,0.7c-0.1,0-0.3-0.1-0.4-0.1c-1.9-0.4-2.3-1.1-1.2-2.5c0.2-0.3,0.3-0.6,0.5-0.9   c-0.5-0.7,0.1-0.9,0.5-1.1c0-0.9,0.1-1.8,0.1-2.7c-0.5-0.1-1-0.1-1.4,0.4c0,1-0.5,1.5-1.4,1.5c-0.1,0.1-0.3,0.3-0.4,0.4   c-0.7,1.2-0.9,1.3-2.4,0.5c-1.2-0.7-1.2-0.8,0-2.4c0.1-0.1,0.1-0.2,0.1-0.4c-0.1-1,0.3-1.5,1.3-1.6c0.7-1.7,1.5-3.5,2.8-5   c0.9-1.2,0.9-2.6,0.9-4.1c-1-1.6-0.9-2.1,0.6-3.5c0-0.5,0.1-0.9,0.1-1.4c-0.1-1.8-0.7-3.7,0.8-5.3c0-1.4,0-2.8,0-4.2   c-0.8-0.2-0.8-0.9-0.8-1.5c0-0.9,0.2-1.7-0.3-2.5c-0.8-0.2-0.7,0.4-0.8,0.9c-0.4,1.5-0.7,3.1-0.9,4.6c-0.3,2.3-0.8,4.6-1.3,6.9   c-0.1,0.5-0.3,1.1-0.9,1.2l-0.1,0c0,0.3,0,0.7,0,1c-0.1,0.7,0.3,1.7-1,1.8c-1,0.9-0.8,2.2-1.1,3.4c-0.6,2-1,4.1-2.4,5.8   c-0.5,0.6-0.8,1.3-0.9,2.2c-0.2,1.4-1,2.7-1.9,3.8c-0.8,0.9-1.5,1-2.2,0c-0.9-1.2-1.6-2.5-2.3-3.9c-0.3-0.6-0.2-1.4,0.2-2.1   c1.6-2.9,3.4-5.7,4.6-8.8c0.2-0.7,1-0.7,1.3-1.3c-0.1-0.7-0.1-1.3,0.8-1.4l0.1-0.1c0.1-1.3-0.1-2.8,1.6-3.4c0.5-1.7,1-3.4,1.6-5.1   c0.3-0.9,0.3-1.7,0.1-2.5c-0.5,0-0.9,0.1-1.4,0.1c-0.2,1.8-1.7,3-2.5,4.5c-0.7,1.4-1.6,2.6-2.1,4.1c-0.3,0.8-0.4,1.8-1.6,1.9   c-0.2,0.6-0.4,1.2-0.6,1.8c0.1,0.6-0.1,1-0.8,1c0,0.2-0.1,0.3-0.1,0.5c0,1,0.2,2.2-1.3,2.4c0,0.3-0.1,0.6-0.1,1   c0,0.6-0.3,0.9-0.9,0.9c0,0.2-0.1,0.3-0.1,0.5c0,0.6-0.2,1-0.8,1l-0.1,0.5c0,0.9-0.3,1.9-1.3,1.2c-1.7-1.3-3.2-2.8-4.5-4.4   c-0.8-1,0.3-3.1,1.9-4c1.3-1.3,1.8-3,3-4.4c0-0.7,0-1.3,0.9-1.4c1-1.1,2.5-1.6,3.4-2.9c0.4-1.6,2.2-1.9,3-3.2   c0.1-0.1,0.5-0.2,0.7-0.1c1.7,0.9,2.3-0.1,2.7-1.5c0.1-0.3,0.5-0.4,0.8-0.4c0.2-1.1,1.3-1.6,2-1.7c1.6-0.4,1.4-1.4,1.3-2.5   c-0.7-0.2-1.7,0.2-2.1-0.9c-0.9-0.4-0.6-1.5-1.3-2c-0.5,0-0.9-0.3-1.1-0.8c-0.4-0.1-0.8-0.2-1.2-0.2c-3-1.3-6.1-0.7-9.3-0.5   c-0.5,0-1,0-1.4-0.3l-3.1,0.1c-1.4,1.2-3.3,1.3-5,1.9c-3.4,1.2-6.9,2.3-9.8,4.5c-0.2,0.1-0.5,0.1-0.7,0.1c-0.2,0.7-0.6,1-1.1,1.4   c-1.4,1.2-3.1,1.9-4,3.6c-0.4,0.7-1.2,0.6-1.4-0.1c-0.4-1.3,0.8-2.2,0.8-3.4c0-0.7,0.6-1.1,1.3-1.1c2-2.1,4.5-3.1,7.2-3.9   c0.2-0.5,0.4-0.9,1-0.6c2.6-0.7,2.7-0.9,1.8-3.1c-1.2-0.6-2.3-0.6-3.6,0.2c-1.6,0.9-3.3,1.5-5.1,2.1c-2.5,0.8-4.8,2.1-7.2,3.3   c-1.3,0.6-2.1,1.7-3.1,2.6c0.5,0.7,0.1,1.2-0.6,1.5c-1,0.4-1.9,0.8-2.9,1.2c-1.1,0.5-2,0.8-3-0.2c-1.2-1.2-1.4-2-0.9-3.5   c0-1-0.4-2,0.5-2.8c0-0.3,0.1-0.6,0.1-1c-0.2-0.6,0-0.9,0.6-1c0.2-0.3,0.4-0.6,0.6-1c0.2-2.5,1.8-4.3,3.2-6.2   c0.2-0.2,0.5-0.4,0.8-0.5c1.4-0.5,2.8-0.9,4.2-1.4c0.5-0.1,0.9-0.1,1.4-0.2c0.8-1.1,1.8-1.1,3-0.9c0.9-0.2,1.9-0.4,2.8-0.6   c1.2-0.8,2.5-1.1,4-0.8l1.3-0.1c1.3-1.2,3-0.9,4.5-1c2.2-0.3,4.4-0.1,6.6-0.1c3.4-0.5,6.4,0.8,9.5,1.8c2.1,0.6,4,1.7,6.2,2.1   c2.3,0.4,3.1,1.8,3,4.3c0.1,0.3,0.1,0.5,0.2,0.8c0.6,0,0.9,0.4,0.9,1l0,0c1.4-0.2,2.8-0.4,4.2-0.8c0.9-0.3,1.7,0,2.5,0.5   c1,0.7,1.2,1.4,0.5,2.4c-0.4,0.6-0.8,1.2-1.2,1.8c-0.3,0.4-0.6,0.7-0.3,1.3c0.3,0.6,0.8,0.7,1.4,0.6c0.4-0.1,0.8-0.3,1.2-0.2   c0.7,0.2,1.4,0.4,1.1,1.4c0.1,0.9,0.4,1.8,0.8,2.7c1,0.3,0.9,0.9,0.6,1.7c0.1,0.3,0.1,0.6,0.2,0.8c0.7,0.7,0.8,1.7,1,2.6   C146.1,68.4,146.8,74.4,146.1,80.3z M144.9,53.9c-0.1-0.3-0.4-0.5-0.4-0.8c-0.1-0.4-0.2-0.8,0.3-1c0.3-0.2,0.6,0.1,0.8,0.3   c2.1,1.7,3.4,4,4.3,6.4c1.4,3.5,3,6.9,3.5,10.6c0.1,0.5,0.4,0.8,0.6,1.3c0.7,1.3,0.1,2.2-1.4,2.1c-1.6,0-2.3-0.7-2.5-2.3   c-0.3-3.4-0.9-6.8-2.1-10C147.3,58.2,146,56.1,144.9,53.9z M155.4,91c-0.1,3-1.8,3.9-4.2,4.8c-1.3,0.5-2.1-0.1-2.4-1.5   c-0.1-0.5-0.1-1.1-0.3-1.6c-0.4-1.2-0.1-2,1.1-2.5c0.2-0.1,0.4-0.2,0.6-0.3c1-0.7,1-1.2,0-2c-0.7-0.5-1-0.9-0.7-1.8   c0.8-2.6,1.1-5.3,1.1-8c0-1.7,0.2-1.9,2-1.8c2.1,0,2.7,0.6,2.8,2.7C155.7,82.9,155.4,87,155.4,91z"/>
	<path class="st0" d="M91.9,81.3c3.4,0.5,6.5,1.7,9.6,3.2c2.7,1.4,5,3.4,7.5,5c2.3,1.5,4,3.6,6,5.3c0.9,0.8,2,1.3,2.9,2.1   c2.4,2.1,3.3,3.7,1.6,6.5c-1,1.5-1.1,3.4-2,5c-0.9,1.5-1.7,3.1-2.6,4.6c-0.1,0.2-0.4,0.2-0.6,0.3c-0.1-0.7-0.2-1.3-0.2-2   c0.1-0.8-0.3-1.5-0.9-2c0.2-3.7-1-6.8-3.4-9.6c-0.9-1.1-1.9-2.2-1.9-3.7c0.5-0.1,0.9,0.2,1.3,0.5c0.7,0.5,1.5,0.7,2.2,0   c0.7-0.8,0.1-1.7-0.5-2.1c-2.2-1.4-3.4-4-5.7-5.3c-1.3-0.8-2.7-1.4-3.7-2.5c-1.5-1.7-3.5-2.3-5.5-3.2   C94.5,82.7,92.8,82.7,91.9,81.3z"/>
	<path class="st2" d="M50.8,15.7c1.3-1,2.4-1.4,3.5-1.6c5.4-0.8,10.8-1.6,16.4-0.4c2.9,0.6,5.7,1.6,8.4,2.6c1.1,0.4,1.9,1.2,2.8,1.8   c3.6,2.5,6.5,5.6,9.4,8.8c0.5,0.6,0.5,0.8-0.1,1.3c-1,0.7-2.2,0.9-3.2,1.7c-0.4,0.3-1,0.2-1.3-0.3c-0.9-1.2-2.3-1.9-3.2-3.2   c-2.3-3.5-5.6-5.9-9.2-8.1c-5.2-3.1-10.8-3.4-16.6-3.1c-0.3,0-0.6,0-0.9,0.1C53.9,16.3,53.9,16.3,50.8,15.7z"/>
	<path class="st0" d="M65.3,86.3c-0.9-0.8-1.8-1.2-3.1-1.1c1.7-1.2,3.1-2.7,5.2-2.8c1.3-0.1,1.6-0.8,1.6-1.9c0-1.5-0.8-2.7-1.4-4   c-0.5-1.2-0.7-2.2,0-3.4c1-1.7,0.1-3.2-0.8-4.7c-0.8-1.3-1.7-2.6-2.6-4c-0.2-0.3-0.5-0.6-0.3-1.1c0.3-0.5,0.7-0.7,1.2-0.5   c0.9,0.3,1.9,0.3,2.8,0.4c1.8,0.2,2.2,0.8,1.8,2.6c-0.2,1.1-0.5,2.2-0.7,3.2c-0.2,1.2,0,2.2,1.1,2.9c1.3,0.9,1.7,2.2,0.9,3.6   c-0.9,1.6-0.5,3.3-0.6,4.9c0,1,0.6,1.3,1.6,1.4c2.2,0.3,4.2-0.7,6.2-1.3c0.5-0.2,1.1-0.3,1.5-0.6c2.1-1.4,4.3-1.2,6.5-0.2   c0.6,0.3,1.2,0.3,1.9,0.3c0.5,0,0.9,0.3,1,0.8C88.6,81,88,81,87.4,81c-1.2,0-1.6,0.7-1.6,1.8c-0.9,0-1.7,0.1-2.6,0.1   c-1.6,0-3.1-0.1-4.4,1.3c-0.8,0.9-2,0.8-3.1,0.2c-1.3-0.7-2.6-0.5-4-0.5c-0.7,0-0.9,0.5-0.7,1.2c0.2,0.6,0.4,1.4,1.1,1.5   c1.5,0.3,1.8,1.4,1.9,2.6c0,0-0.1,0-0.1,0c-0.8,0-1.5-0.4-2.2-0.8c-0.9-0.5-1.7-0.7-2.7-0.6C67.9,87,66.9,85.9,65.3,86.3z"/>
	<path class="st3" d="M73.7,43c-0.1,1.1-0.7,1.9-1.7,1.8c-1.1-0.1-1.4-1-1.6-2.1c-0.4-3.2-1.9-5.9-3.5-8.7c-0.8-1.4-2-2-3.6-1.4   c-0.2-0.6-0.4-1.5,0.2-1.8c1.3-0.7,0.7-1.4,0.1-2c-1.7-1.5-3.6-2.9-5.4-4.3c-0.3-0.2-0.8-0.3-1.1,0c-0.3,0.3-0.1,0.6,0.1,0.9   c1.6,2.7,3.3,5.4,4.8,8.2c0.7,1.3,1,0.3,1.3-0.3c0.2,0.2,0.6,0.4,0.7,0.6c1.7,4.2,3.9,8.3,5.2,12.7c0.6,2.1,0.3,4-1.4,5.5   c-0.5,0.4-0.9,0.5-1.4-0.2c-0.7-0.9-1-2-1.3-3.1c-1.2-4.4-2.1-8.8-3.6-13.1c-0.5-1.3-1.4-2.3-2-3.5c-0.8-1.9-1.8-3.7-2.8-5.5   c-1.9-3.3-4.7-5.8-7.4-8.3c-0.7-0.6-1.3-1.2-1.6-2c0.7-0.5,1.6-1.2,2.1,0.1c0.8,1.8,2.6,2.5,4.1,3.4c1.7,1,3.1,2.1,4.5,3.4   c2.6,2.3,5.3,4.3,7.9,6.6c1.5,1.3,3.3,2.5,4.1,4.6c-0.8,0.2-1.2-1-2.1-0.8c-0.3,0.4-0.1,0.6,0.1,0.9c1.1,2.3,2.2,4.5,2.9,7   C71.8,43.5,71.8,43.5,73.7,43z M68.6,48.4c-0.7-1.5-0.7-3.4-1.8-4.9c-0.3-0.5-0.6-1-1.3-0.7C65,43,65.1,43.6,65.1,44   c0.3,1.9,0.8,3.8,1.7,5.6c0.1,0.3,0.4,0.5,0.7,0.5c0.5,0,0.7-0.3,0.9-0.7C68.5,49.2,68.5,48.9,68.6,48.4z"/>
	<path class="st4" d="M50.7,116.5c-0.4-1.3,0.5-2.3,0.9-3.3c1.6-4.3,3.6-8.4,5.4-12.7c0.5-1.2,1-2.3,1.6-3.5c1-2.1,3-3.5,4-5.6   c0.2-0.5,0.9-0.4,1.1,0.1c0.3,0.7,0.5,1.5,0.6,2.3c0.1,3,0,5.9,0,8.9c0,0.3-0.2,0.6-0.4,0.8c-0.7-0.6-0.4-1.5-0.4-2.3   c0-2.8,0-5.5,0-8.3c-2.4,2.6-3.6,5.6-4.8,8.7c0.8,0.3,1.6-0.2,2.2,0.2c0.6,0.3,1.2,0.6,0.9,1.4c-2.3-0.4-2.3-0.4-2.8,1.6   c-0.6,2.3-1.2,4.6-1.8,6.9c-1.2,4.3-2.3,8.7-3.5,13c-0.1,0.5-0.3,1.1-0.9,1.4c-0.9-0.9,0.1-1.8,0.2-2.7c0.1-1.1,0.6-1.9-0.9-2.4   c-0.8-0.2-0.6-1.2-0.6-1.9C51.1,118.3,51.7,117.2,50.7,116.5z"/>
	<path class="st0" d="M28.3,84c-0.5,1.4-1.7,2.3-2.8,3.2c-2.4,1.9-4.5,3.8-6.3,6.4c-2.1,3-4.5,5.7-6.3,8.9c-1.4,2.5-2.7,5-4,7.6   c-0.2,0.4-0.3,0.9-1,1.2c-0.6-1.4-0.5-2.9-0.2-4.3c1-4.4,3.2-8.2,5.7-11.9c3.4-5,7.6-9.3,11.4-14.1c0.4-0.4,0.8-0.8,1.4-0.7   C25.4,83.3,25.6,83.6,28.3,84z"/>
	<path class="st0" d="M56.1,36.9c1.3,0.4,1.3,1.8,1.6,2.7c0.8,2.6,1.8,5.1,3.2,7.4c0.5,0.9,0.8,1.9,1,2.9c0.3,1.8,0.2,2.2-1.4,2.6   c-1.6,0.4-2.7,1.2-3.9,2.2c-0.4,0.4-0.8,0.7-1.4,0.8c-2,0.3-2.8-0.5-2.3-2.4c0.5-2.1,0.4-4.1,0-6.1c-0.6-2.9-0.9-5.8-1.6-8.6   c-0.5-2.2-1.3-4.4-1.6-6.7c-0.4-2.4-1.1-4.7-2-6.9c0.6-0.4,1.1,0.3,1.6,0.2c0.7,0.9,0.6,2.4,2,2.8c0,0.2-0.1,0.3-0.1,0.5   c-0.7,0.7-0.5,1.5-0.3,2.2c0.4,1.4,0.9,2.8,1.1,4.1c0.5,3.7,2.5,6.9,3.2,10.6c0.2,1,0.8,1.9,0.9,2.9c0.1,0.8,0.8,1.2,1.6,1.1   c0.4-0.1,0.7-0.5,0.6-0.9c-0.4-3-0.6-6-1.7-8.8C56.2,38.6,55.9,37.8,56.1,36.9z"/>
	<path class="st0" d="M152.6,76.2c2.1,0,2.7,0.6,2.8,2.7c0.3,4,0,8.1,0,12.1c-0.1,3-1.8,3.9-4.2,4.8c-1.3,0.5-2.1-0.1-2.4-1.5   c-0.1-0.5-0.1-1.1-0.3-1.6c-0.4-1.2-0.1-2,1.1-2.5c0.2-0.1,0.4-0.2,0.6-0.3c1-0.7,1-1.2,0-2c-0.7-0.5-1-0.9-0.7-1.8   c0.8-2.6,1.1-5.3,1.1-8C150.7,76.3,150.8,76.2,152.6,76.2z"/>
	<path class="st3" d="M104,105.5c-0.6,0-1.1-0.3-1.3-0.8c-0.7-2-2.5-3-3.6-4.7c-0.2-0.3-0.5-0.6-0.9-0.7c-0.4-0.1-0.8-0.1-1.1,0.2   c-0.3,0.4-0.1,0.7,0.2,1c1.6,1.8,2.4,4,3.4,6.2c0.1,0.3,0.1,0.6,0.2,0.9c-0.1,0.1-0.2,0.2-0.4,0.4c-0.3-0.2-0.6-0.3-0.7-0.6   c-2.3-3.2-4.7-6.2-7.3-9.2c-0.6-0.7-1.6-1.2-1.5-2.3c0.5-0.1,1,0,1.3,0.3c0.9,0.7,1.5,1.6,2.1,2.6c0.5,0.7,1,1,1.6,0.1   c0.2-0.3,0.5-0.4,0.7-0.6c1.2-0.9,1.2-0.8,0.3-1.8c-2.6-2.7-5.9-4.3-8.8-6.5c-0.6-0.4-1.3-0.7-1.9-0.9c-0.5-0.2-1.1-0.3-1.4,0.6   c1.6,1.5,3.2,3,4.8,4.5c0.5,0.5,1.4,0.6,1.2,1.6c-2.6-1-4.1-3.4-6.6-4.5c-0.8-0.4-1.4-1.1-2.2-1.4c-0.6-0.2-1.1-0.5-1-1.2   c0.1-0.8,0.8-0.6,1.3-0.7c0.7-0.1,1.5,0,2.1-0.2c1.1-0.4,2-0.1,3,0.3c5.6,2.3,10.4,5.7,14.3,10.4c0.5,0.6,1.1,1.1,1.8,1.6   c2,1.6,3.5,3.6,4.4,6c-1.1,0.2-1.4-0.8-1.7-1.4c-0.7-1.1-1.7-1.9-2.4-3c-0.2-0.3-0.7-0.4-1-0.1c-0.3,0.3-0.1,0.6,0,0.9   C103.4,103.6,104.3,104.3,104,105.5z"/>
	<path class="st2" d="M44.5,83.9c0.4-0.1,0.8-0.2,1.2-0.2c0.4,0.1,0.8,0,1.1,0c2.2-0.5,4.4-1.1,6.6-1.6c0.9-0.2,1.9-0.4,2.2,1   c0,0,0,0,0,0c-0.7-0.2-1,0.2-1.1,0.8c-1.1,0.1-1.8,1.2-3,1.1c-2.5,1.2-5.1,2.3-7.6,3.6c-1.2,0.7-2.4,1.2-3.7,1c0,0-0.1,0-0.1,0   c0-0.9-0.6-0.9-1.3-0.9c-0.7,0-1.1,0.3-1,1c-0.3,0.2-0.6,0.3-0.8,0.5c-0.5-0.2-0.9,0-1.3,0.3c-1.7,1.3-3.3,2.7-4.7,4.3   c-0.3,0.3-0.4,0.7-0.3,1.1c0,0.1-0.1,0.2-0.2,0.3c-1.3,0.2-2.3,0.6-2.2,2.2c-0.3,0.8-1.2,1-1.6,1.7c-1.2,0.2-1.8,1.2-2.5,2   c-1.7,1.9-3.5,3.9-4.6,6.2c-0.2,0.4-0.5,0.9-1.1,0.7c-0.5-0.2-0.3-0.8-0.4-1.3c0.4-0.3,0.4-0.9,0.6-1.3c0.7-0.1,0.9-0.5,0.8-1.1   c0.2-0.5,0.3-0.9,0.5-1.4c0.8-0.2,1.1-0.7,1-1.5c0-0.1,0.1-0.2,0.1-0.3c0.7-0.1,1-0.4,0.8-1.1c0.2-0.3,0.4-0.5,0.6-0.8   c0.6,0,1-0.3,1-1c0,0,0,0,0,0c1.4-0.2,1.9-1.1,1.9-2.4c0.8-0.8,1.6-1.6,2.4-2.4c1.2-0.4,2.4-0.7,2.8-2.1c0-0.1,0.1-0.2,0.2-0.2   c2.1-0.7,3.5-2.5,5.6-3.2c1.3-0.5,2.4-1.4,3.7-2.1C41.5,86,43.3,85.4,44.5,83.9z"/>
	<path class="st4" d="M100.7,39.2c0.4,0,0.9-0.1,1.3-0.1c1.6,0.3,3.2,0.2,4.5-1c2.2-0.3,4.4-0.1,6.6-0.1c0.2,0.6,0.7,0.7,1.3,0.8   c2.8,0.4,5.4,1,8.1,1.9c1.6,0.6,3,1.4,4,2.9c-0.8,0.1-1.5,0.2-2.2-0.2c-0.4-0.2-0.7-0.1-1,0.3c-1,0.1-1.9-0.3-2.8-0.7   c-0.9-1.3-2.8-1.8-4.8-1.3c-3.9,0-7.7,0-11.6,0c-2.3-0.5-4.2,0.1-5.8,1.8c-0.5,0-1,0.1-1.4,0.1c-1.8,0-3.6,0-5.3,0   c-1.6,0-1.6,0-1.9-1.9c0.5-0.1,0.9-0.1,1.4-0.2c1.2,0.3,2.1-0.1,3-0.9c0.9-0.2,1.9-0.4,2.8-0.6C98.2,40.4,99.5,40.2,100.7,39.2z"/>
	<path class="st4" d="M28.3,84c-2.7-0.3-2.9-0.6-2-3.9c0,0,0,0,0,0c0.6,0,0.9-0.3,0.9-0.9c0.1-0.1,0.3-0.1,0.4-0.1   c0.7,0.1,1-0.1,1-0.8c2.1-1,4.3-1.7,6.6-2.1c0.5,0.2,0.9,0,1.1-0.5c1.5-0.4,3.1-0.3,4.6-0.5c1.2,0.1,2.5,0.8,3.5-0.6   c0.5,0,1-0.1,1.4-0.1c0.9,0.6,1.7,0.8,2.4-0.3c1.3-0.1,2.5-0.2,3.8-0.3c0.3,0,0.6,0,0.9,0c0.6,0.6,1.5,1.1,1.6,2.1   c-1.6,0.6-3.3,0.2-4.9,0.3c-0.5-0.6-0.8-0.3-1,0.3c-1.4,0.1-2.8,0.3-4.2,0.4c-0.7-0.2-1.3-0.3-1.6,0.6c-0.8,0.1-1.5,0.2-2.3,0.3   c-0.6-0.2-1,0-1.1,0.6c-0.6,0.2-1.3,0.4-1.9,0.7c-0.7,0-1.4,0-1.4,0.9c-0.3,0.1-0.6,0.1-0.9,0.2c-0.6-0.2-1,0-1.1,0.7   c-0.6,0.2-1.2,0.5-1.8,0.7c-1,0-1.8,0.2-2,1.3C30.5,83,30.3,83,30.2,83c-0.7-0.1-1.4-0.2-1.6,0.8C28.5,83.9,28.4,83.9,28.3,84z"/>
	<path class="st0" d="M26.3,36.7c0.5,2.6,0.4,5.1,0.3,7.7c-0.1,4.6,0.7,9.2,1.4,13.7c0.1,0.5,0.1,1.1,0.1,1.7   c0.1,1.1-0.7,1.6-1.6,1.8c-1,0.3-1.5-0.5-1.7-1.3c-0.4-1.8-1-3.6-1.6-5.2c-0.8-2-0.8-4-0.8-6c0-1.1,0-2.2,0.7-3.2   c0.5-0.7,0.6-1.7,0.7-2.5C24,40.8,25.2,38.8,26.3,36.7z"/>
	<path class="st4" d="M85.8,82.8c-0.1-1.1,0.4-1.8,1.6-1.8c0.6,0,1.2-0.1,1.8-0.1c0.9,0.1,1.8,0.2,2.7,0.3c0.9,1.5,2.6,1.5,3.9,2.1   c1.9,0.9,3.9,1.5,5.5,3.2c1,1.1,2.4,1.7,3.7,2.5c2.3,1.4,3.5,3.9,5.7,5.3c0.6,0.4,1.2,1.3,0.5,2.1c-0.6,0.7-1.4,0.5-2.2,0   c-0.4-0.3-0.8-0.5-1.3-0.5c-1.5-1-2.7-2.5-3.8-3.9c0-0.7-0.3-1-0.9-0.9c-2.3-1.8-4.6-3.6-7.2-4.9c0-0.7-0.3-0.9-1-0.8   C91.9,84.5,88.8,83.7,85.8,82.8z"/>
	<path class="st4" d="M70.6,92.4c-0.1,2.2,0.9,4.1,1,6.3c0.1,1.2,0.3,2.5,0.3,3.8c-0.1,3.8,0.4,7.6-0.4,11.4   c-0.1,0.5-0.2,1.1,0.3,1.6c0.1,1.6,0.2,3.2-0.1,4.8c-0.2,0.2-0.5,0.4-0.7,0.5c-0.9,0.6-1.3,0.5-1.4-0.5c-0.1-0.5,0-1.1-0.1-1.6   c-0.1-1,0.4-2.2-0.5-3.1c-0.1-1.8,0.6-3.5,0.4-5.3c0.8-0.6,0.8-1.2,0.1-1.9c0-2.6,0-5.2,0-7.7c0.5-0.4,0.4-0.7-0.1-0.9   c0-1.3-0.6-2.6-0.4-3.9c0.6-1.1,0.2-1.8-0.8-2.4c-0.6-1.6-0.5-3.4-2.3-4.5c-0.7-0.4-0.9-1.7-0.6-2.7c1.6-0.4,2.6,0.7,3.8,1.5   C69.1,89.5,70.4,90.8,70.6,92.4z"/>
	<path class="st2" d="M38.6,37.6c0-1,0.1-2.1,0.1-3.1c1-1.6,1.1-3.4,1.5-5.2c0.4-1.7,0.7-3.4,2.5-4.7c0,2.6,0,5,0,7.4   c0,0.9-0.1,2.1-0.8,2.7c-1.2,1-1.1,2.2-1.1,3.5c0,1.5,0,3,0,4.5c0,1.5,0,3,0.9,4.4c0.5,0.8,1,1.9,0.3,2.7c-1.2,1.3-1.2,2.7-1.1,4.2   c0.1,1.2-0.6,1.7-1.6,2c-0.7,0.2-1.7,0-1.9,1.1c-0.5,0.1-0.9,0.1-1.4,0.2c-0.3-1-1.8-1.3-1.5-2.6c2.4,0,3-0.2,3.4-1.8   C39,47.8,38.9,42.7,38.6,37.6z"/>
	<path class="st0" d="M71.3,35.5c1.2,0.2,2.1,1.1,3,1.8c0.4,0.3,0.7,0.7,1.3,0.4c0.6-0.3,0.6-0.9,0.6-1.4c0-1-1-1.7-0.7-2.7   c0.6,0.1,0.9,0.6,1.2,1c0.7,0.9,2.2,1.2,3.2,0.8c1.1-0.5,1.3-1.4,0.4-2.2c-3.3-3.1-6.2-6.8-10.3-8.9c-0.4-0.2-0.7-0.7-1.3-0.3   c0,1.3,1.8,1.6,1.8,2.9c-0.2,0-0.5,0-0.7-0.1c-2-1.7-3.9-3.5-5.9-5.2c-0.2-0.2-0.5-0.5-0.4-0.8c0.2-0.5,0.7-0.4,1-0.3   c1.9,0.5,3.9,1.1,5.5,2.2c4.1,2.6,8.2,5.2,11.6,8.7c1.5,1.6,1.6,1.9,0.3,3.6c-0.8,1-1.6,1.9-2.7,2.6c-1.5,0.9-2.6,2.3-3.8,3.6   c-0.4,0.4-0.7,0.8-1.3,0.8c-0.3-1.5-0.7-3-1.9-4.2C71.7,37.1,71.3,36.3,71.3,35.5z"/>
	<path class="st0" d="M133.1,75.7c-0.6,2-1,4.1-2.4,5.8c-0.5,0.6-0.8,1.3-0.9,2.2c-0.2,1.4-1,2.7-1.9,3.8c-0.8,0.9-1.5,1-2.2,0   c-0.9-1.2-1.6-2.5-2.3-3.9c-0.3-0.6-0.2-1.4,0.2-2.1c1.6-2.9,3.4-5.7,4.6-8.8c0.2-0.7,1-0.7,1.3-1.3c0.9-0.1,0.9-0.7,0.8-1.4   c0,0,0.1-0.1,0.1-0.1c0.3-0.3,0.7-0.6,1-0.9c-0.1,1.3,0.1,2.7-0.5,4c-0.9,2.1-0.4,4.4-0.6,7.1C131.4,78.2,131.8,76.6,133.1,75.7z    M127.8,82.6c1.5,0,1.6-0.2,1.6-1.7c0-0.9,0.1-1.9-1.3-1.8c-1,0-2.2,1.5-2.1,2.5C126.2,82.7,127.1,82.5,127.8,82.6z"/>
	<path class="st4" d="M40.2,89.7c1.4,0.1,2.5-0.4,3.7-1c2.4-1.4,5-2.4,7.6-3.6c-0.4,1.7-1.7,2.6-3.1,3.3c-0.6-0.1-1,0.1-1,0.7   c-0.5,0.4-0.9,0.8-1.4,1.2c-0.6-0.1-0.9,0.2-0.9,0.9c0,0-0.1,0.1-0.1,0.1c-0.7,0-1,0.3-0.8,1c-1.3,2.1-3.6,3.2-5,5.2   c-0.7,0.1-0.9,0.4-0.8,1.1c-0.2,0.3-0.4,0.6-0.6,0.9c-0.9,0.1-1.4,0.5-1.3,1.5c0,0.1-0.1,0.3-0.1,0.4c-1.1,0.2-2,0.6-1.9,1.9   c0,0,0,0,0,0c-0.9,0-1.2,0.5-1.5,1.3c-0.4,1-1,2.1-2.4,1.9c-0.8-0.1-0.6-1.6,0.2-3.2c0.8-1.6,2.3-2.8,2.7-4.7c0,0,0.1-0.1,0.1-0.1   c0.6-0.1,0.8-0.4,0.7-1c0,0,0-0.1,0-0.1c0.2,0,0.5,0.1,0.7-0.1c2-1.6,3.6-3.4,5.4-5.3c0.2-0.2,0.1-0.6-0.2-0.8   C40.2,90.6,40.2,90.2,40.2,89.7z"/>
	<path class="st4" d="M139.5,84.9c-0.5-0.1-1-0.1-1.4,0.4c-0.9,0.1-1.4,0.6-1.4,1.5c-0.1,0.1-0.3,0.3-0.4,0.4c-0.8,0-1.6,0-2.4,0   c0-0.6,0-1.3-0.1-1.9c0.1-0.1,0.1-0.2,0.1-0.4c0.8-0.3,1.4-0.7,1.3-1.6c0.7-1.7,1.5-3.5,2.8-5c0.9-1.2,0.9-2.6,0.9-4.1   c0.3-1.1,0.9-2.2,0.6-3.5c0-0.5,0.1-0.9,0.1-1.4c0.6-0.3,0.4-1.1,0.9-1.4c0.4,1,1.1,1.8,1.1,2.9c0,0.3,0.4,0.4,0.7,0.4   c-0.4,1.9-0.4,3.9-0.5,5.9c-0.1,1.4-0.1,3-0.6,4.2c-0.5,1.4-0.5,2.4,0,3.7c0.3,0.6,0.5,1.8-0.9,2C140.3,86.4,141.2,85.1,139.5,84.9   z"/>
	<path class="st1" d="M28.8,24.4c-0.1-0.9,0.7-1.4,1.2-2c0.7-0.8,0.7-1.4-0.3-1.9c-2.5-1.3-3.3-4.1-5.1-5.9c-0.4-0.4-0.4-1.3,0-1.8   c0.5-0.6,1.2-0.4,1.7,0c2,1.4,4.2,2.6,5.3,5c0.7,1.6,2.3,1.6,3.5,0.3c0.2-0.2,0.4-0.7,0.2-0.9c-1.1-0.9-0.4-2.3-0.9-3.3   c-1.2-2.4-0.7-5.1-1.4-7.7c1.3-0.2,2.2,0.9,3.4,0.9c0,1,0,1.9-0.1,2.9c-1.2,0-0.6-1.4-1.6-1.7c-0.3,1.7-0.7,3.2,0.5,4.7   c1.1,1.4,0.9,3.3,1.1,5c0.1,0.7-0.5,1.1-1.1,1.5c-1.8,1.1-3.5,2.3-4.5,4.1C30.2,24.2,29.5,24.4,28.8,24.4z"/>
	<path class="st3" d="M37.3,57c0.1-1.2,1.2-0.9,1.9-1.1c1-0.3,1.7-0.8,1.6-2c-0.1-1.5-0.1-3,1.1-4.2c0.8-0.8,0.2-1.9-0.3-2.7   c-0.9-1.4-0.9-2.8-0.9-4.4c0-1.5,0-3,0-4.5c0-1.3-0.1-2.5,1.1-3.5c0.7-0.6,0.8-1.7,0.8-2.7c0.1-2.4,0-4.7,0-7.4   c-1.7,1.3-2.1,3-2.5,4.7c-0.4,1.8-0.5,3.6-1.5,5.2c-0.4-0.6-0.4-1.2-0.2-1.8c0.9-2.9,1-5.9,2.3-8.7c1-0.1,0.9-1,1.2-1.6   c0.5-1.1,0.8,0.1,1.2,0.1c0.2,2.1,0.4,4.1,0.6,6.2c0.2,2,0.1,4,1.3,5.8c0,0.3,0.1,0.6,0.1,1c-0.2,0.9-0.8,1-1.6,1c0,0,0,0,0,0   c0-0.6-0.3-1-0.9-1c-0.1,0.2-0.4,0.3-0.4,0.5c-0.1,3.2-0.4,6.4,0.1,9.5c0.3,2,1.2,3.9-0.1,6c-0.5,0.8-0.1,2.2-0.1,3.3   c0,0.9-0.3,1.5-1.3,1.7C39.6,56.7,38.5,57.2,37.3,57z"/>
	<path class="st2" d="M50.7,116.5c1,0.7,0.5,1.7,0.6,2.6c0.1,0.7-0.2,1.6,0.6,1.9c1.5,0.4,1,1.3,0.9,2.4c-0.1,0.9-1.1,1.7-0.2,2.7   c0.1,0.5,0,1-0.2,1.5c-1,0.8-0.9,2-0.9,3.1c-0.1,0.9-0.1,1.8-0.2,2.7c-1,1-0.3,2.2-0.5,3.3c-2.2-0.1-2.8-0.8-3.5-3.7   c0.2-3.2,1.4-6.3,1.2-9.6c0.6-1.6,1.2-3.2,1.5-4.8c0.6-0.1,0.8-0.5,0.6-1.1C50.6,117.1,50.7,116.8,50.7,116.5z"/>
	<path class="st4" d="M126.1,57c-0.1,0.1-0.2,0.1-0.3,0.1c-1-0.1-1.5,0.4-1.7,1.3c-0.1,0.1-0.2,0.1-0.3,0.1   c-0.9-0.1-1.4,0.3-1.7,1.2c-0.2,0.1-0.5,0.2-0.7,0.3c-0.5-0.2-0.6-0.7-0.6-1.1c0-0.7-0.4-1.1-1.1-1.3c-0.4,0-0.8,0-1.2,0   c-0.6-0.1-1,0-1.1,0.6c-0.4,0.1-0.9,0.2-1.3,0.3c-0.6-0.1-1,0.1-1.1,0.8c-0.3,0.2-0.6,0.4-1,0.6c-0.7,0-0.9,0.4-0.9,1   c-0.3,0.4-0.6,0.7-1,0.9c-0.9,0-1.4,0.5-1.4,1.4c-0.8,0.8-1.6,1.6-2.9,1.4c-0.2-0.4-0.6-0.4-0.9-0.4c0.1-0.3,0.2-0.7,0.4-0.8   c2.3-1.5,3.7-3.9,6-5.3c0.5-0.4,0.9-0.9,0.9-1.6c1.8-1,3.8-1.5,5.8-1.8c0.6-0.1,1.1-0.1,1.3-0.8c0.3,0,0.7-0.1,1-0.1   c1.1,0.7,2.3,0.3,3.4,0.3c1.6,0.1,1.6,0.1,1.8,1.9c-0.1,0.1-0.2,0.1-0.3,0.1C126.5,56,126.1,56.3,126.1,57z"/>
	<path class="st0" d="M152.6,72.8c-1.6,0-2.3-0.7-2.5-2.3c-0.3-3.4-0.9-6.8-2.1-10c-0.8-2.3-2.1-4.4-3.2-6.6   c-0.1-0.3-0.4-0.5-0.4-0.8c-0.1-0.4-0.2-0.8,0.3-1c0.3-0.2,0.6,0.1,0.8,0.3c2.1,1.7,3.4,4,4.3,6.4c1.4,3.5,3,6.9,3.5,10.6   c0.1,0.5,0.4,0.8,0.6,1.3C154.7,72,154.1,72.8,152.6,72.8z"/>
	<path class="st5" d="M124.2,36.4c-0.3-0.1-0.6-0.1-0.9-0.2c-0.1-0.9-0.8-0.8-1.4-0.8c-2.2,0-4.3-1.1-6.4-1.4   c-1.8-0.3-3.6-0.7-5.4-0.6c-3.3,0.1-6.5-0.3-9.8,0.5c-2.2,0.5-4.4,0.9-6.5,2.2c-0.2-1.2,0.5-1.7,1.3-2c6.6-1.8,13.2-3.4,20.2-2.1   c3.3-0.5,6.1,1.6,9.3,1.6c0.5,0,0.9,0.3,1.1,0.8C125.6,35.4,125.7,36.5,124.2,36.4z"/>
	<path class="st0" d="M124.8,72.4c0,0.2-0.1,0.3-0.1,0.5c-1.2,0.4-1.1,1.5-1.3,2.4c0,0.3-0.1,0.6-0.1,1c-0.6,0-0.9,0.3-0.9,0.9   c0,0.2-0.1,0.3-0.1,0.5c-0.6,0.1-0.9,0.4-0.8,1c0,0.2-0.1,0.3-0.1,0.5c-2.1,0.1-2.7-1.8-4.1-2.8c-0.9-0.7-0.8-1.6-0.2-2.5   c0.6,0,1,0,1.5-0.6c2.2-2.7,4.7-5.1,6.7-8.1c0.2,0.3,0.5,0.4,0.8,0.3c0.5-0.2,0.8-1,1.4-0.4c0.4,0.5-0.1,1-0.2,1.6   c-0.1,1-1.3,1.7-1,2.9c-0.2,0.6-0.4,1.2-0.6,1.8C125,71.5,124.7,71.8,124.8,72.4z"/>
	<path class="st4" d="M133.1,75.7c-1.4,0.9-1.7,2.5-2.8,4.3c0.2-2.7-0.3-4.9,0.6-7.1c0.5-1.3,0.4-2.6,0.5-4c0.4-0.8,1-1.5,0.6-2.5   c0.5-1.7,1-3.4,1.6-5.1c0.3-0.9,0.3-1.7,0.1-2.5c0.2-0.2,0.3-0.4,0.5-0.5c1.5-1,2.4-0.6,2.4,1.1c0,1.2-0.1,2.3-0.3,3.5   c-0.5,2.1-1.4,4.2-1.1,6.5c0,0-0.1,0-0.1,0c-1,0-1,0.7-0.9,1.5c0,0.5,0,0.9,0,1.4C133.3,73.2,133.4,74.5,133.1,75.7z"/>
	<path class="st3" d="M105.9,48.4c-1.2-0.6-2.3-0.6-3.6,0.2c-1.6,0.9-3.3,1.5-5.1,2.1c-2.5,0.8-4.8,2.1-7.2,3.3   c-1.3,0.6-2.1,1.7-3.1,2.6c-0.9,0-1.5-0.5-2.3-0.8c0.4-0.9,1.1-1.5,1.9-2.1c3.6-2.7,7.7-4.6,11.8-6.2c3.7-1.5,7.5-1.8,11.4-1.5   c-0.1,0.5-0.4,0.8-0.9,0.9c-0.8,0.3-1.5,0.8-2,1.4C106.6,48.4,106.2,48.4,105.9,48.4z"/>
	<path class="st6" d="M135.3,69.5c-0.4-2.3,0.6-4.3,1.1-6.5c0.3-1.2,0.3-2.3,0.3-3.5c0-1.7-1-2.1-2.4-1.1c-0.2,0.1-0.3,0.3-0.5,0.5   c-0.5,0-0.9,0.1-1.4,0.1c-0.4-0.2-0.5-0.6-0.5-1c0.2-1.1,1.3-1.6,2-1.7c1.6-0.4,1.4-1.4,1.3-2.5c0.2-0.1,0.4-0.1,0.6-0.2   c1.5,0.4,0.3,2.1,1.4,2.8c0.8-0.7,1-1.6,0.7-2.5c-0.4-1.2-0.3-2.1,0.4-3.2c0.6-1,0.2-1.7-1-1.8c-1.1-0.1-2.2-0.9-3.5-0.1   c-0.6,0.4-0.9-0.3-1-0.9c1.4-0.2,2.8-0.4,4.2-0.8c0.9-0.3,1.7,0,2.5,0.5c1,0.7,1.2,1.4,0.5,2.4c-0.4,0.6-0.8,1.2-1.2,1.8   c-0.3,0.4-0.6,0.7-0.3,1.3c0.3,0.6,0.8,0.7,1.4,0.6c0.4-0.1,0.8-0.3,1.2-0.2c0.7,0.2,1.4,0.4,1.1,1.4c-0.6-0.1-1-0.9-1.7-0.3   c-0.5,0.5-0.1,1-0.1,1.5c0.1,1.1,0.1,2.2,0.2,3.3c-0.1,0.2-0.2,0.4-0.2,0.7c-0.8-0.2-0.8-0.9-0.8-1.5c0-0.9,0.2-1.7-0.3-2.5   c-0.8-0.2-0.7,0.4-0.8,0.9c-0.4,1.5-0.7,3.1-0.9,4.6c-0.3,2.3-0.8,4.6-1.3,6.9C136.2,68.9,136,69.4,135.3,69.5z"/>
	<path class="st4" d="M56.1,36.9c-0.2,0.9,0.1,1.7,0.5,2.5c1.1,2.8,1.3,5.9,1.7,8.8c0.1,0.5-0.2,0.8-0.6,0.9   c-0.8,0.1-1.5-0.3-1.6-1.1c-0.1-1.1-0.7-2-0.9-2.9c-0.7-3.6-2.7-6.8-3.2-10.6c-0.2-1.3-0.7-2.7-1.1-4.1c-0.2-0.8-0.4-1.6,0.3-2.2   c0.2,0.3,0.5,0.5,0.9,0.6c0,0.4,0.1,0.9,0.1,1.3c0.1,0.9,0.3,1.7,1.3,1.9c0,0,0.1,0.1,0.1,0.1c0,0.7,0.1,1.3,1,1.3   C55.5,34.4,55.5,35.7,56.1,36.9z"/>
	<path class="st2" d="M104,105.5c0.3-1.2-0.6-1.9-1.1-2.7c-0.2-0.3-0.3-0.6,0-0.9c0.4-0.4,0.8-0.2,1,0.1c0.7,1,1.7,1.8,2.4,3   c0.4,0.6,0.6,1.6,1.7,1.4c0,0,0,0,0,0c-0.1,1,0.4,1.5,1.4,1.5l0,0c1.1,1.7,2.5,3.2,4.6,3.4c0.1,0.7,0.2,1.3,0.2,2   c-0.4,1.5-1.5,2.8-2.2,4.1c-0.5,0.9-1.1,0.8-1.8-0.1c-0.4-0.6-1.2-1.1-1.1-2c-0.1-2-1.2-3.7-1.9-5.5c-0.1-0.3-0.5-0.4-0.8-0.4   c-0.1-0.1-0.1-0.2-0.1-0.3C106.1,107.5,105.8,106,104,105.5L104,105.5z"/>
	<path class="st5" d="M46.4,62.1c2.6-0.3,4.8-0.3,7-0.1c0.2,0,0.5,0.2,0.7,0.2c3.2-0.4,4.5,1.9,5.7,4.1c0.5,0.9,1.4,1.6,1.7,2.6   c0.1,0.4,0.4,0.8,0.1,1.1c-0.4,0.4-0.9,0.3-1.3,0.2c-0.1,0-0.3-0.1-0.4-0.2c-3.6-3.5-8.1-5.2-12.6-7C47,62.9,46.9,62.7,46.4,62.1z"/>
	<path class="st4" d="M92,75.2c-0.6,0-1.2,0-1.8-0.1c-0.4-1-1.3-0.8-2-0.8c-2.1,0-4.2,0-6.4,0c0.1-0.6,0.1-1.1,0.2-1.5   c0.6,0,1.2-0.1,1.8-0.1c0.8,0.2,1.7,0.5,2.1-0.6c1.2-0.1,2.5-0.2,3.7-0.3c0.9,0.1,1.7-0.2,2.5-0.8c0.9,0,1.9,0.1,2.7,0.8   c0.5,0.4,1.2,0.8,1.9,0.8c0.3,0.7,0.7,1.3,1.6,1.3c0.1,0,0.2,0.1,0.3,0.1c0.2,1.4,2.1,1.4,2.7,2.9c-0.7,0-1.2,0-1.6-0.1   c-2-1-4.3-1-6.4-1.6C92.9,74.8,92.4,74.7,92,75.2z"/>
	<path class="st1" d="M16.2,44.5c0.1-1,0-1.8-1.3-2.1c-0.7-0.2-1.8-0.8-1.8-1.7c0-1.1,1.1-1.4,2-1.8c1-0.4,2.1-0.7,3.3-0.6   c1.3,0.1,2.1-0.5,2.4-1.8c0.2-1,0.5-2,1.2-2.8c0.6-0.7,0.5-1.4-0.1-2.1c-0.7-0.9-1.3-2-1.6-3.1c-0.2-0.9-0.5-1.8,0.5-2.4   c0.8-0.5,1.5-0.1,2.2,0.4c1.2,0.9,2.4,1.6,3.9,0.7c-0.9,2.1-1,2.1-3.1,1.2c-0.8-0.3-1.5-1.6-2.2-1c-0.9,0.8,0.5,1.6,0.7,2.4   c0.5,1.7,0.7,3.8,0.3,5.5c-0.2,0.7-0.5,1.3-0.8,2c-0.6,1.3-1.5,2-3,1.9c-1.5-0.2-2.8,0.4-4.1,1c0.9,1.2,2.1,0.8,3.2,0.9   c0.7,0,1.5,0.1,1.7,0.9c0.2,0.9-0.4,1.3-1,1.7C17.8,44.3,17,44.6,16.2,44.5z"/>
	<path class="st2" d="M132.9,47.9c0.1,0.6,0.4,1.3,1,0.9c1.2-0.8,2.3,0,3.5,0.1c1.2,0.1,1.6,0.8,1,1.8c-0.7,1.1-0.8,2-0.4,3.2   c0.3,0.9,0.2,1.8-0.7,2.5c-1.1-0.7,0.1-2.4-1.4-2.8c-0.6-1.4-1.7-0.7-2.7-0.7c-0.9-0.4-0.6-1.5-1.3-2c0-0.8-0.4-1.1-1.1-0.8   c-0.4-0.1-0.8-0.2-1.2-0.2c0.2-0.8-1.1-0.8-0.7-1.8c0.7-1.7,0.3-2.2-1.8-2.9c0,0,0,0,0,0c0-0.4,0.1-0.8,0.1-1.2   c1.9,0,3.5,0.8,4.7,2.3c0.1,0.3,0.1,0.5,0.2,0.8C131.9,47.6,132.2,47.9,132.9,47.9L132.9,47.9z"/>
	<path class="st0" d="M89.6,41.7c0.2,1.9,0.2,1.9,1.9,1.9c1.8,0,3.6,0,5.3,0c-1.5,0.9-3.1,1.4-4.5,2.5c-0.6,0.4-1.3,0.5-2,0.4   c-0.3-0.3-0.6-0.6-1-0.4c-2.1,0.8-4.4,1.2-6.2,2.9c-0.4,0.4-0.9,0.9-1.6,0.9c0.2-2.5,1.8-4.3,3.2-6.2c0.2-0.2,0.5-0.4,0.8-0.5   C86.8,42.6,88.2,42.1,89.6,41.7z"/>
	<path class="st2" d="M27.9,71.2c-0.2,0.5-0.7,0.6-1.1,0.8c-0.6-0.1-1,0.1-1.1,0.8c0,0,0,0,0,0c-1.8,0.5-3.3,1.6-4.9,2.6   c-0.2,0.1-0.3,0.5-0.4,0.8c-1,0.4-1.7,1.1-2.3,2c-1.4,0.5-2.3,1.5-2.9,2.9c-0.5,0.6-1,1.2-1.5,1.8c-0.7,0.1-1.3,0-1.4-0.9   c0.1-0.1,0.1-0.2,0.1-0.4c1.2-0.4,1.4-1.4,1.4-2.5c0,0,0,0,0,0c0.6-0.1,0.9-0.4,0.9-1c0.2-0.3,0.4-0.6,0.6-0.8c1-0.3,1.7-0.9,2-1.9   c1.6-0.8,2.4-2.4,3.7-3.5c0.6,0,0.9-0.3,1.1-0.8c0.1,0,0.2-0.1,0.3-0.2c0.9-0.1,1.7-0.2,2.1-1.2c0.1,0,0.3-0.1,0.4-0.1   c0.6-0.1,1.1-0.1,1.7-0.2C27,70,27.5,70.6,27.9,71.2z"/>
	<path class="st3" d="M18.1,107.9c0.1,0.5-0.2,1.1,0.4,1.3c0.5,0.2,0.8-0.3,1.1-0.7c1.2-2.3,2.9-4.3,4.6-6.2c0.7-0.8,1.3-1.8,2.5-2   c-0.5,1.9-1.9,3.2-3,4.5c-2.3,2.5-3.8,5.4-5.7,8.2c-1.5,2.2-2.9,4.4-4,6.7c-0.2,0.4-0.5,0.9-1.1,0.5c-0.4-0.3-0.3-0.6-0.2-1.1   c0.9-2.4,1.7-4.9,2.7-7.3C16,110.2,16.5,108.6,18.1,107.9z M18,110.8c-0.1-0.1-0.1-0.3-0.2-0.4c-0.1,0-0.3,0-0.4,0.1   c-0.1,0.2,0,0.4,0.2,0.5C17.7,111.1,17.8,110.9,18,110.8z"/>
	<path class="st6" d="M143.8,59.9c0.7,0.7,0.8,1.7,1,2.6c1.3,5.9,2,11.8,1.3,17.8c-0.4,3.7-1.1,7.5-2.3,11.1   c-0.7,2.2-2.2,2.4-3.8,0.7c0.4-0.3,0.7-0.7,1.1-0.9c1.4-0.4,1.7-1.5,1.9-2.7c0-0.2,0-0.4,0-0.6c0.6-0.2,0.9-0.6,0.9-1.3   c0-0.2,0-0.5,0.1-0.7c0.4-0.3,0.5-0.7,0.4-1.2c0.1-0.8,0.1-1.7,0.2-2.5c1-0.5,0.8-1.4,0.7-2.3c0-2,0-4,0-5.9c0-1.1,0-2.1,0-3.2   c0-0.7-0.2-1.2-0.8-1.5c0-1.2,0-2.4-0.1-3.5c0.7-0.8,0-1.2-0.5-1.6C143.9,62.7,143.9,61.3,143.8,59.9z"/>
	<path class="st4" d="M27.9,71.2c-0.4-0.6-0.9-1.2-1.3-1.8c1.1-1.4,2.6-1.5,4.2-1.9c2.1-0.4,4.2-0.8,6.3-0.7c2.5,0.1,4.9,1,7.4,1.5   c0.4,0.1,0.4,0.5,0.5,0.8c-1.8,0-3.5,0.1-5.3,0.1c-1,0-2.1-0.2-3,0c-1.3,0.3-2.9-0.1-3.9,1.2C31.2,70.6,29.6,70.9,27.9,71.2z"/>
	<path class="st7" d="M70.4,128.5c0,0.7,0.1,1.5-0.1,2.1c-0.7,2.1-0.9,4.2-0.8,6.3c0.1,1.2-0.3,1.8-1.6,1.7c-0.2,0-0.3,0-0.5,0   c-2.9,0.1-2.6,0.1-2-2.8c0.4-1.7,1.5-3.3,1.3-5.2c-0.1-0.7,0.2-1.6,0.8-2.2C68.5,128.5,69.4,128.5,70.4,128.5z"/>
	<path class="st4" d="M70.4,26.7c0-1.3-1.7-1.6-1.8-2.9c0.6-0.4,0.9,0.1,1.3,0.3c4.1,2.2,7,5.8,10.3,8.9c0.9,0.8,0.6,1.7-0.4,2.2   c-1,0.5-2.4,0.2-3.2-0.8c-0.3-0.4-0.6-0.9-1.2-1c-0.1-0.3-0.2-0.6-0.3-0.9c-0.1-0.9-0.3-1.7-1.3-1.9c-0.1-0.1-0.1-0.3-0.2-0.4   C73.4,28.4,72,27.5,70.4,26.7L70.4,26.7z"/>
	<path class="st2" d="M114.2,56.5c-0.1,0.7-0.4,1.2-0.9,1.6c-2.3,1.5-3.7,3.9-6,5.3c-0.2,0.1-0.3,0.5-0.4,0.8   c-1,0.8-1.7,0.6-2.2-0.6c-0.1-0.4-0.4-0.7-0.5-1.1c-0.1-0.5-1.2-0.6-0.6-1.3c0.4-0.5,0.4-1.2,1.1-1.5c1.2-0.5,2.4-1.2,3.7-1.7   c0.5-0.2,0.9-0.4,1-0.9c0.4-0.1,0.8-0.1,1.3-0.2C111.9,57.2,113,56.3,114.2,56.5z"/>
	<path class="st4" d="M106.9,48.4c0.5-0.7,1.2-1.2,2-1.4c0.5-0.2,0.8-0.4,0.9-0.9c1.4-0.2,2.8,0.3,4.3,0.3c0.3,0.6,0.6,0.7,1,0.1   c0.6,0.1,1.3,0.1,1.9,0.2c0.3,0.9,0.8,1,1.4,0.3c0.5,0,1,0.1,1.4,0.1c0,0.8-1.1,1.1-1,2c-1,0-2.1,0-3.1,0.1   c-1.8-0.4-3.4,0.7-5.1,1.1C107.8,50.7,107.9,50.8,106.9,48.4z"/>
	<path class="st2" d="M61.6,103.3c0.3-0.8-0.3-1.1-0.9-1.4c-0.7-0.3-1.4,0.1-2.2-0.2c1.2-3.1,2.5-6.1,4.8-8.7c0,2.8,0,5.5,0,8.3   c0,0.8-0.3,1.6,0.4,2.3c0.1,1-0.4,1.9-0.5,2.8c-0.2,0.2-0.3,0.4-0.5,0.5c0,0,0,0,0,0c-0.4,0-0.7,0-1.1,0   C61.6,105.7,61.6,104.5,61.6,103.3z"/>
	<path class="st0" d="M117.3,65.1c0.1,0.5-0.2,0.9-0.5,1.3c-1.1,1.6-2.2,3.2-3,5.1c-0.6,1.4-1.1,1.4-2.6,0.7c-0.6-0.3-1.4-0.4-2-0.7   c-0.5-0.3-1.3-1-0.6-1.5c1.6-1.2,2.6-2.9,4.3-3.9c0.5,0.6,1,0.2,1.4,0C115.4,65.7,116.3,65.1,117.3,65.1z"/>
	<path class="st0" d="M34.4,54.6c-0.3,1.3,1.1,1.7,1.5,2.6c-0.8,1.2-2.2,1-3.4,1.2c-0.7,0.1-0.9-0.5-0.9-1.1c0-4.1,0-8.2,0-12.3   c1-0.4,1.2,0.2,1.3,0.7c0.5,2.3,1,4.6,1.5,6.9C34,52.9,33.3,52,33,52.9c-0.2,0.6,0.1,1.1,0.8,1.2C34,54.2,34.2,54.4,34.4,54.6z"/>
	<path class="st5" d="M106.9,48.4c0.9,2.5,0.9,2.4,3.8,1.7c1.7-0.4,3.2-1.4,5.1-1.1c-1.4,1.2-3.3,1.3-5,1.9   c-3.4,1.2-6.9,2.3-9.8,4.5c-0.2,0.1-0.5,0.1-0.7,0.1c-0.7-0.1-1.3,0.4-1.9,0.6c-0.9,0.3-1.8,0.6-2.5-0.2c2-2.1,4.5-3.1,7.2-3.9   c0.5,0.1,0.9-0.1,1-0.6c2.6-0.7,2.7-0.9,1.8-3.1C106.2,48.4,106.6,48.4,106.9,48.4z"/>
	<path class="st5" d="M101.4,108.3c0.6,0.1,0.9,0.6,1.2,1.1c1.5,2.9,3.1,5.8,4.6,8.7c0.4,0.7,0.7,1.4,0.6,2.3   c-0.8,0.3-1.1,1.3-1.9,1.8c-0.6-1.8-1.1-3.4-1.7-5c-0.4-1.1-0.7-2.4-1.9-3.1c0-0.7-0.2-1.3-0.6-1.9c0-0.6-0.3-0.9-0.8-1.1   c0-0.4-0.1-0.9-0.1-1.3c-0.1-0.3-0.1-0.6-0.2-1c0-0.2,0.1-0.3,0.1-0.5C100.8,108.3,101.1,108.3,101.4,108.3z"/>
	<path class="st0" d="M75.2,71c-1.2-1.8-0.8-3.8-0.4-5.8c1.6-0.2,3.1,0.8,4.8,0.4c0.5,0,0.9,0.1,1.4,0.1c0.1,0.3,0.2,0.7,0.5,0.8   c1.3,0.4,1.2,1.1,0.3,1.9c-0.2,0.1-0.2,0.4-0.2,0.7c-0.7,0-1.4,0.1-1.9,0.5c-0.8-0.1-1.5,0-1.9,0.9c-0.2,0.3-0.6,0.5-1,0.6   C76.2,71,75.7,71,75.2,71z"/>
	<path class="st6" d="M45,69c-0.1-0.3-0.1-0.7-0.5-0.8c-2.5-0.5-4.9-1.4-7.4-1.5c-2.1-0.1-4.2,0.3-6.3,0.7c-1.6,0.3-3.1,0.5-4.2,1.9   c-0.6,0.1-1.1,0.1-1.7,0.2c0.9-1.3,2.2-2,3.3-3c0.6-0.6,1.4-0.8,2.2-0.8c4.2,0,8.4-0.2,12.5,0.9c1.3,0.3,2.3,1.1,3.5,1.4   c0.4,0.1,0.8,0.2,0.7,0.7c-0.1,0.4-0.5,0.6-0.9,0.7C45.8,69.5,45.3,69.5,45,69z"/>
	<path class="st8" d="M43.1,22.5c-0.4,0-0.7-1.2-1.2-0.1c-0.3,0.6-0.2,1.5-1.2,1.6c-0.2-1.6,0.8-2.9,0.8-4.5c0.1-1.4,2.6-2.1,3.4-1   c1.5,2.1,3.5,3.8,4.3,6.3c-0.5,0.1-1-0.5-1.6-0.2c0.9,2.2,1.7,4.5,2,6.9c-0.8-0.1-1.1-0.7-1.2-1.3c-0.1-1.6-1-2.8-1.5-4.2   c-0.3-0.8-0.6-1.5-0.6-2.3c0-0.4,0-0.9-0.2-1.1c-0.6-0.7-0.7-2-1.9-2C43.2,20.6,43.9,22.1,43.1,22.5z"/>
	<path class="st8" d="M131.8,58c0.1,0.4,0.2,0.8,0.5,1c-0.2,1.8-1.7,3-2.5,4.5c-0.7,1.4-1.6,2.6-2.1,4.1c-0.3,0.8-0.4,1.8-1.6,1.9   c-0.3-1.2,0.9-1.8,1-2.9c0.1-0.5,0.7-1.1,0.2-1.6c-0.6-0.6-0.9,0.2-1.4,0.4c-0.3,0.1-0.6,0-0.8-0.3c0.2-0.3,0.3-0.5,0.5-0.8   c0.3-0.4,0.7-0.8,0.3-1.2c-0.3-0.4-0.8,0.2-1.3,0c0.4-1.6,2.2-1.9,3-3.2c0.1-0.1,0.5-0.2,0.7-0.1c1.7,0.9,2.3-0.1,2.7-1.5   C131.1,58.1,131.5,58,131.8,58z"/>
	<path class="st0" d="M58.6,74.7c0.3,0,0.6,0,1,0.1c3.2,0.3,4.3,1.2,5,4.2c0.1,0.6,0.2,1.3-0.5,1.4c-1.6,0.3-3.2,0.4-5.2,0.7   c1-2.4,0.3-3.8-1.5-4.9C58,75.9,58.4,75.4,58.6,74.7z"/>
	<path class="st6" d="M131.7,46.1c-1.2-1.5-2.7-2.3-4.7-2.3c-0.1-0.3-0.4-0.4-0.7-0.4c-0.9-1.5-2.3-2.3-4-2.9   c-2.6-0.9-5.3-1.5-8.1-1.9c-0.6-0.1-1.1-0.2-1.3-0.8c3.4-0.5,6.4,0.8,9.5,1.8c2.1,0.6,4,1.7,6.2,2.1   C131,42.2,131.8,43.6,131.7,46.1z"/>
	<path class="st0" d="M48.9,47.9c0,0.3,0,0.7,0,1c-0.1,0.6,0.3,0.9,0.8,1c0.8,1.5,0.4,2.9-0.4,4.3c-1.2,0-1.8-1.2-2.8-1.6   c-0.1-1.2-0.1-2.5-0.2-3.7c0-0.7,0.3-1.4-0.4-1.9c0-0.7-0.1-1.3-0.1-2c0.1-0.9-0.5-1.6-0.4-2.5c0.1-0.7,0.2-1.2,1-1.3   c0,0.3,0.1,0.7,0.1,1c-0.1,1.7,0.4,3.2,1.8,4.3c0,0.2,0.1,0.3,0.1,0.5C48.4,47.3,48.5,47.7,48.9,47.9z"/>
	<path class="st6" d="M82,72.8c-0.1,0.5-0.1,0.9-0.2,1.5c2.2,0,4.3,0,6.4,0c0.8,0,1.6-0.2,2,0.8c-2.6,0.3-5.2,0.1-7.9,0.1   c-1.1,0-2.2,0.1-3.2,0.6c-0.8,0.4-1.4,0.7-1.7,1.7c-0.4,1.4-1.9,1.9-3.3,1.3c-0.3-0.1-0.3-0.5-0.3-0.8c0.3,0,0.6,0,0.9,0.1   c1.5,0.2,1.8-0.9,2.2-1.9c0.5-1.4-0.8-1.2-1.3-1.8c0.1-0.3,0.2-0.5,0.5-0.6c1.3,0.1,2.5,0.1,3.6-0.7C80.3,72.7,81.2,72.1,82,72.8z"/>
	<path class="st2" d="M63.4,33.3c-0.3,0.7-0.6,1.7-1.3,0.3c-1.5-2.8-3.2-5.5-4.8-8.2c-0.2-0.3-0.3-0.6-0.1-0.9   c0.3-0.4,0.8-0.3,1.1,0c1.8,1.4,3.6,2.8,5.4,4.3c0.6,0.6,1.2,1.3-0.1,2c-0.6,0.3-0.4,1.1-0.2,1.8C63.4,32.9,63.4,33.1,63.4,33.3z"/>
	<path class="st5" d="M124.7,63.2c0.4,0.1,0.9-0.4,1.3,0c0.4,0.4,0,0.8-0.3,1.2c-0.2,0.2-0.4,0.5-0.5,0.8c-1.9,2.9-4.4,5.4-6.7,8.1   c-0.4,0.5-0.9,0.6-1.5,0.6c0.1-0.6,0.2-1.3,0.4-1.9c1.3-1.2,1.8-3,3-4.4c0.7-0.2,1-0.7,0.9-1.4C122.2,65,123.8,64.5,124.7,63.2z"/>
	<path class="st3" d="M109.4,57.1c-0.1,0.5-0.5,0.7-1,0.9c-1.2,0.5-2.4,1.2-3.7,1.7c-0.7,0.3-0.7,1-1.1,1.5   c-0.6,0.7,0.5,0.8,0.6,1.3c0.1,0.4,0.4,0.7,0.5,1.1c0.5,1.2,1.2,1.4,2.2,0.6c0.4,0,0.7,0,0.9,0.4c-1.7,1.4-4,1-5.8,1.9   c-0.1,0.1-0.5-0.1-0.6-0.3c-0.2-0.3-0.2-0.6,0-0.9c0.2-0.2,0.5-0.4,0.7-0.6c0.4-0.3,0.9-0.5,0.8-1.1c-0.2-0.6-0.8-0.4-1.2-0.5   c-1.1-0.3-1.3-0.7-0.5-1.6C103.4,59.2,106.1,57.7,109.4,57.1z"/>
	<path class="st9" d="M84.6,55.8c0.8,0.2,1.5,0.8,2.3,0.8c0.5,0.7,0.1,1.2-0.6,1.5c-1,0.4-1.9,0.8-2.9,1.2c-1.1,0.5-2,0.8-3-0.2   c-1.2-1.2-1.4-2-0.9-3.5c0.6,0,1.1,0,1.7,0C82.4,55.8,83.5,56.2,84.6,55.8z"/>
	<path class="st6" d="M92,75.2c0.4-0.4,0.8-0.3,1.3-0.2c2.1,0.6,4.3,0.7,6.4,1.6c0.4,0.2,0.9,0.1,1.6,0.1c-0.6-1.4-2.4-1.4-2.7-2.9   c2.7,0.5,4.3,2.5,6.3,4c0.2,0.1,0.3,0.4,0.4,0.6c0.1,0.5,0.2,1-0.2,1.3c-0.4,0.3-0.7,0-1.1-0.2c-2.5-1.2-4.9-2.6-7.6-3.2   c-0.7-0.2-1.4-0.3-2.1-0.3C93.4,76.2,92.6,76,92,75.2z"/>
	<path class="st0" d="M124.2,36.4c1.5,0.1,1.5-0.9,1.5-2c1.5-0.1,2.7,0.8,4.1,1.3c0.5,0.2,1,0.7,1,1.2c0.1,1,0.5,2.2-0.5,2.9   c-0.8,0.6-1.5-0.2-2.1-0.6C126.8,38.4,125.1,37.9,124.2,36.4z"/>
	<path class="st2" d="M143.8,59.9c0,1.4,0.1,2.8,0.1,4.1c-0.2,0.2-0.3,0.4-0.5,0.6c-1.6-0.7-2.3-1.9-2-3.7c0.1-0.7,0.1-1.4-0.8-1.7   c-0.1-1.1-0.1-2.2-0.2-3.3c-0.1-0.5-0.5-1.1,0.1-1.5c0.7-0.6,1.1,0.2,1.7,0.3c0.1,0.9,0.4,1.8,0.8,2.7c-0.1,0.7-0.1,1.3,0.6,1.7   C143.7,59.4,143.8,59.7,143.8,59.9z"/>
	<path class="st2" d="M81.4,49.8c0.7,0.1,1.2-0.4,1.6-0.9c1.7-1.7,4-2.1,6.2-2.9c0.4-0.2,0.8,0.1,1,0.4c-1.7,1-3.1,2.2-4.4,3.5   c-0.6-0.2-0.9,0-1,0.6c-1.6,0.5-2,2.3-3.3,3.1c-0.7,0-0.9-0.7-1.4-1.1c0-0.3,0.1-0.6,0.1-1c0.6-0.1,0.8-0.5,0.6-1   C81,50.4,81.2,50.1,81.4,49.8z"/>
	<path class="st8" d="M102.2,114c1.2,0.7,1.5,1.9,1.9,3.1c0.6,1.6,1.1,3.3,1.7,5c0.8-0.5,1.1-1.5,1.9-1.8c0.9,0.6,0.2,1.1-0.2,1.5   c-0.6,0.8-1.1,1.4,0.2,2c0.7,0.3,0.6,0.9,0.4,1.4c-0.3,0.8-0.4,1.5-0.4,2.3c-0.8-0.3-1.6,0.8-2.4,0c0.1-0.3,0.4-0.6,0.3-0.9   c-0.3-2.8-1-5.4-2.2-8C103,117.2,102.1,115.8,102.2,114z"/>
	<path class="st2" d="M71.3,35.5c0,0.8,0.3,1.6,0.8,2.1c1.1,1.2,1.6,2.6,1.9,4.2c-0.1,0.4-0.2,0.9-0.3,1.3c-2,0.5-1.9,0.5-2.4-1.5   c-0.7-2.5-1.8-4.7-2.9-7c-0.1-0.3-0.4-0.5-0.1-0.9c0.9-0.3,1.2,0.9,2.1,0.8C70.6,34.9,70.9,35.2,71.3,35.5z"/>
	<path class="st3" d="M34.4,54.6c-0.2-0.1-0.4-0.3-0.6-0.4c-0.7-0.2-0.9-0.6-0.8-1.2c0.3-0.9,1-0.1,1.4-0.3c1.8,0.9,2,1,2.5-0.7   c0.7-2.1,0.5-4.4,0.8-6.5c0.2-1.9,0.1-3.8,0.1-5.7c0-0.8-0.2-1.6,0.7-2.1c0.3,5.1,0.5,10.2-0.8,15.2C37.4,54.3,36.8,54.6,34.4,54.6   z"/>
	<path class="st0" d="M136.5,92.2c1.9,0.9,3.2,2.5,4.8,3.5c0.6,0.4,0.5,1.3-0.3,1.4c-1.3,0.3-2.6,0.5-4,0.5c-0.7,0-1.5-0.5-1.2-1.4   C136.3,94.9,136.1,93.6,136.5,92.2z"/>
	<path class="st8" d="M133.3,92.4c0.1,0.7-0.3,1.7-0.6,2.6c-0.3,0.8-1,1.1-1.7,0.5c-2.1-1.5-1.8-5.5,0.6-6.6   c0.5-0.3,0.9,0.1,1.2,0.4C133.5,90.1,133.2,91.1,133.3,92.4z"/>
	<path class="st3" d="M140.6,59.3c0.9,0.3,0.9,1,0.8,1.7c-0.3,1.8,0.4,3,2,3.7c0,0.3,0,0.6,0,1c-0.1,0.7,0.1,1.6-0.3,2.1   c-0.8,1.2-0.7,2.4-0.8,3.7c-0.3-0.1-0.7-0.1-0.7-0.4c0-1.1-0.7-2-1.1-2.9c0-1.3-0.1-2.6-0.1-3.9c0-1.4,0-2.8,0-4.2   C140.5,59.7,140.6,59.5,140.6,59.3z"/>
	<path class="st3" d="M118.9,49c-0.1-0.9,1-1.2,1-2c1.8,0.4,3.5,1,5.3,0.9c3-0.1,3.2-0.3,1.8-2.8c2.1,0.6,2.5,1.1,1.8,2.9   c-0.4,1,0.9,1.1,0.7,1.8c-3-1.3-6.1-0.7-9.3-0.5C119.8,49.3,119.3,49.3,118.9,49z"/>
	<path class="st3" d="M117.3,65.1c-1.1,0-1.9,0.6-2.8,1c-0.5,0.2-1,0.6-1.4,0c1.7-1.6,3.4-3.1,4.9-4.7c1-1,2.2-2.1,1.7-3.9   c0.7,0.1,1,0.6,1.1,1.3c0,0.5,0.1,0.9,0.6,1.1c-0.5,1.4-1.5,2.4-2.5,3.4C118.4,63.9,117.9,64.5,117.3,65.1z"/>
	<path class="st3" d="M44.5,83.9c-1.2,1.5-3.1,2.1-4.7,2.9c-1.3,0.7-2.4,1.6-3.7,2.1c-2.1,0.8-3.5,2.6-5.6,3.2   c0.4-2.1,2.3-2.7,3.8-3.6c1.6-1,3.3-1.8,4.9-2.8C40.9,84.7,42.8,84.3,44.5,83.9z"/>
	<path class="st6" d="M12.3,82c0.1,0.9,0.7,1,1.4,0.9c-0.9,2.5-2.2,4.8-4.6,6.2c-0.8-0.4-0.7-1-0.5-1.5C9.6,85.5,10.3,83.3,12.3,82z   "/>
	<path class="st0" d="M139.5,42.6c0.7,0.7,1.4,1.3,2.1,2c0,0.1,0,0.3,0,0.4c-2.2,0-4.4,0-6.5,0c-0.6,0-1.5,0-0.6-1   c1.3-0.3,2.5-0.5,2.3-2.3c0.7-0.9,1.4-0.3,2,0C138.6,42.3,138.9,42.6,139.5,42.6z"/>
	<path class="st8" d="M46.4,41.1c-0.8,0.1-0.9,0.7-1,1.3c-0.1,0.9,0.5,1.7,0.4,2.5c-1.1-0.2-1.1-1.2-1.2-1.9c-0.1-1.6-0.5-3.1-1-4.6   c-0.2-0.6-0.1-1.4-0.1-2.1c0.8,0,1.4-0.1,1.6-1c0.3,0.1,0.7,0.2,0.7,0.5C45.9,37.7,46.7,39.4,46.4,41.1z"/>
	<path class="st0" d="M95.8,56c0.8,0.8,1.7,0.5,2.5,0.2c0.6-0.2,1.2-0.7,1.9-0.6c-0.2,0.7-0.6,1-1.1,1.4c-1.4,1.2-3.1,1.9-4,3.6   c-0.4,0.7-1.2,0.6-1.4-0.1c-0.4-1.3,0.8-2.2,0.8-3.4C94.5,56.4,95.1,56.1,95.8,56z"/>
	<path class="st1" d="M20.2,59c0.6,0,0.8,0.5,1,0.9c0.5,0.9,0.9,1.9,1.6,2.6c0.8,0.7,0.3,1.3-0.4,1.8c-0.8,0.6-2.2,0.6-2.3-0.1   c-0.2-1.3-1.2-2.3-1.1-3.6C19.1,59.6,19.6,59,20.2,59z"/>
	<path class="st2" d="M58.6,74.7c-0.2,0.7-0.6,1.2-1.2,1.5c-0.3,0-0.6,0-0.8,0c-0.2,0-0.3,0-0.5,0c-0.4-0.1-0.9-0.2-1.3-0.3   c-0.1-1-1-1.4-1.6-2.1c0-0.3,0-0.6,0-0.9C55.6,71.7,57.2,73,58.6,74.7z"/>
	<path class="st1" d="M7.6,70.9c1.3,0,1.3,1.2,1.7,2c0.3,0.5,0.5,1.3,1.3,1.2c0.7-0.1,0.7-0.7,1-1.2c1.1-1.6,2.2-3.3,4.2-3.9   c0,1-0.9,1.5-1.5,2.1c-0.9,0.9-1.8,1.7-2.3,3c-0.3,0.8-1,1.1-1.9,1.1c-1,0-1.5-0.6-1.7-1.4C8,72.9,7.8,71.9,7.6,70.9z"/>
	<path class="st8" d="M117.4,71.9c-0.1,0.6-0.2,1.3-0.4,1.9c-0.6,0.9-0.7,1.8,0.2,2.5c1.3,1,2,2.9,4.1,2.8c0,0.9-0.3,1.9-1.3,1.2   c-1.7-1.3-3.2-2.8-4.5-4.4C114.6,74.8,115.8,72.7,117.4,71.9z"/>
	<path class="st3" d="M55.7,83c-0.3-1.4-1.3-1.2-2.2-1c-2.2,0.5-4.4,1-6.6,1.6c-0.4,0.1-0.8,0.2-1.1,0c0.1-0.2,0.2-0.5,0.4-0.5   c3.8-1.2,7.5-2.5,11.6-2.2c0.1,0,0.2,0.2,0.5,0.4C57.6,82.3,56.9,83,55.7,83z"/>
	<path class="st1" d="M17.2,68.1c0-1,0-2.1-0.1-3.1c0-0.6-0.1-1.2-0.5-1.8c-1.5-2.1-0.9-4.1,1.4-5.7c0,0.4,0,0.9-0.2,1.1   c-1.1,1.3-0.8,2.6-0.2,4c0.7,1.6,0.4,3.3,0.2,4.9C17.9,67.9,17.5,68,17.2,68.1z"/>
	<path class="st8" d="M90.6,58.5c0.7,0.8,0.5,1.4,0.5,2c0,0.7,0.4,1.7-0.6,2.1c-1,0.4-1.9-0.1-2.7-0.5c-0.7-0.3-0.6-1.3,0.2-2   C88.7,59.5,89.7,59.1,90.6,58.5z"/>
	<path class="st3" d="M114.2,56.5c-1.2-0.2-2.3,0.7-3.6,0.5c0.9-1.5,2.7-1.5,4-2.1c2-0.9,4.3-1.3,6.7-1c-0.2,0.7-0.7,0.7-1.3,0.8   C118,55,116,55.4,114.2,56.5z"/>
	<path class="st3" d="M127.5,56c-0.1-1.8-0.1-1.8-1.8-1.9c-1.1-0.1-2.3,0.4-3.4-0.3c2.1-1.1,4.3-0.5,6.4-0.5c0.7,0,1,1.3,0.4,1.9   C128.7,55.7,128.2,56,127.5,56z"/>
	<path class="st2" d="M75.7,74.4c0.5,0.5,1.8,0.4,1.3,1.8c-0.4,1-0.7,2.1-2.2,1.9c-0.3,0-0.6,0-0.9-0.1c-0.1-1.1,0.7-2,0.5-3   c0.1-0.1,0.3-0.2,0.3-0.3c0.2,0,0.3-0.1,0.4-0.2C75.3,74.4,75.5,74.4,75.7,74.4z"/>
	<path class="st1" d="M15.3,52.2c0-1,1-1.1,1.5-1.7c0.5-0.5,1.1-0.9,1.3-1.6c0.3-0.9-0.1-1.3-1.2-1.1c-0.2,0-0.5,0-0.7,0   c0.1-0.1,0.1-0.3,0.2-0.4c0.6-0.7,1.4-1.2,2.3-0.7c0.7,0.4,0.4,1.3,0.4,2C19,51,17.2,51.7,15.3,52.2z"/>
	<path class="st0" d="M40.2,91.1c0.3,0.2,0.4,0.5,0.2,0.8c-1.7,1.8-3.4,3.7-5.4,5.3c-0.1,0.1-0.5,0-0.7,0.1c0.1-0.3,0-0.7,0.2-0.9   C36.6,94.8,38.1,92.6,40.2,91.1z"/>
	<path class="st3" d="M30.7,96c0-0.4,0-0.8,0.3-1.1c1.4-1.6,3-3,4.7-4.3c0.4-0.3,0.8-0.5,1.3-0.3c-0.2,0.3-0.3,0.8-0.6,1   C34.3,92.6,32.9,94.8,30.7,96z"/>
	<path class="st1" d="M46.9,10c1,0,2-0.1,2.9,0.5c0,0.7,0,1.5-0.8,1.7c-0.8,0.3-1.8,0.5-2.5,0C45.5,11.4,45.9,10.6,46.9,10z"/>
	<path class="st8" d="M81.5,69c0.1-0.2,0.1-0.5,0.2-0.7c0.9-0.8,1-1.4-0.3-1.9c-0.3-0.1-0.4-0.5-0.5-0.8c1-0.2,1.9,0.3,2.7,0.6   c0.6,0.2,1.1,0.7,1.1,1.4c0,0.8-0.8,1-1.4,1.1C82.8,69,82.1,69,81.5,69z"/>
	<path class="st1" d="M18.2,57c0-1.3-0.6-1.7-1.9-1.3c-0.4,0.1-0.8,0.2-1.1,0.3c0.1-0.8,0.6-1.3,1.2-1.7c0.7-0.4,1.5-1,2.3-0.1   C19.4,54.9,19.1,56.1,18.2,57z"/>
	<path class="st1" d="M14.8,48.9c-0.9,1.3-1.7,1.6-2.4,1c-0.8-0.7-0.6-1.6-0.1-2.4c0.6-1,1.1-1.9,2.4-2c-0.1,1-0.9,1.4-1.4,2   C13,48,12.7,48.4,13,48.9c0.3,0.6,0.8,0.2,1.2,0.1C14.4,48.9,14.6,48.9,14.8,48.9z"/>
	<path class="st1" d="M36.4,10.5c0.7,0.1,0.9,0.5,0.9,1.1c0,0.7,0,1.4,0.2,2.1c0.6,2,0.6,2,2.7,1.7c-1.5,1.6-2.1,1.5-3-0.1   C36.4,13.7,36.2,12.1,36.4,10.5z"/>
	<path class="st6" d="M32.8,70.3c1-1.3,2.6-0.9,3.9-1.2c1-0.2,2,0,3,0c-0.1,0.3-0.2,0.7-0.5,0.7C37.1,69.7,35,70.6,32.8,70.3z"/>
	<path class="st8" d="M74.8,74.7c-0.1,0.1-0.2,0.2-0.3,0.3c-0.4-1.5,0.2-2.8,0.8-4c0.5,0,1,0,1.5,0.1c-0.2,0.9-0.6,1.8-0.5,2.8   c-0.3,0.1-0.5,0.3-0.5,0.6c-0.2,0-0.4,0.1-0.5,0.1C74.9,74.4,74.8,74.5,74.8,74.7z"/>
	<path class="st8" d="M100.7,27.3c0.2,0,0.3,0,0.5,0c0.1,1.6-1.4,1.9-2.3,2.7c-0.3,0.2-0.8,0-1-0.4c-0.3-0.6-1-1.1-1-1.8   c0.6,0.1,1.2,0.3,1.8,0.4C99.4,28.3,100.3,28.3,100.7,27.3z"/>
	<path class="st6" d="M20.4,76.1c0.1-0.3,0.2-0.7,0.4-0.8c1.5-1,3-2.1,4.9-2.6c0.1,0.4,0,0.8-0.3,1C23.8,74.8,22.2,75.6,20.4,76.1z"/>
	<path class="st3" d="M106.4,109.3c0.3,0,0.7,0.1,0.8,0.4c0.7,1.8,1.9,3.5,1.9,5.5C107.8,113.5,106.6,111.6,106.4,109.3z"/>
	<path class="st1" d="M11.9,57c-0.4,0-0.8-0.2-0.7-0.7c0.5-1.9,1.6-3.4,3.6-3.9c-0.1,1.1-1,1.6-1.7,2.2C12.4,55.3,11.7,55.9,11.9,57   z"/>
	<path class="st1" d="M43.2,13.8c-0.1-1.7,1-3.1,0.9-4.8c0.3,0,0.6,0,1,0C45.1,10.9,44.9,12.7,43.2,13.8z"/>
	<path class="st8" d="M45,34.4c-1.2-1.7-1.1-3.8-1.3-5.8c0.3,0.1,0.6,0.2,0.7,0.6C44.7,31,45.4,32.6,45,34.4z"/>
	<path class="st6" d="M140.4,64.2c0,1.3,0.1,2.6,0.1,3.9c-0.6,0.3-0.3,1.1-0.9,1.4C139.6,67.7,138.9,65.8,140.4,64.2z"/>
	<path class="st8" d="M46.5,52.6c1,0.4,1.6,1.6,2.8,1.6c0,0.5,0.1,1.2-0.7,1.3c-0.6,0.1-1.1-0.1-1.3-0.7   C46.9,54.1,46.4,53.5,46.5,52.6z"/>
	<path class="st0" d="M80.1,52.8c0.5,0.3,0.7,1,1.4,1.1c-0.1,0.6-0.1,1.2-0.2,1.7c-0.6,0-1.1,0-1.7,0C79.6,54.6,79.2,53.6,80.1,52.8   z"/>
	<path class="st4" d="M142.9,88.5c-0.2,1.2-0.5,2.3-1.9,2.7c-0.4,0.1-0.7,0.6-1.1,0.9c-0.1,0-0.3-0.1-0.4-0.1   c-0.1-0.4-0.1-0.9-0.2-1.3l0.1-0.1c0.8,0,1.5-0.3,2-1C141.9,89.1,142.3,88.7,142.9,88.5z"/>
	<path class="st8" d="M48.3,46.4c-1.4-1.1-2-2.5-1.8-4.3C47.8,43.3,48.4,44.7,48.3,46.4z"/>
	<path class="st0" d="M70.5,26.7c1.5,0.7,2.8,1.6,3.1,3.4C72.2,29.4,71,28.5,70.5,26.7z"/>
	<path class="st8" d="M79.5,65.6c-1.6,0.4-3.1-0.6-4.8-0.4c0.2-0.5,0.5-0.9,1-0.9c1.2,0.1,2.3,0.4,3.5,0.7   C79.4,65,79.5,65.4,79.5,65.6z"/>
	<path class="st0" d="M106.5,38c-1.3,1.3-2.9,1.3-4.5,1C103.3,37.8,104.9,38.2,106.5,38z"/>
	<path class="st0" d="M100.7,39.2c-1.2,1-2.5,1.2-4,0.8C97.9,39.2,99.2,38.9,100.7,39.2z"/>
	<path class="st6" d="M132,66.5c0.4,1-0.2,1.7-0.6,2.5c-0.3,0.3-0.7,0.6-1,0.9C130.6,68.6,130.3,67.1,132,66.5z"/>
	<path class="st6" d="M139.5,70.9c0.3,1.2-0.3,2.3-0.6,3.5C137.8,72.8,137.9,72.2,139.5,70.9z"/>
	<path class="st6" d="M15.2,81c0.5-1.4,1.5-2.3,2.9-2.9C17.9,79.8,16.9,80.8,15.2,81z"/>
	<path class="st3" d="M104,105.5c1.7,0.5,2,2,2.3,3.5C105.1,108.1,104.5,106.9,104,105.5z"/>
	<path class="st0" d="M44.5,74.5c-1,1.4-2.3,0.6-3.5,0.6C42,73.8,43.3,74.4,44.5,74.5z"/>
	<path class="st6" d="M139.5,90.7c0.1,0.4,0.1,0.9,0.2,1.3c-1.9-0.4-2.3-1.1-1.2-2.5C138.6,90.1,138.8,90.6,139.5,90.7z"/>
	<path class="st6" d="M136.6,41.7c0.2,1.7-1,2-2.3,2.3C134.8,43,135.6,42.2,136.6,41.7z"/>
	<path class="st3" d="M30.5,92.4c-0.3,1.5-1.6,1.7-2.8,2.1C28,92.9,29.3,92.7,30.5,92.4z"/>
	<path class="st3" d="M25.3,96.9c0,1.3-0.6,2.2-1.9,2.4C23.7,98.2,23.9,97,25.3,96.9z"/>
	<path class="st6" d="M13.8,79.1c0,1.1-0.2,2-1.4,2.5C12.4,80.5,12.4,79.4,13.8,79.1z"/>
	<path class="st3" d="M28.3,98.4c-0.1-1.5,0.9-2,2.2-2.2C30.1,97.4,29.3,98,28.3,98.4z"/>
	<path class="st6" d="M139.5,84.9c1.7,0.2,0.8,1.5,0.9,2.3c0,0,0,0.1,0,0.1c-0.3,0.2-0.6,0.3-0.9,0.5l-0.1-0.1   C139.5,86.7,139.5,85.8,139.5,84.9z"/>
	<path class="st0" d="M93.9,40.6c-0.9,0.8-1.8,1.1-3,0.9C91.7,40.4,92.8,40.4,93.9,40.6z"/>
	<path class="st0" d="M34.4,103.1c-0.2-1.4,0.8-1.7,1.9-1.9C36.3,102.3,35.6,103,34.4,103.1z"/>
	<path class="st8" d="M123.4,75.3c0.2-0.9,0.1-2,1.3-2.4C124.7,73.9,124.8,75,123.4,75.3z"/>
	<path class="st3" d="M133.1,52.9c1-0.1,2.1-0.7,2.7,0.7c-0.2,0.1-0.4,0.1-0.6,0.2C134.4,53.6,133.5,54,133.1,52.9z"/>
	<path class="st0" d="M48.4,74c-0.7,1.1-1.5,0.9-2.4,0.3C46.7,73.5,47.6,73.8,48.4,74z"/>
	<path class="st6" d="M17.3,75.4c-0.3,1-1,1.6-2,1.9C15.4,76,16,75.3,17.3,75.4z"/>
	<path class="st3" d="M37.9,89.8c0-0.7,0.3-1,1-1c0.7,0,1.3,0,1.3,0.9C39.4,89.7,38.6,89.7,37.9,89.8z"/>
	<path class="st6" d="M133.8,87.2c0.8,0,1.6,0,2.4,0c-0.7,1.2-0.9,1.3-2.4,0.5C133.8,87.6,133.8,87.4,133.8,87.2z"/>
	<path class="st0" d="M68.2,93.5c1,0.6,1.4,1.3,0.8,2.4C68.4,95.2,68.1,94.4,68.2,93.5z"/>
	<path class="st8" d="M41.1,15.2c0.3-1,1.1-1.2,2-1.3C42.9,15.1,42.1,15.3,41.1,15.2z"/>
	<path class="st8" d="M92.1,70.9c-0.7,0.6-1.5,0.9-2.5,0.8C90.2,70.7,91,70.3,92.1,70.9z"/>
	<path class="st0" d="M53.5,32.1c-1-0.3-1.2-1.1-1.3-1.9C53.4,30.3,53.7,31,53.5,32.1z"/>
	<path class="st1" d="M14.7,56.1c-0.3,1-0.8,1.6-1.9,1C13.2,56.2,13.9,56,14.7,56.1z"/>
	<path class="st6" d="M85.9,72c-0.4,1.1-1.3,0.8-2.1,0.6C84.2,71.7,85.1,71.9,85.9,72z"/>
	<path class="st8" d="M45.9,47c0.7,0.5,0.5,1.2,0.4,1.9C45.1,48.5,45.3,47.8,45.9,47z"/>
	<path class="st6" d="M24.5,69.7c-0.4,1-1.2,1.1-2.1,1.2C22.7,69.8,23.5,69.6,24.5,69.7z"/>
	<path class="st0" d="M30.6,82.9c0.2-1.1,1.1-1.3,2-1.3C32.3,82.6,31.5,82.8,30.6,82.9z"/>
	<path class="st0" d="M73.9,30.6c1.1,0.2,1.2,1,1.3,1.9C74.2,32.3,73.9,31.5,73.9,30.6z"/>
	<path class="st8" d="M133.8,87.2c0,0.2,0,0.3-0.1,0.5c-1.2-0.7-1.2-0.8,0-2.4C133.8,86,133.8,86.6,133.8,87.2z"/>
	<path class="st0" d="M69.5,108.4c0.6,0.7,0.7,1.3-0.1,1.9C68.8,109.6,68.8,109,69.5,108.4z"/>
	<path class="st6" d="M136.6,86.8c0-0.9,0.5-1.4,1.4-1.5C138.1,86.2,137.6,86.7,136.6,86.8z"/>
	<path class="st4" d="M139.5,90.7c-0.6-0.1-0.8-0.6-1-1.2c0.2-0.3,0.3-0.6,0.5-0.9c0.2,0,0.4,0,0.6,0c0,0.6,0,1.3,0,1.9L139.5,90.7z   "/>
	<path class="st3" d="M110.8,63.2c0.1-0.9,0.5-1.3,1.4-1.4C112.1,62.7,111.6,63.2,110.8,63.2z"/>
	<path class="st3" d="M124.1,58.4c0.2-1,0.7-1.4,1.7-1.3C125.5,57.9,125.1,58.5,124.1,58.4z"/>
	<path class="st6" d="M98.3,73.8c-0.9,0-1.3-0.6-1.6-1.3C97.7,72.3,98.2,72.9,98.3,73.8z"/>
	<path class="st8" d="M77.6,70.4c0.4-0.9,1.1-1,1.9-0.9C79.4,70.8,78.4,70.4,77.6,70.4z"/>
	<path class="st0" d="M36.4,100.8c-0.1-1,0.4-1.4,1.3-1.5C37.8,100.2,37.3,100.6,36.4,100.8z"/>
	<path class="st3" d="M122.2,59.7c0.2-0.9,0.8-1.3,1.7-1.2C123.6,59.3,123.2,59.9,122.2,59.7z"/>
	<path class="st6" d="M134.2,72.3c0-0.5,0-0.9,0-1.4c0.3-0.1,0.6-0.3,1-0.4C135.1,71.2,135.5,72.3,134.2,72.3z"/>
	<path class="st8" d="M135.1,83.4c0.1,0.9-0.5,1.3-1.3,1.6C133.7,84,134.2,83.5,135.1,83.4z"/>
	<path class="st1" d="M26.8,26.8c0-0.9,0.5-1.3,1.3-1.4C28.2,26.2,27.7,26.7,26.8,26.8z"/>
	<path class="st1" d="M5.7,70.5c1-1.2,1.2-1.2,1.7,0C6.9,70.5,6.3,70.5,5.7,70.5z"/>
	<path class="st0" d="M28.6,83.8c0.1-1,0.8-1,1.6-0.8C30,83.9,29.4,83.9,28.6,83.8z"/>
	<path class="st0" d="M121.9,35.4c0.6,0,1.3,0,1.4,0.8C122.5,36.4,121.9,36.4,121.9,35.4z"/>
	<path class="st0" d="M36.4,80c0-1,0.7-1,1.4-0.9C37.7,80.1,37.1,80.1,36.4,80z"/>
	<path class="st0" d="M43,77.5c0.2-0.9,0.9-0.8,1.6-0.6C44.3,77.7,43.7,77.7,43,77.5z"/>
	<path class="st0" d="M54.6,33.5c-0.9,0-1-0.6-1-1.3C54.6,32.1,54.6,32.8,54.6,33.5z"/>
	<path class="st6" d="M130.4,70c0.1,0.7,0.1,1.3-0.8,1.4C129.5,70.7,129.5,70.1,130.4,70z"/>
	<path class="st1" d="M141.5,45c0-0.1,0-0.3,0-0.4c0.2,0.1,0.5,0.1,0.6,0.2c0.3,0.2,0.3,0.7,0,0.8C141.6,45.9,141.6,45.4,141.5,45z"/>
	<path class="st6" d="M143.7,59.1c-0.7-0.3-0.8-1-0.6-1.7C144,57.7,143.9,58.4,143.7,59.1z"/>
	<path class="st8" d="M121.2,66.1c0.1,0.7-0.2,1.2-0.9,1.4C120.3,66.9,120.4,66.2,121.2,66.1z"/>
	<path class="st0" d="M135.2,70.5c-0.3,0.1-0.6,0.3-1,0.4c0-0.7,0-1.4,0.9-1.5C135.2,69.8,135.2,70.2,135.2,70.5z"/>
	<path class="st3" d="M20.9,102.5c0.2,0.8-0.2,1.3-1,1.5C20,103.3,20.1,102.7,20.9,102.5z"/>
	<path class="st3" d="M19.5,105.4c0.1,0.7-0.1,1-0.8,1.1C18.6,105.9,18.9,105.5,19.5,105.4z"/>
	<path class="st3" d="M54.5,83.8c0.1-0.6,0.4-1,1.1-0.8C55.5,83.7,55.1,83.9,54.5,83.8z"/>
	<path class="st6" d="M25.7,72.7c0.1-0.6,0.5-0.9,1.1-0.8C26.7,72.6,26.4,72.9,25.7,72.7z"/>
	<path class="st8" d="M52.1,28.8c-0.4-0.1-0.7-0.3-0.9-0.6c0-0.2,0.1-0.3,0.1-0.5C52,27.8,52.2,28.2,52.1,28.8z"/>
	<path class="st8" d="M124.8,72.4c-0.1-0.6,0.2-0.9,0.8-1C125.6,71.9,125.4,72.3,124.8,72.4z"/>
	<path class="st3" d="M130.7,50c0.8-0.2,1.1,0,1.1,0.8C131.3,50.8,130.9,50.6,130.7,50z"/>
	<path class="st6" d="M22.1,71.1c-0.2,0.5-0.5,0.9-1.1,0.8C21,71.2,21.4,70.9,22.1,71.1z"/>
	<path class="st3" d="M21.9,101.1c0.1,0.7-0.2,1-0.8,1.1C21,101.5,21.3,101.2,21.9,101.1z"/>
	<path class="st4" d="M50.6,117.4c0.1,0.6,0,1-0.6,1.1C49.9,117.9,50.2,117.6,50.6,117.4z"/>
	<path class="st0" d="M69.4,99.8c0.5,0.3,0.6,0.6,0.1,0.9C69,100.4,68.9,100.1,69.4,99.8z"/>
	<path class="st8" d="M122.3,77.2c0-0.6,0.3-0.9,0.9-0.9C123.2,76.8,122.9,77.2,122.3,77.2z"/>
	<path class="st3" d="M23.4,99.3c0,0.6-0.4,0.9-1,1C22.4,99.5,22.7,99.2,23.4,99.3z"/>
	<path class="st6" d="M14.7,78.1c0.1,0.6-0.2,1-0.9,1C13.8,78.5,14.1,78.2,14.7,78.1z"/>
	<path class="st1" d="M16.2,69c0-0.6,0.4-0.9,1-0.8C17.1,68.7,16.8,69,16.2,69z"/>
	<path class="st0" d="M28.7,78.2c0,0.7-0.4,0.9-1,0.8C27.7,78.4,28,78.1,28.7,78.2z"/>
	<path class="st0" d="M80.8,50.7c0.1,0.6-0.1,0.9-0.6,1C80,51.2,80.2,50.9,80.8,50.7z"/>
	<path class="st0" d="M38.4,98.4c-0.1-0.6,0.1-1,0.8-1.1C39.2,97.9,39,98.3,38.4,98.4z"/>
	<path class="st0" d="M34.3,97.3c0.1,0.6-0.1,1-0.7,1C33.4,97.7,33.7,97.4,34.3,97.3z"/>
	<path class="st6" d="M132.8,47.9c-0.6,0-1-0.3-0.9-1C132.5,46.9,132.8,47.3,132.8,47.9z"/>
	<path class="st0" d="M104,51.5c-0.1,0.6-0.5,0.7-1,0.6C103.2,51.6,103.4,51.2,104,51.5z"/>
	<path class="st1" d="M139.5,42.6c-0.6,0-0.8-0.3-0.8-0.9C139.2,41.7,139.5,42,139.5,42.6z"/>
	<path class="st8" d="M48.9,47.9c-0.4-0.2-0.5-0.5-0.4-0.9C49,47,49.5,47.2,48.9,47.9z"/>
	<path class="st0" d="M48.8,76.4c0.2-0.5,0.5-0.9,1-0.3C49.5,76.6,49.2,76.7,48.8,76.4z"/>
	<path class="st8" d="M158.8,60.9c0.4,0.2,0.4,0.6,0.4,1C158.6,61.7,158,61.6,158.8,60.9z"/>
	<path class="st6" d="M139.5,88.7c-0.2,0-0.4,0-0.6,0c-0.5-0.7,0.1-0.9,0.5-1.1c0,0,0.1,0.1,0.1,0.1C139.6,88,139.5,88.3,139.5,88.7   C139.5,88.6,139.5,88.7,139.5,88.7z"/>
	<path class="st0" d="M39.7,78.4c0.1-0.6,0.5-0.8,1.1-0.6C40.6,78.4,40.3,78.7,39.7,78.4z"/>
	<path class="st0" d="M47.4,89c0.1-0.6,0.5-0.8,1-0.7C48.3,88.9,48,89.2,47.4,89z"/>
	<path class="st3" d="M113.2,60.9c-0.1-0.6,0.2-1,0.9-1C114.1,60.5,113.8,60.8,113.2,60.9z"/>
	<path class="st3" d="M115.1,59.3c0.1-0.6,0.5-0.9,1.1-0.8C116,59.1,115.7,59.4,115.1,59.3z"/>
	<path class="st0" d="M36.4,75.5c-0.2,0.6-0.6,0.7-1.1,0.5C35.5,75.5,35.8,75.2,36.4,75.5z"/>
	<path class="st0" d="M27.2,79.1c0,0.6-0.3,1-0.9,0.9C26.3,79.4,26.5,79.1,27.2,79.1z"/>
	<path class="st3" d="M117.4,58.2c0.2-0.6,0.6-0.7,1.1-0.6C118.4,58.1,118.1,58.5,117.4,58.2z"/>
	<path class="st1" d="M16.1,47.9c0.1,0.6-0.2,0.9-0.8,1C15.2,48.3,15.5,48,16.1,47.9z"/>
	<path class="st3" d="M126.1,57c0.1-0.7,0.5-1,1.2-0.9C127.1,56.7,126.7,57,126.1,57z"/>
	<path class="st0" d="M44.2,92.1c-0.2-0.7,0.1-1,0.8-1C45,91.7,44.8,92.1,44.2,92.1z"/>
	<path class="st0" d="M45,91.1c0-0.6,0.3-0.9,0.9-0.9C45.9,90.8,45.6,91.1,45,91.1z"/>
	<path class="st8" d="M42.6,35.4c0.7,0,0.9,0.3,0.9,1C42.9,36.4,42.6,36,42.6,35.4z"/>
	<path class="st0" d="M34.4,80.9c0.1-0.7,0.5-0.9,1.1-0.7C35.3,80.8,35,81,34.4,80.9z"/>
	<path class="st8" d="M121.4,78.6c-0.1-0.6,0.3-0.9,0.8-1C122.3,78.2,122,78.6,121.4,78.6z"/>
	<path class="st0" d="M53.2,72.9c0,0.3,0,0.6,0,0.9c-0.3,0-0.6,0-0.9,0C52.2,73.1,52.5,72.8,53.2,72.9z"/>
	<path class="st8" d="M49.7,49.9c-0.6-0.1-0.9-0.4-0.8-1C49.5,48.9,49.8,49.3,49.7,49.9z"/>
	<path class="st3" d="M101.4,108.3c-0.3,0-0.5,0-0.8,0c0-0.1,0-0.2-0.1-0.3c0.1-0.1,0.2-0.2,0.4-0.4   C101,107.9,101.2,108.1,101.4,108.3z"/>
	<path class="st0" d="M56,76.2c0.2,0,0.3,0,0.5,0C56.3,76.5,56.2,76.5,56,76.2z"/>
	<path class="st4" d="M62.7,106.9c0.2-0.2,0.3-0.4,0.5-0.5c0,0.2,0,0.4,0,0.6C63.1,106.9,62.9,106.9,62.7,106.9z"/>
	<path class="st1" d="M100.5,108.1c0,0.1,0.1,0.2,0.1,0.3c0,0.2,0,0.3-0.1,0.5c-0.3,0.1-0.6,0.2-0.5,0.6c0.1,0.4,0.4,0.4,0.7,0.4   c0,0.4,0.1,0.9,0.1,1.3c-0.2,0.7,0.1,1.1,0.8,1.1c0.4,0.6,0.6,1.2,0.6,1.9c-0.1,1.7,0.7,3.2,1.4,4.7c1.1,2.6,1.8,5.2,2.2,8   c0,0.3-0.2,0.6-0.3,0.9c-0.3,0-0.6,0-0.9,0c-0.8-0.2-1.6-0.4-2.4-0.5c0-0.5-0.3-1-0.5-1.4c0-0.7,0.1-1.4-0.9-1.4   c0-0.3-0.1-0.6-0.1-0.9c0.2-1,0-1.8-1.3-2c-1.4-3-3.4-5.6-4.9-8.5c-2-4-4.5-7.6-7-11.3c-0.9-1.4-2.5-2-3.3-3.3   c-1.1-1.7-2.7-2.9-4.1-4.4c-0.5-0.6-1.1-0.9-1.9-0.8c-0.7-1.9-2.4-2.9-4.1-3.7c-0.1-1.2-0.4-2.3-1.9-2.6c-0.7-0.1-0.8-0.9-1.1-1.5   c-0.3-0.6,0-1.1,0.7-1.2c1.3-0.1,2.7-0.3,4,0.5c1.1,0.6,2.3,0.7,3.1-0.2c1.3-1.4,2.8-1.3,4.4-1.3c0.9,0,1.7-0.1,2.6-0.1   c3,0.9,6,1.7,9,2.6c0.1,0.6,0.4,0.9,1,0.8c2.6,1.3,4.9,3.1,7.2,4.9c0,0.6,0.3,0.9,0.9,0.9c1.2,1.4,2.3,2.8,3.8,3.9   c0,1.5,1,2.6,1.9,3.7c2.4,2.8,3.6,5.9,3.4,9.6c-0.7,0.1-1.4-0.1-1.9-0.6c-0.5-0.5-1.1-0.9-1.8-0.8c0,0,0,0,0,0   c-0.1-0.8-0.6-1.3-1.4-1.5c0,0,0,0,0,0c-0.9-2.4-2.4-4.4-4.4-6c-0.6-0.5-1.3-1-1.8-1.6C98,94,93.1,90.6,87.5,88.3   c-1-0.4-1.9-0.6-3-0.3c-0.7,0.2-1.4,0.1-2.1,0.2c-0.5,0-1.2-0.1-1.3,0.7c-0.1,0.7,0.4,1,1,1.2c0.9,0.3,1.4,1,2.2,1.4   c2.5,1.1,4,3.6,6.6,4.5L91,96c-0.1,1.1,0.9,1.7,1.5,2.3c2.6,2.9,5,6,7.3,9.2C99.9,107.7,100.2,107.9,100.5,108.1z"/>
	<path class="st1" d="M79.7,105.4c0.3,1.7,0.5,3.4,0.7,5.1c0.7,5.5,1.3,11,1.5,16.5c0,1.4,0,2.9-0.1,4.3c0,0.6-0.2,1.2-0.8,1.3   c-0.7,0.1-1.1-0.4-1.3-0.9c-0.4-0.9-0.8-1.8-0.7-2.7c0-0.6,0-1.1-0.6-1.5c-0.5-5.9-1.4-11.7-2.5-17.4c-0.7-3.9-1.4-7.8-2.5-11.6   c-0.6-2.2-1.2-4.4-3-6c-0.1-1.7-1.5-3-1.5-4.7c1-0.1,1.9,0.2,2.7,0.6c0.7,0.4,1.4,0.8,2.2,0.8c0,0.3-0.2,0.7,0,0.9   c2,3.5,3.3,7.2,4.5,11C78.8,102.6,79.7,103.9,79.7,105.4z"/>
	<path class="st1" d="M61.6,103.3c0,1.2,0,2.4,0.1,3.6c-0.9,0.4-0.7,1.2-0.6,2c-1,0.2-1.2,1-1.1,1.9c0.3,2.4-0.2,4.8-0.6,7.1   c-0.4,2.1-0.8,4.3-1.4,6.5c-0.6,2-1.2,4.1-1.8,6.1c-0.2,1.9-1.3,3.5-2,5.2c-0.7,1.5-0.7,1.6,0.9,2c0.3,0.1,0.6,0.1,0.9,0.2   c1.2,0.5,1.2,1,0.3,1.8c-1.2,1.1-2.6,1-4,0.6c-0.8-0.3-1.6-0.7-2.5-0.7c-0.4,0-0.8-0.2-0.8-0.7c0-0.4,0.2-0.7,0.5-1   c0.6-0.4,1.7,0,1.8-1.2c0.3-1.1,0.6-2.2,0-3.4c0.1-0.9,0.1-1.8,0.2-2.7c1-0.8,1.3-1.8,0.9-3.1c0.2-0.5,0.3-1,0.2-1.5   c0.5-0.3,0.7-0.8,0.9-1.4c1.2-4.3,2.4-8.7,3.5-13c0.6-2.3,1.2-4.6,1.8-6.9C59.3,102.9,59.3,102.9,61.6,103.3z"/>
	<path class="st8" d="M102.1,127.1c0.8,0.2,1.6,0.4,2.4,0.5c-0.6,1.9-1.6,3.6-2.7,5.2c-0.9,1.4-2.3,2.1-4.1,1.9   c-0.6-0.1-1.1-0.3-1.3-0.9c-0.2-0.7-0.2-1.4,0.5-1.7c1.4-0.7,2.2-2.3,3.8-2.8C101.5,129,102.3,128.2,102.1,127.1z"/>
	<path class="st1" d="M36.8,132.7c-0.1,1.4,1.1,1.6,1.9,2.2c-0.1,2.7-1.6,3.6-4.1,2.5c-0.4-0.2-0.8-0.5-1.2-0.8   c0-0.6,0.1-1.2,0.1-1.9C34.6,134.1,35.8,133.5,36.8,132.7z"/>
	<path class="st4" d="M51.3,133.4c0.6,1.1,0.3,2.2,0,3.4c-0.2,0-0.3,0-0.5-0.1C51,135.6,50.3,134.3,51.3,133.4z"/>
	<path class="st8" d="M100.6,125.1c0-0.3,0.1-0.6,0.1-0.9c1,0,0.9,0.7,0.9,1.4C101.2,125.7,100.8,125.5,100.6,125.1z"/>
	<path class="st1" d="M34.5,128.8c0-1.1-0.2-2.2,0.8-3.1c0.4-0.3,0.5-1,0.5-1.6c0.6-5.1,2.7-9.6,5.1-14c1.5-2.7,3.1-5.3,4.8-7.9   c0.3-0.5,0.6-0.9,1-1.3c0.4-0.4,1.1-0.4,1.6-0.1c0.5,0.2,0.5,0.8,0.5,1.2c-0.1,1-0.3,1.9-1,2.7c-1.5,1.9-2.5,4.1-3.3,6.3   c-0.9,2.4-2.4,4.5-2.6,7.1c-2.3,3-2.3,7-4,10.3c-0.4,0.8,0.4,2-0.8,2.5C36.8,129.5,35.9,128.9,34.5,128.8z"/>
	<path class="st3" d="M109.4,107.8c0.8-0.1,1.4,0.3,1.8,0.8c0.5,0.6,1.2,0.7,1.9,0.6c0.6,0.5,1,1.2,0.9,2   C111.8,111,110.5,109.5,109.4,107.8z"/>
	<path class="st4" d="M79.7,105.4c-0.1-1.6-0.9-2.9-1.3-4.3c-1.2-3.8-2.5-7.5-4.5-11c-0.1-0.2,0-0.6,0-0.9c0,0,0.1,0,0.1,0   c1.7,0.9,3.4,1.8,4.1,3.7c0.2,0.3,0.3,0.6,0.5,0.8c1.9,2,2.9,4.3,3,7c-0.4,1.8-0.2,3.5,0.4,5.2c0.3,0.9,0.5,1.8,0.5,2.8   c-0.3,0.3-0.7,0.6-0.9,0.1c-0.3-0.6-0.4-1.2-0.6-1.8C80.7,106.4,80.6,105.6,79.7,105.4z"/>
	<path class="st2" d="M68.6,48.4c-0.1,0.5-0.1,0.8-0.2,1.1c-0.1,0.4-0.4,0.7-0.9,0.7c-0.4,0-0.6-0.3-0.7-0.5   C66,47.8,65.4,46,65.1,44c-0.1-0.5-0.1-1,0.4-1.3c0.7-0.3,1,0.2,1.3,0.7C67.9,45,67.9,46.9,68.6,48.4z"/>
	<path class="st2" d="M90.9,96c0.2-1-0.7-1.1-1.2-1.6c-1.6-1.5-3.2-3-4.8-4.5c0.2-0.9,0.8-0.8,1.4-0.6c0.7,0.2,1.4,0.5,1.9,0.9   c2.9,2.2,6.2,3.8,8.8,6.5c0.9,1,1,0.9-0.3,1.8c-0.3,0.2-0.6,0.4-0.7,0.6c-0.6,0.9-1.1,0.6-1.6-0.1c-0.6-0.9-1.2-1.8-2.1-2.6   C91.9,96.1,91.5,95.9,90.9,96C91,96,90.9,96,90.9,96z"/>
	<path class="st1" d="M81.3,55.5c0.1-0.6,0.1-1.2,0.2-1.7c1.3-0.8,1.7-2.6,3.3-3.1c0.5,0.1,0.9-0.1,1-0.6c1.3-1.4,2.8-2.6,4.4-3.5   c0.7,0,1.5,0,2.1-0.4c1.4-1,3.1-1.6,4.5-2.5c0.5,0,1-0.1,1.4-0.1c1.5-0.3,2.9-0.6,4.4-0.9c0.5-0.1,1.1-0.3,1.4-0.9   c3.9,0,7.7,0,11.6,0c1.4,1.2,3,1.5,4.8,1.3c0.9,0.4,1.8,0.8,2.8,0.7c1.2,0.7,2.4,1.4,3.8,1.5c0,0,0,0,0,0c1.4,2.6,1.2,2.7-1.8,2.8   c-1.9,0.1-3.6-0.5-5.3-0.9c-0.5,0-1-0.1-1.4-0.1c-0.4-0.5-0.9-0.5-1.4-0.3c-0.6-0.1-1.3-0.1-1.9-0.2c-0.3-0.4-0.6-0.5-1-0.1   c-1.4,0-2.8-0.5-4.3-0.3c-3.9-0.3-7.7,0-11.4,1.5c-4.2,1.7-8.2,3.6-11.8,6.2c-0.8,0.6-1.5,1.2-1.9,2.1   C83.5,56.2,82.4,55.8,81.3,55.5z"/>
	<path class="st0" d="M104,41.6c-0.3,0.6-0.8,0.8-1.4,0.9c-1.5,0.3-2.9,0.6-4.4,0.9C99.8,41.8,101.7,41.1,104,41.6z"/>
	<path class="st0" d="M120.4,42.9c-1.8,0.2-3.4-0.1-4.8-1.3C117.5,41.1,119.5,41.7,120.4,42.9z"/>
	<path class="st3" d="M127,45.1c-1.4-0.1-2.6-0.8-3.8-1.5c0.3-0.4,0.6-0.5,1-0.3c0.7,0.3,1.5,0.3,2.2,0.2c0.3,0,0.5,0.1,0.7,0.4   C127,44.3,127,44.7,127,45.1z"/>
	<path class="st4" d="M61,108.9c-0.1-0.8-0.3-1.6,0.6-2c0.4,0,0.7,0,1.1,0C62.5,107.9,62.4,109,61,108.9z"/>
	<path class="st0" d="M95.9,86.2c-0.6,0.1-0.9-0.2-1-0.8C95.5,85.3,95.9,85.6,95.9,86.2z"/>
	<path class="st0" d="M104,92c-0.6,0-0.9-0.3-0.9-0.9C103.7,91.1,104,91.4,104,92z"/>
	<path class="st1" d="M127.8,82.6c-0.7-0.1-1.6,0.2-1.8-1c-0.1-1,1.1-2.4,2.1-2.5c1.4-0.1,1.3,0.9,1.3,1.8   C129.5,82.4,129.3,82.5,127.8,82.6z"/>
	<path class="st2" d="M139.6,90.6c0-0.6,0-1.3,0-1.9c0,0,0,0,0,0c1,0,1-0.7,0.9-1.4c0,0,0-0.1,0-0.1c1.4-0.2,1.1-1.4,0.9-2   c-0.6-1.3-0.6-2.3,0-3.7c0.5-1.2,0.5-2.8,0.6-4.2c0.1-2,0-4,0.5-5.9c0.1-1.3,0.1-2.5,0.8-3.7c0.3-0.5,0.2-1.4,0.2-2.1   c0.3,0,0.6,0.1,1,0.1c0,1.2,0,2.4,0.1,3.5c0,1.1,0,2.2-0.1,3.2c0,0.7,0.2,1.2,0.9,1.5c0,2,0,4,0,5.9c-1.1,0.5-0.8,1.4-0.7,2.3   c-0.1,0.8-0.1,1.7-0.2,2.5c-0.6,0.2-1.3,0.4-0.4,1.2c0,0.2,0,0.5-0.1,0.7c-0.6,0.2-1,0.6-0.9,1.3c0,0.2,0,0.4,0,0.6   c-0.6,0.2-1.1,0.5-1.4,1.1C141.1,90.3,140.4,90.6,139.6,90.6z"/>
	<path class="st4" d="M52.4,127.6c0.4,1.2,0.1,2.3-0.9,3.1C51.5,129.5,51.4,128.4,52.4,127.6z"/>
	<path class="st3" d="M108,106.4c0.8,0.1,1.3,0.6,1.4,1.5C108.4,107.8,107.9,107.4,108,106.4z"/>
	<path class="st2" d="M18,110.8c-0.1,0.1-0.2,0.2-0.3,0.2c-0.3,0-0.4-0.2-0.2-0.5c0.1-0.1,0.3-0.2,0.4-0.1   C17.9,110.5,17.9,110.7,18,110.8z"/>
	<path class="st4" d="M145.3,74c-0.7-0.3-0.9-0.8-0.9-1.5c0-1.1,0.1-2.2,0.1-3.2c0.6,0.3,0.9,0.8,0.8,1.5   C145.3,71.8,145.3,72.9,145.3,74z"/>
	<path class="st4" d="M144.5,82.2c-0.1-0.9-0.4-1.8,0.7-2.3C145.3,80.8,145.5,81.7,144.5,82.2z"/>
	<path class="st4" d="M144.4,65.7c-0.3,0-0.6-0.1-1-0.1c0-0.3,0-0.6,0-1c0.2-0.2,0.3-0.4,0.5-0.6C144.5,64.5,145.1,64.9,144.4,65.7z   "/>
	<path class="st4" d="M143.9,85.9c-0.8-0.8-0.2-1,0.4-1.2C144.4,85.2,144.3,85.6,143.9,85.9z"/>
	<path class="st4" d="M143,88c-0.1-0.7,0.2-1.1,0.9-1.3C143.9,87.3,143.6,87.7,143,88z"/>
	<path class="st3" d="M117,46.6c0.5-0.1,1.1-0.2,1.4,0.3C117.8,47.6,117.3,47.5,117,46.6z"/>
	<path class="st3" d="M114.1,46.3c0.4-0.4,0.7-0.4,1,0.1C114.7,47,114.4,46.9,114.1,46.3z"/>
	<path class="st8" d="M101.7,112.2c-0.7,0-1-0.4-0.8-1.1C101.3,111.3,101.7,111.6,101.7,112.2z"/>
	<path class="st8" d="M100.7,109.8c-0.3,0-0.7,0-0.7-0.4c-0.1-0.4,0.2-0.5,0.5-0.6C100.5,109.1,100.6,109.5,100.7,109.8z"/>
	<path class="st0" d="M85.8,50c-0.1,0.6-0.5,0.8-1,0.6C84.9,50,85.3,49.8,85.8,50z"/>
	<path class="st6" d="M74.8,74.7c0-0.2,0.1-0.3,0.4-0.2C75.1,74.6,74.9,74.7,74.8,74.7z"/>
	<path class="st4" d="M140.4,87.2c0.1,0.7,0.1,1.4-0.9,1.4c0-0.3,0-0.6,0-0.9C139.9,87.6,140.1,87.4,140.4,87.2z"/>
	<path class="st8" d="M100.6,123.3c-1-0.3-1.2-1.1-1.3-2C100.6,121.5,100.8,122.3,100.6,123.3z"/>
	<path class="st1" d="M82.5,108.8c0-1-0.2-1.9-0.5-2.8c-0.6-1.7-0.8-3.4-0.4-5.2c2-0.1,3.6,0.6,4.2,2.3c1.3,3.4,2.8,6.7,3.5,10.3   c0.3,1.7,0.4,1.8-1.2,2.2c-0.9,0.3-1.4,0.9-2,1.6c-1.5-1.9-2.2-4.1-2.3-6.5C83.7,109.8,83.5,109,82.5,108.8z"/>
</g>
</svg>