<svg width="56" height="56" viewBox="0 0 56 56" fill="none" xmlns="http://www.w3.org/2000/svg">
<circle cx="28" cy="28" r="27" stroke="#E3501D" stroke-width="2"/>
<path d="M34.6 21.4H34.612M22 16H34C37.3137 16 40 18.6863 40 22V34C40 37.3137 37.3137 40 34 40H22C18.6863 40 16 37.3137 16 34V22C16 18.6863 18.6863 16 22 16ZM32.8 27.244C32.9481 28.2427 32.7775 29.2627 32.3125 30.1588C31.8475 31.055 31.1118 31.7817 30.21 32.2356C29.3081 32.6895 28.2861 32.8475 27.2893 32.6871C26.2926 32.5267 25.3717 32.0561 24.6578 31.3422C23.9439 30.6283 23.4733 29.7074 23.3129 28.7107C23.1525 27.7139 23.3105 26.6919 23.7644 25.79C24.2183 24.8882 24.945 24.1525 25.8412 23.6875C26.7373 23.2225 27.7573 23.0519 28.756 23.2C29.7747 23.3511 30.7178 23.8258 31.446 24.554C32.1742 25.2822 32.6489 26.2253 32.8 27.244Z" stroke="#E3501D" stroke-width="2" stroke-linecap="round" stroke-linejoin="round"/>
</svg>
