<?xml version="1.0" encoding="UTF-8"?>
<!-- Generator: Adobe Illustrator 26.0.3, SVG Export Plug-In . SVG Version: 6.00 Build 0)  -->
<svg xmlns="http://www.w3.org/2000/svg" xmlns:xlink="http://www.w3.org/1999/xlink" version="1.1" id="Layer_1" x="0px" y="0px" viewBox="0 0 164.1 68" style="enable-background:new 0 0 164.1 68;" xml:space="preserve">
<style type="text/css">
	.st0{fill:#D15527;}
	.st1{fill:#539542;}
</style>
<g>
	<g>
		<g>
			<path class="st0" d="M50.89,58.64c0.25,0.48,1.03,2.06,1.27,2.53l1.27-2.53h1.16v0.61H54.2v2.4h0.39v0.6h-1.48v-0.56     c0.08-0.01,0.4-0.04,0.48-0.04v-1.92c-0.25,0.47-1.04,2.06-1.29,2.52h-0.29l-1.28-2.52v1.92c0.08,0,0.4,0.03,0.48,0.04v0.56     h-1.48v-0.6h0.39v-2.4h-0.39v-0.61H50.89z"></path>
			<path class="st0" d="M58.88,61.65v-0.67h0.6v1.26h-3.98v-0.6h0.39v-2.4h-0.39v-0.61h3.87v1.15h-0.61v-0.54H56.5v0.84h1.42v0.62     H56.5v0.95H58.88z"></path>
			<path class="st0" d="M62.96,59.21v-0.56h1.79v0.61h-0.56l-1.24,1.12l1.43,1.28h0.37v0.6h-1.76v-0.56l0.56-0.04l-1.01-0.92     c-0.21,0.2-0.8,0.72-1.01,0.92l0.56,0.04v0.56h-1.76v-0.6h0.37l1.43-1.28c-0.23-0.21-1.01-0.91-1.24-1.12h-0.56v-0.61h1.77v0.56     l-0.39,0.04l0.82,0.77l0.83-0.77L62.96,59.21z"></path>
			<path class="st0" d="M66.58,61.65h0.43v0.6h-1.48v-0.6h0.43v-2.4h-0.43v-0.61h1.48v0.61h-0.43V61.65z"></path>
			<path class="st0" d="M70.89,58.84c0.01-0.04,0.05-0.15,0.06-0.2h0.54v1.27h-0.57l-0.03-0.37c-0.19-0.23-0.61-0.4-1.13-0.4     c-0.79,0-1.33,0.46-1.33,1.27c0,0.83,0.6,1.33,1.4,1.33c0.59,0,1.12-0.34,1.22-0.94c0.07,0.03,0.45,0.2,0.52,0.22     c-0.11,1-1.01,1.35-1.82,1.35c-1.16,0-1.98-0.83-1.98-1.96c0-1.23,0.88-1.88,2.01-1.88C70.25,58.53,70.62,58.65,70.89,58.84z"></path>
			<path class="st0" d="M74.74,58.59c0.27,0.54,1.24,2.52,1.51,3.06c0.07,0.01,0.14,0.01,0.39,0.01v0.6H75.2l-0.02-0.55     c0.07,0,0.31-0.03,0.39-0.04l-0.33-0.66h-1.67l-0.33,0.66l0.37,0.04c-0.01,0.12-0.01,0.42-0.01,0.55h-1.43v-0.6     c0.24,0,0.31,0,0.39-0.01l1.5-3.06H74.74z M74.97,60.41c-0.18-0.36-0.35-0.73-0.56-1.16l-0.56,1.16H74.97z"></path>
			<path class="st0" d="M81.66,59.25h-0.39v3h-0.62l-2.36-2.66v2.06h0.51v0.6h-1.51v-0.6h0.39v-2.4h-0.39v-0.61h1l2.37,2.69v-2.08     h-0.51v-0.6h1.51V59.25z"></path>
			<path class="st0" d="M87.29,58.84c0.01-0.04,0.05-0.15,0.06-0.2h0.54v1.27h-0.57l-0.03-0.37c-0.19-0.23-0.61-0.4-1.13-0.4     c-0.79,0-1.33,0.46-1.33,1.27c0,0.83,0.6,1.33,1.4,1.33c0.59,0,1.12-0.34,1.22-0.94c0.07,0.03,0.45,0.2,0.52,0.22     c-0.11,1-1.01,1.35-1.82,1.35c-1.16,0-1.98-0.83-1.98-1.96c0-1.23,0.88-1.88,2.01-1.88C86.65,58.53,87.03,58.65,87.29,58.84z"></path>
			<path class="st0" d="M88.8,60.46c0-1.19,0.76-1.95,1.91-1.95c1.16,0,1.93,0.77,1.93,1.91c0,1.19-0.76,1.95-1.91,1.95     C89.57,62.38,88.8,61.6,88.8,60.46z M90.71,59.1c-0.78,0-1.27,0.49-1.27,1.31c0,0.84,0.49,1.38,1.28,1.38     c0.78,0,1.28-0.49,1.28-1.31C92,59.65,91.5,59.1,90.71,59.1z"></path>
			<path class="st0" d="M96.56,58.84c0.01-0.04,0.05-0.15,0.06-0.2h0.54v1.27h-0.57l-0.03-0.37c-0.19-0.23-0.61-0.4-1.13-0.4     c-0.79,0-1.33,0.46-1.33,1.27c0,0.83,0.6,1.33,1.4,1.33c0.59,0,1.12-0.34,1.22-0.94c0.07,0.03,0.45,0.2,0.52,0.22     c-0.11,1-1.01,1.35-1.82,1.35c-1.16,0-1.98-0.83-1.98-1.96c0-1.23,0.88-1.88,2.01-1.88C95.92,58.53,96.3,58.65,96.56,58.84z"></path>
			<path class="st0" d="M99.15,61.65h0.43v0.6H98.1v-0.6h0.43v-2.4H98.1v-0.61h1.48v0.61h-0.43V61.65z"></path>
			<path class="st0" d="M104.85,59.25h-0.39v3h-0.62l-2.36-2.66v2.06h0.51v0.6h-1.51v-0.6h0.39v-2.4h-0.39v-0.61h1l2.37,2.69v-2.08     h-0.51v-0.6h1.51V59.25z"></path>
			<path class="st0" d="M107.86,58.59c0.27,0.54,1.24,2.52,1.51,3.06c0.07,0.01,0.14,0.01,0.39,0.01v0.6h-1.43l-0.02-0.55     c0.07,0,0.31-0.03,0.39-0.04l-0.33-0.66h-1.67l-0.33,0.66l0.37,0.04c-0.01,0.12-0.01,0.42-0.01,0.55h-1.43v-0.6     c0.24,0,0.31,0,0.39-0.01l1.5-3.06H107.86z M108.08,60.41c-0.18-0.36-0.35-0.73-0.56-1.16l-0.56,1.16H108.08z"></path>
		</g>
		<path class="st1" d="M95.69,16.64c-0.97-0.97-2.32-1.58-3.8-1.58c-1.48,0-2.82,0.6-3.8,1.58c-0.97,0.97-1.58,2.32-1.58,3.8V35.9    c0,0.21-0.09,0.4-0.22,0.54l0,0c-0.14,0.14-0.33,0.22-0.54,0.22c-0.21,0-0.4-0.09-0.54-0.22v0c-0.14-0.14-0.23-0.33-0.23-0.54    V5.76c0-1.48-0.6-2.82-1.58-3.8h0c-0.97-0.97-2.32-1.58-3.79-1.58c-1.48,0-2.82,0.6-3.8,1.58c-0.97,0.97-1.58,2.32-1.58,3.8v27.67    c0,0.21-0.09,0.4-0.23,0.54v0c-0.14,0.14-0.33,0.22-0.54,0.22c-0.21,0-0.4-0.09-0.54-0.22l0,0c-0.14-0.14-0.22-0.33-0.22-0.54    v-7.6c0-1.48-0.6-2.82-1.58-3.8c-0.97-0.97-2.32-1.58-3.8-1.58c-1.48,0-2.82,0.6-3.8,1.58c-0.97,0.97-1.58,2.32-1.58,3.8v6.89    c0,3.17,1.3,6.05,3.38,8.13c2.09,2.09,4.97,3.38,8.13,3.38c0.26,0,0.51-0.01,0.77-0.03v4.05c0,1.48,0.6,2.82,1.58,3.8    c0.97,0.97,2.32,1.58,3.8,1.58c1.48,0,2.82-0.6,3.8-1.58c0.97-0.97,1.58-2.32,1.58-3.8v-0.88c0.25,0.02,0.51,0.03,0.77,0.03    c3.17,0,6.05-1.3,8.13-3.38c2.09-2.09,3.38-4.97,3.38-8.13V20.43C97.26,18.95,96.66,17.61,95.69,16.64z M76.9,3.05    c0.7-0.7,1.66-1.13,2.71-1.13c1.05,0,2.01,0.43,2.71,1.13l0,0c0.7,0.7,1.13,1.66,1.13,2.71v26.97c0,1.71-0.44,3.31-1.2,4.72    c-0.21-0.48-0.34-1-0.34-1.56v-3.17c0,0,0,0,0,0v0V5.76c0-0.63-0.26-1.21-0.68-1.62l0,0c-0.42-0.42-0.99-0.68-1.63-0.68    c-0.63,0-1.21,0.26-1.63,0.68l0,0c-0.42,0.42-0.68,0.99-0.68,1.63v26.97c0,1.05-0.43,2.01-1.13,2.71l0,0    c-0.13,0.13-0.27,0.24-0.41,0.35v-2.35c0,0,0,0,0,0l0,0V5.76C75.77,4.71,76.2,3.75,76.9,3.05z M92.66,35.9    c0,1.9-0.78,3.63-2.03,4.88c-1.25,1.25-2.98,2.03-4.88,2.03c-1.7,0-3.26-0.62-4.46-1.65c0.11-0.1,0.21-0.2,0.31-0.3    c0.26-0.26,0.51-0.53,0.74-0.82c0.93,0.77,2.12,1.23,3.41,1.23c1.48,0,2.82-0.6,3.8-1.58c0.97-0.97,1.58-2.32,1.58-3.8V20.43    c0-0.21,0.09-0.4,0.23-0.54v0c0.14-0.14,0.33-0.22,0.54-0.22c0.21,0,0.4,0.09,0.54,0.23c0.14,0.14,0.23,0.33,0.23,0.54V35.9z     M78.84,48.26v-3.17c0.48,0.36,1,0.69,1.54,0.98v2.19c0,0.21-0.09,0.4-0.23,0.54c-0.14,0.14-0.33,0.23-0.54,0.23    c-0.21,0-0.4-0.09-0.54-0.22v0C78.93,48.67,78.84,48.47,78.84,48.26z M77.69,41.76c-0.3-0.42-0.58-0.86-0.81-1.32    c0.47-0.21,0.92-0.46,1.34-0.75c0.23,0.46,0.51,0.89,0.82,1.3C78.61,41.28,78.16,41.54,77.69,41.76z M68.09,25.83v6.89    c0,1.48,0.6,2.82,1.58,3.8c0.97,0.97,2.32,1.58,3.8,1.58c0.33,0,0.65-0.03,0.97-0.09c0.1,0.51,0.22,1.01,0.39,1.49    c-0.44,0.09-0.89,0.14-1.35,0.14c-1.9,0-3.63-0.78-4.88-2.03c-1.25-1.25-2.03-2.98-2.03-4.88v-6.89c0-0.21,0.09-0.4,0.23-0.54    c0.14-0.14,0.33-0.23,0.54-0.23c0.21,0,0.4,0.09,0.54,0.22v0C68.01,25.43,68.09,25.62,68.09,25.83z M75.9,37.5    c0.5-0.26,0.96-0.59,1.36-0.98h0c0.02-0.02,0.04-0.05,0.06-0.07c0.04,0.61,0.15,1.2,0.31,1.77c-0.42,0.32-0.87,0.59-1.36,0.81    C76.12,38.53,75.99,38.03,75.9,37.5z M80.38,32.72c0,1.58-0.54,3.04-1.45,4.21c-0.05-0.34-0.09-0.68-0.09-1.04V5.76    c0-0.21,0.09-0.4,0.23-0.54v0c0.14-0.14,0.33-0.22,0.54-0.22c0.21,0,0.4,0.09,0.54,0.23h0c0.14,0.14,0.22,0.33,0.22,0.54V32.72z     M79.44,38.68c0.42-0.42,0.8-0.89,1.13-1.4c0.16,0.58,0.4,1.12,0.73,1.61c-0.24,0.31-0.5,0.6-0.78,0.88    c-0.09,0.09-0.18,0.18-0.28,0.26C79.92,39.62,79.65,39.17,79.44,38.68z M66.42,39.77c-1.81-1.81-2.93-4.3-2.93-7.05v-6.89    c0-1.05,0.43-2.01,1.13-2.71c0.7-0.7,1.66-1.13,2.71-1.13c1.05,0,2.01,0.43,2.71,1.13c0.7,0.7,1.13,1.66,1.13,2.71v7.6    c0,0.63,0.26,1.21,0.68,1.62l0,0c0.42,0.42,0.99,0.68,1.62,0.68c0.27,0,0.53-0.05,0.77-0.14v0.3c0,0.2,0.01,0.39,0.02,0.59    c-0.25,0.05-0.51,0.08-0.78,0.08c-1.05,0-2.01-0.43-2.71-1.13c-0.7-0.7-1.13-1.66-1.13-2.71v-6.89c0-0.63-0.26-1.21-0.68-1.63l0,0    c-0.42-0.42-0.99-0.68-1.63-0.68c-0.63,0-1.21,0.26-1.63,0.68c-0.42,0.42-0.68,0.99-0.68,1.63v6.89c0,2.32,0.95,4.43,2.48,5.96    c1.53,1.53,3.64,2.48,5.96,2.48c0.67,0,1.32-0.08,1.94-0.23c0.23,0.48,0.5,0.94,0.8,1.38c-0.87,0.25-1.79,0.39-2.74,0.39    C70.73,42.7,68.23,41.58,66.42,39.77z M83.45,48.26c0,1.05-0.43,2.01-1.13,2.71c-0.7,0.7-1.66,1.13-2.71,1.13    c-1.05,0-2.01-0.43-2.71-1.13c-0.7-0.7-1.13-1.66-1.13-2.71v-4.26c0.49-0.1,0.98-0.24,1.45-0.4c0.03,0.03,0.06,0.06,0.09,0.1v4.56    c0,0.63,0.26,1.21,0.68,1.63l0,0c0.42,0.42,0.99,0.68,1.63,0.68c0.63,0,1.21-0.26,1.63-0.68c0.42-0.42,0.68-0.99,0.68-1.63v-1.52    c0.5,0.18,1.01,0.32,1.54,0.43V48.26z M92.8,42.94c-1.81,1.81-4.3,2.93-7.05,2.93c-2.73,0-5.22-1.12-7.03-2.92    c0.47-0.24,0.93-0.52,1.36-0.82c1.5,1.37,3.5,2.2,5.67,2.2c2.32,0,4.43-0.95,5.96-2.48c1.53-1.53,2.48-3.64,2.48-5.96V20.43    c0-0.63-0.26-1.21-0.68-1.63c-0.42-0.42-0.99-0.68-1.63-0.68c-0.63,0-1.21,0.26-1.63,0.68l0,0c-0.42,0.42-0.68,0.99-0.68,1.63    V35.9c0,1.05-0.43,2.01-1.13,2.71c-0.7,0.7-1.66,1.13-2.71,1.13c-0.96,0-1.83-0.36-2.51-0.94c0.28-0.45,0.53-0.92,0.75-1.41    c0.04,0.05,0.09,0.1,0.13,0.14l0,0c0.42,0.42,0.99,0.68,1.63,0.68c0.63,0,1.21-0.26,1.62-0.68l0,0c0.42-0.42,0.68-0.99,0.68-1.62    V20.43c0-1.05,0.43-2.01,1.13-2.71c0.7-0.7,1.66-1.13,2.71-1.13c1.05,0,2.01,0.43,2.71,1.13c0.7,0.7,1.13,1.66,1.13,2.71V35.9    C95.73,38.64,94.61,41.13,92.8,42.94z"></path>
		<g>
			<g>
				<path class="st0" d="M104.29,42.77c0.52-0.57,0.86-1.44,0.86-3.54V26.76c0-2.1-0.37-2.96-0.86-3.54v-0.29h8.74      c2.7,0,3.79,1.12,3.79,3.79v4.66c0,2.67-1.09,3.79-3.79,3.79h-3.56v4.05c0,2.1,0.37,2.96,0.89,3.54v0.29h-6.06V42.77z       M112.51,28c0-1.18-0.46-1.61-1.61-1.61h-1.44v5.35h1.44c1.15,0,1.61-0.43,1.61-1.61V28z"></path>
				<path class="st0" d="M132.37,43.06h-5.2l-2.82-8.16h-0.83v4.34c0,2.1,0.37,2.96,0.89,3.54v0.29h-6.06v-0.29      c0.52-0.57,0.86-1.44,0.86-3.54V26.76c0-2.1-0.37-2.96-0.86-3.54v-0.29h8.88c2.7,0,3.79,1.12,3.79,3.79v4.37      c0,2.16-0.72,3.31-2.39,3.68l1.61,4.46c0.75,2.1,1.41,2.96,2.13,3.54V43.06z M126.71,28c0-1.18-0.46-1.61-1.61-1.61h-1.58v5.06      h1.58c1.15,0,1.61-0.43,1.61-1.61V28z"></path>
				<path class="st0" d="M137.29,22.94h4.66c2.7,0,3.79,1.12,3.79,3.79v12.53c0,2.67-1.09,3.79-3.79,3.79h-4.66      c-2.7,0-3.79-1.12-3.79-3.79V26.74C133.49,24.06,134.59,22.94,137.29,22.94z M141.43,27.94c0-1.15-0.43-1.55-1.55-1.55h-0.52      c-1.12,0-1.55,0.4-1.55,1.55v10.12c0,1.15,0.43,1.55,1.55,1.55h0.52c1.12,0,1.55-0.4,1.55-1.55V27.94z"></path>
				<path class="st0" d="M158.21,28.43h-0.29c-0.86-1.21-2.18-2.04-3.79-2.04h-0.46c-1.06,0-1.49,0.4-1.49,1.49v1.18      c0,0.86,0.2,1.26,1.01,1.72l3.28,1.84c1.87,1.03,2.24,1.95,2.24,3.97v2.67c0,2.67-1.09,3.79-3.79,3.79h-7.04v-5.49h0.29      c0.86,1.21,2.18,2.04,3.79,2.04h0.95c1.03,0,1.47-0.4,1.49-1.47v-0.72c0-0.86-0.2-1.26-1.01-1.72l-3.28-1.84      c-1.87-1.03-2.24-1.95-2.24-3.97v-3.16c0-2.67,1.09-3.79,3.79-3.79h6.55V28.43z"></path>
			</g>
		</g>
		<g>
			<g>
				<path class="st0" d="M0.88,22.94h13.11v5.49H13.7c-0.95-1.38-2.44-2.04-4.05-2.04H9.59v12.85c0,2.1,0.37,2.96,0.89,3.54v0.29      H4.41v-0.29c0.52-0.57,0.86-1.44,0.86-3.54V26.39H5.22c-1.61,0-3.1,0.66-4.05,2.04H0.88V22.94z"></path>
				<path class="st0" d="M18.55,43.06h-5.75v-0.29c0.6-0.57,1.12-1.44,1.58-3.54l2.7-12.47c0.46-2.1,0.26-2.96-0.17-3.54v-0.29h7.36      v0.29c-0.43,0.57-0.63,1.44-0.17,3.54l2.7,12.47c0.46,2.1,0.98,2.96,1.58,3.54v0.29h-6.09v-0.29c0.4-0.55,0.58-1.41,0.2-3.42      h-4.14c-0.37,2.01-0.23,2.87,0.2,3.42V43.06z M18.93,36.05h2.99l-1.49-8.11L18.93,36.05z"></path>
				<path class="st0" d="M32.98,22.94h6.93v5.49h-0.29c-0.95-1.38-2.44-2.04-4.05-2.04h-0.34c-1.24,0-1.72,0.46-1.72,1.72v9.77      c0,1.26,0.49,1.72,1.72,1.72h0.34c1.61,0,3.1-0.66,4.05-2.04h0.29v5.49h-6.93c-2.7,0-3.79-1.12-3.79-3.79V26.74      C29.19,24.06,30.28,22.94,32.98,22.94z"></path>
				<path class="st0" d="M45.83,22.94h4.66c2.7,0,3.79,1.12,3.79,3.79v12.53c0,2.67-1.09,3.79-3.79,3.79h-4.66      c-2.7,0-3.79-1.12-3.79-3.79V26.74C42.04,24.06,43.13,22.94,45.83,22.94z M49.97,27.94c0-1.15-0.43-1.55-1.55-1.55H47.9      c-1.12,0-1.55,0.4-1.55,1.55v10.12c0,1.15,0.43,1.55,1.55,1.55h0.52c1.12,0,1.55-0.4,1.55-1.55V27.94z"></path>
			</g>
		</g>
		<rect x="74.24" y="66.87" class="st1" width="10.75" height="0.75"></rect>
		<g>
			<g>
				<path class="st0" d="M66.82,16.78c0.21,0.32,0.38,0.66,0.51,1.01c0.13-0.35,0.3-0.69,0.51-1c0.21-0.27,0.44-0.52,0.7-0.74      c-0.02-0.55-0.13-1.09-0.34-1.59c-0.21-0.5-0.5-0.95-0.86-1.35c-0.74,0.81-1.17,1.85-1.21,2.94      C66.38,16.27,66.61,16.52,66.82,16.78z"></path>
				<path class="st0" d="M64.69,15.67c-0.95-0.47-2.04-0.58-3.06-0.32c0.42,0.97,1.16,1.76,2.12,2.24c0.93,0.46,1.99,0.58,2.99,0.34      c-0.13-0.34-0.29-0.66-0.49-0.96C65.85,16.42,65.31,15.97,64.69,15.67z"></path>
				<path class="st0" d="M70.91,17.58c0.95-0.47,1.7-1.26,2.12-2.24c-1.03-0.26-2.11-0.15-3.06,0.32c-0.61,0.3-1.15,0.75-1.57,1.29      c-0.19,0.29-0.36,0.62-0.48,0.96C68.92,18.16,69.98,18.04,70.91,17.58z"></path>
				<path class="st0" d="M66.03,18.7c-0.26,0-0.51-0.03-0.76-0.07c0.53,0.53,1.25,0.86,2.06,0.86c0.81,0,1.54-0.33,2.06-0.86      c-0.25,0.04-0.51,0.07-0.76,0.07c-0.42,0-0.85-0.06-1.26-0.17l-0.03-0.01l-0.03,0.01C66.88,18.64,66.45,18.7,66.03,18.7z"></path>
			</g>
			<path class="st0" d="M69.85,15.08c0.16-0.08,0.31-0.14,0.48-0.2c0.15-0.48,0.17-0.98,0.05-1.47c-0.63,0.15-1.2,0.41-1.67,0.77     c0.18,0.46,0.28,0.94,0.31,1.43C69.28,15.41,69.56,15.23,69.85,15.08z"></path>
			<path class="st0" d="M65.72,15.62c0.02-0.4,0.1-0.79,0.22-1.17c-0.52-0.49-1.2-0.86-1.97-1.04c-0.11,0.45-0.1,0.9,0.01,1.33     c0.31,0.08,0.62,0.19,0.91,0.34C65.18,15.23,65.46,15.41,65.72,15.62z"></path>
		</g>
	</g>
	<g>
		<g>
			<g>
				<path class="st0" d="M160.36,24.95c-0.49,0-0.89-0.4-0.89-0.89c0-0.49,0.4-0.89,0.89-0.89c0.49,0,0.89,0.4,0.89,0.89      C161.25,24.55,160.85,24.95,160.36,24.95z M160.36,22.94c-0.61,0-1.11,0.5-1.11,1.11s0.5,1.11,1.11,1.11      c0.61,0,1.11-0.5,1.11-1.11S160.98,22.94,160.36,22.94z"></path>
				<path class="st0" d="M160.4,24.14h-0.25v-0.52h0.25C160.79,23.62,160.79,24.14,160.4,24.14z M160.37,23.48h-0.41v1.16h0.19      v-0.34h0.31l0.2,0.34h0.2l-0.22-0.4C160.97,24.08,160.97,23.48,160.37,23.48z"></path>
			</g>
		</g>
	</g>
</g>
</svg>
