<svg xmlns="http://www.w3.org/2000/svg" xmlns:xlink="http://www.w3.org/1999/xlink" version="1.0" width="900" height="280" id="Layer_1" x="0px" y="0px" viewBox="178 110.7 1315.5 340.3" style="enable-background:new 178 110.7 1315.5 340.3;" xml:space="preserve">
<style type="text/css">
	.st0{fill: #BF856F;}
</style>
<path id="XMLID_11423_" class="st0" d="M1407.7,309c-10.6-2.6-22.6-14.3-36.3-16.9c-10.8-2-17.3,0.1-28.3-1.1  c-11.7-1.3-23-4.4-33.2-10.3c-8.6-5-16.4-11.4-24.6-17c-7.9-5.4-16.4-10.4-25.7-12.7c-10.7-2.7-21.7-1.7-32.4,0.3  c-11.7,2.1-23.2,5.6-35.2,6.1c-10.7,0.4-21.3-1.4-31.4-5c-43.1-15.3-68.6-56.1-92.3-92.5c-6.3-9.7-12.7-19.3-19.5-28.6  c-5.5-7.4-11.3-17.3-20.8-19.8c-20.7-5.4-35.8,22.1-45.6,35.4c-7.4,10.1-14.4,20.6-22.3,30.2c-3,3.6-6.5,7.6-11,9.3  c-5.4,2.1-9.8-1-14.1-4c-7.8-5.3-15.9-7.5-24.9-3.4c-9.5,4.4-16,13.1-22.3,21c-25.7,32.4-55.8,72.9-102,71.4  c-10.5-0.3-20.5-3.5-29.1-9.5c-8.4-5.8-15.3-13.6-23.3-20c-8.1-6.6-16.9-11.5-27.2-13.4c-10.8-2-21.8-1.3-32.7-0.8  c-11,0.6-21.9,0.8-32.6-1.8c-9.7-2.3-18.7-6.3-27.2-11.5c-17.7-10.8-32.2-26.1-45.3-42c-12.2-14.9-22.3-32.4-38.1-43.8  c-14.1-10.1-32-11.7-47.1-3c-14.9,8.5-25.1,23.7-34.3,37.8c-11.4,17.4-23,33.8-38.1,48.3c-31.3,29.9-69.9,52.5-107.4,73.7  c-20.1,11.4-41.4,20.9-64.7,23.5c-4.9,0.5-6.9,5.4-8.4,6.4c-118.3,85.8-0.7,120.8,13,128.7c19.2,10.9,45.2,6.2,66.2,4.9  c24.3-1.5,48.7-3.7,72.5-9c23.7-5.3,45.7-15.4,69-21.8c49.4-13.7,97.3,6.9,145.3,16.7c48.6,9.9,98.6,13.2,148.1,9.8  c24.5-1.7,48.7-5.2,72.8-9.9c25.2-4.9,50.3-10.8,75.8-13.1c49-4.3,96.8,8.6,145.2,13.1c24.2,2.2,48.2,1.6,72.1-2.7  c25.4-4.5,50.2-11,76-13.5c50-4.8,100.2-0.4,150.3-1.3c24.3-0.5,48.8,9.3,72.6,4.3c7.3-1.5,157.4-26,38.5-95.5  C1440.8,321.9,1414.7,310.7,1407.7,309z"/>
</svg>