<svg xmlns="http://www.w3.org/2000/svg" xmlns:xlink="http://www.w3.org/1999/xlink" version="1.0" id="Layer_1" x="0px"
	y="0px" viewBox="537 102.3 2034.3 356.7" style="enable-background:new 537 102.3 2034.3 356.7;" xml:space="preserve">
	<style type="text/css">
		.st0 {
			fill: #625860;
		}
	</style>
	<path id="XMLID_3172_" class="st0"
		d="M1809.9,375.2c8.2,9.8,22.4,11.5,34.3,12.9c68.5,7.7,137.7,7.3,206,17.3  c33.4,4.9,66.4,12.4,98,24.5c31.3,11.9,61.1,29.4,95.6,29c31.3-0.4,60.5-13.1,88.6-25.5c14.5-6.4,28.9-12.9,43.9-18.1  c16.4-5.6,33.3-9.2,50.5-11.2c35.3-4,70.9-2.6,106.2-6.6c12.4-1.4,30.4-2.4,36.7-15.4c2.9-5.9,1.8-14.1-2.4-19  c4.8-1.9,2.5-9.7-2.7-8.2c-13.9,4.2-28.2,0.3-40.1-7.5c-13.2-8.6-22.3-21.8-29.3-35.7c-7-14-11.2-29.3-18.5-43.1  c-3-5.7-7.3-10.9-13.5-13.2c-5.8-2.1-11.9-0.8-17.3,1.8c-11.4,5.6-21.1,17.3-34.7,9.7c-13.4-7.6-21.1-23.7-28.7-36.3  c-9.3-15.3-18.2-30.9-26.7-46.6c-8.5-15.6-16.4-31.5-24.4-47.3c-6.1-12-14.5-24.6-28.7-27.3c-13.5-2.6-26.5,3.9-36.1,12.9  c-10.7,9.9-16.4,22.9-21.8,36.2c-5.5,13.5-11.2,29.1-23.1,38.5c-10.6,8.4-21.1,3.4-30.4-4c-8.5-6.8-16.5-15-27.1-18.5  c-12.5-4.2-24.5,1.4-33.1,10.6c-10.4,11.1-17.5,25.2-26.4,37.4c-9.7,13.5-20.7,26.3-33.7,36.6c-12.4,9.8-27,17.2-42.6,20.2  c-16.5,3.2-33.7-2.9-49.9,2.1c-13.8,4.2-23.3,15.6-33.1,25.5c-10.7,10.9-23.2,19.6-37.3,25.4c-14.1,5.8-29.3,8.8-44.5,8.6  c-15.2-0.2-32.4-5.9-46.3,2.9C1806.2,350.5,1801.1,364.6,1809.9,375.2z M1191.3,313.7c-44.3-44.4-111.6-36.1-168.6-40.4  c-28-2.1-56.7-8.2-80-24.6c-5.4-3.8-10.4-8.2-14.9-13.2c-4.8-5.4-8.5-11.5-12.5-17.4c-7.3-10.8-18.2-21.8-32.5-19.7  c-11.5,1.7-16.5,12.3-22.7,20.7c-2.7,3.7-6.4,7.6-11.4,6.9c-6.6-0.9-11.6-7.8-15.6-12.5c-20.6-24.2-39.4-50-56.1-77  c-4.2-6.7-8.2-13.5-12.1-20.4c-3.1-5.4-6.5-11.3-12.8-13.1c-13.2-3.8-20.5,11.7-24.5,21.4c-12.8,30.8-26.6,61.2-41.6,91  c-13.6,26.9-29,53.5-50.6,74.8c-18.6,18.4-44.7,33.2-71.6,31.6c-6.5-0.4-13-2-19.1-4.6c-5.1-2.2-9.5,5.3-4.4,7.5  c0.3,0.1,0.5,0.2,0.8,0.3c-3.8,3.9-4.8,9.7-3.2,15.4c2.1,7.8,9,13.6,16.2,16.6c17,7.1,36.5,2.3,54.3,4.5  c22.3,2.8,43.1,12.3,63.9,20.3c21.8,8.3,44,14.1,67.4,15.1c24.1,1,47.2-4,70.7-8.8c12.2-2.5,24.4-4.2,36.8-4.7  c12.2-0.5,24.5-0.1,36.7,0c49.7,0.3,98.1-13,146.4-23.4c27.6-5.9,55.3-11.8,82.9-17.7c26.3-5.6,52.7-10.8,77.5-21.6  C1193.1,319.3,1193.1,315.5,1191.3,313.7z" />
</svg>