<svg xmlns="http://www.w3.org/2000/svg" xmlns:xlink="http://www.w3.org/1999/xlink" version="1.0" id="Layer_1" x="0px" y="0px" viewBox="527 159.5 2014.5 242.5" style="enable-background:new 527 159.5 2014.5 242.5;" xml:space="preserve">
<style type="text/css">
	.st0{fill:#A55833;}
</style>
<path id="XMLID_3442_" class="st0" d="M2537,351.8c-12.2-17.2-38.3-15.2-56.8-17.5c-20.5-2.6-91.8-52.9-111.4-55.6  c-19.4-2.6-38.2,2.4-57.1,6c-18.6,3.5-36.5,3.5-53.8-4.9c-15.7-7.6-29.4-18.7-44.2-27.9c-16.3-10.1-34.3-16.6-52.7-21.4  c-18.6-4.9-38.3-11.7-56.5-2.2c-8.4,4.4-16,10.1-24.4,14.5c-8.6,4.4-17.5,7.9-26.8,10.5c-18.1,5.2-37.1,7-55.8,5.2  c-18.9-1.8-37.8-6.8-55.8,2.2c-13.8,6.9-24.5,20.8-40.1,23.9c-16.3,3.2-32.4-5.3-48.8-3.4c-17.2,2.1-25.8,15.8-29.5,31.4  c-1.9,7.9-4.3,17.3,1.1,24.4c5.1,6.6,14.7,8.9,22.3,11.3c19.3,6.1,39.4,9.5,59.6,10.3c41.5,1.5,81.1-11.5,122.2-14.4  c40.2-2.9,79.2,7.5,118.3,14.8c18.8,3.5,37.8,6.4,56.9,6.7c9.6,0.1,19.1-0.4,28.6-1.8c8.1-1.2,16.1-3.3,24.3-4c4.5-0.3,8.9-0.3,13,1  c-7.2,2.5-14.4,5.1-21.6,7.6c-5,1.8-10.1,3.6-15.1,5.3c-4.3,1.5-9,2.8-12.9,5.3c-5.4,3.5-10.9,10.1-7.2,16.8  c4.4,8,16.4,5.8,23.9,5.8c44.6-0.4,89.1-1,133.7-1.8c11-0.2,22-0.3,32.9-0.7c9.3-0.3,19-1.2,27.8-4.4c8.2-3.1,15.2-8.1,22.4-13  c6.9-4.7,14.5-9.5,23.2-8.9c9.3,0.6,17.6,6.4,25.9,9.9c7,2.9,14.7,4.5,22.2,3C2541,382.6,2546.1,364.8,2537,351.8z M1285.6,349.2  c-1.5-5.6-6.7-10.4-10.4-14.6c-17.3-19.6-37.9-36.3-60.6-49.3c-11.2-6.4-22.9-11.9-35-16.5c-12.6-4.7-25.7-7.5-38.3-12.1  c-13.7-5-23.2-14.3-32.5-25.2c-10.2-12-20.4-24-30.7-36.1c-5.1-6-10.2-12.1-15.4-18.1c-4.3-5-8.7-10-14.4-13.4  c-10.9-6.4-23.7-5.2-34.9-0.6c-12.8,5.3-23.6,14.1-34.2,22.8c-11.6,9.5-23.1,19.1-34.9,28.3c-10.6,8.3-22.1,16.4-35,20.9  c-13,4.5-26.4,4.2-39.8,1.8c-25.2-4.5-51.5-15-77.1-6.7c-20.9,6.8-36,23.5-52.6,37c-8.3,6.8-17.5,13-28,15.8  c-13.7,3.7-27.7,0.5-41.2-2.8c-13.8-3.3-27.6-6.4-42-5.4c-14.2,1-27.9,4.8-41.4,8.8c-13.6,4-27.1,8.3-41.1,10.3  c-2.8,0.4-3.8,2.5-3.5,4.6c-7.6,1.3-14.1,7.8-13.6,16.3c0,0.8,0.2,1.5,0.6,2.1c-4.1,9.4-3.8,20.7,2.6,29.3  c14.9,20.1,44.1,13.4,65.3,12.4c16-0.8,32.1-0.1,47.9,2.2c15.1,2.2,29.7,6.5,44.6,9.6c15,3.1,29.6,3.8,44.8,1.8  c15.7-2.1,31.1-5.6,46.9-7.2c31.5-3.1,63.5-1.5,94.8,3.4c31,4.8,61.3,11.5,92.9,10.8c63.1-1.5,125.2-18.4,188.5-13.4  c15.6,1.2,30.8,4.5,46,7.9c13.7,3.1,27.9,5.8,42.1,4.3c12.3-1.3,24.7-5.4,33.8-14C1283.9,360.3,1287.1,354.9,1285.6,349.2z"/>
</svg>