<svg xmlns="http://www.w3.org/2000/svg" xmlns:xlink="http://www.w3.org/1999/xlink" version="1.0" id="Layer_1" x="0px" y="0px" viewBox="-137 181.6 683.4 198.4" width="300" style="enable-background:new -137 181.6 683.4 198.4;" xml:space="preserve" height="100">
<style type="text/css">
	.st0{fill:#CCAC8B;}
</style>
<path id="XMLID_11422_" class="st0" d="M393.5,345.7c49.6,0.4,99.2,1.1,148.8,0.3c1.3,0,2.7-0.1,4-0.1c-2.6-23.7-24.6-42-45.6-50  c-7.5-2.8-15.1-4.9-22.9-6.7c-14.3,1.7-28.7,1.2-42.8-2.2c-19.8-4.7-36-15.6-51.7-28.2c-14.6-11.8-29-24.2-46.6-31.4  c-41.3-16.7-84.2,5.5-126.3,4.9c-18.7-0.3-37.6-5-50.6-19.2c-10.6-11.6-18.9-28.6-36-31.2c-18.9-2.9-37.3,14.5-50.4,25.9  c-15.9,13.8-30,29.5-44.2,45C0.9,283.9-29,315.7-70,329.6c-19,6.4-39,8-58.4,2.5c-2.3-0.7-4.2,0.3-5.2,1.9c-1.7,0.6-3.2,2-3.4,4.3  c-1.5,16.4,14,25.9,27.5,30.3c9.7,3.1,20,4.1,30,5.5c11.9,1.6,23.9,2.9,35.9,3.9c48,3.8,96.4,2.1,144-4.8  c49.1-7.1,97.3-18.5,146.8-23C295.9,345.7,344.8,345.3,393.5,345.7z"/>
</svg>