<?xml version="1.0" encoding="utf-8"?>
<!-- Generator: Adobe Illustrator 19.0.0, SVG Export Plug-In . SVG Version: 6.00 Build 0)  -->
<svg version="1.0" id="Layer_1" xmlns="http://www.w3.org/2000/svg" xmlns:xlink="http://www.w3.org/1999/xlink" x="0px" y="0px"
	 viewBox="0 0 90 90" style="enable-background:new 0 0 90 90;" xml:space="preserve">
<style type="text/css">
	.st0{fill:#D15527;}
	.st1{fill:#539442;}
</style>
<g>
	<g>
		<path class="st0" d="M32.8,30.5c-1.8,0.9-3.8,0.3-3.8,0.3s0.9-1.9,2.6-2.7c1.8-0.9,3.8-0.3,3.8-0.3S34.6,29.6,32.8,30.5"/>
		<path class="st0" d="M23.7,30.5c1.8,0.9,3.8,0.3,3.8,0.3s-0.9-1.9-2.6-2.7c-1.8-0.9-3.8-0.3-3.8-0.3S21.9,29.6,23.7,30.5"/>
		<path class="st0" d="M26.8,27.7c0,1.6,1.5,2.8,1.5,2.8s1.5-1.3,1.5-2.8c0-1.6-1.5-2.8-1.5-2.8S26.8,26.2,26.8,27.7"/>
		<path class="st0" d="M26.5,28.9c-0.2-0.3-0.7-0.8-1.5-1.2c-0.5-0.2-0.9-0.3-1.3-0.4v-2.4c0.4,0.1,0.9,0.3,1.4,0.6
			c0.6,0.3,1,0.6,1.4,0.9c-0.1,0.2-0.1,0.5-0.1,0.8C26.4,27.9,26.4,28.4,26.5,28.9"/>
		<path class="st0" d="M30.2,28.9c0.2-0.3,0.7-0.8,1.5-1.2c0.5-0.2,0.9-0.3,1.3-0.4v-2.4c-0.4,0.1-0.9,0.3-1.4,0.6
			c-0.6,0.3-1,0.6-1.4,0.9c0.1,0.2,0.1,0.5,0.1,0.8C30.3,27.9,30.2,28.4,30.2,28.9"/>
		<path class="st0" d="M28.3,30.9c0,0-0.3,0.4-2.9,0.6c0,0,2.7,2.3,5.5,0C31,31.5,28.8,31.3,28.3,30.9"/>
		<path class="st1" d="M44.9,82.6c-3.9,0-7.1-3.2-7.1-7.1v-61c0-3.9,3.2-7.1,7.1-7.1s7.1,3.2,7.1,7.1v61
			C52.1,79.4,48.9,82.6,44.9,82.6 M44.9,9.4c-2.8,0-5.1,2.3-5.1,5.1v61c0,2.8,2.3,5.1,5.1,5.1c2.8,0,5.1-2.3,5.1-5.1v-61
			C50,11.7,47.7,9.4,44.9,9.4"/>
		<path class="st1" d="M44.9,78.6c-1.7,0-3-1.4-3-3V14.4c0-1.7,1.4-3,3-3c1.7,0,3,1.4,3,3v61.2C47.9,77.3,46.6,78.6,44.9,78.6
			 M44.9,13.5c-0.5,0-0.9,0.4-0.9,0.9v61.2c0,0.5,0.4,0.9,0.9,0.9c0.5,0,0.9-0.4,0.9-0.9V14.4C45.9,13.9,45.4,13.5,44.9,13.5"/>
		<path class="st1" d="M53.3,69.5c-1,0-1.8-0.1-2.3-0.3c-0.6-0.2-0.8-0.5-0.9-0.8c-0.1-0.2-0.2-0.5-0.2-1.2c0-0.3,0-0.6,0-0.9l0-0.1
			l0-5.8c0-0.3,0-0.4,0-0.6l0-0.2c0-0.5,0-1,0-1.3c0-0.9,0-1.5,0.2-2c0.5-1,1.5-1.1,2.3-1.2c0.6-0.1,1-0.1,1.4-0.4
			c0.7-0.6,0.7-2,0.7-3.6l0-0.5c0-0.4,0-1,0-1.7c0-3.3,0-5.2-0.1-6.6c0-1.6,0-2.6,0-4.1c0.2-4.9,0.3-7.6,2.2-9.4
			c1.2-1.2,2.9-1.9,5-2l0.1,0c3.9,0,7.1,3.2,7.1,7.1V55l0,0.1c-0.3,2.5-1.6,8.8-6.8,12.1h0C59.2,68.9,55.7,69.5,53.3,69.5
			 M50.1,68.3C50.2,68.3,50.2,68.4,50.1,68.3C50.2,68.4,50.2,68.3,50.1,68.3 M52.1,67.4c1.2,0.2,5.5,0.2,8.9-2
			c4.4-2.8,5.6-8.2,5.9-10.5V33.9c0-2.8-2.3-5-5-5.1c-1.6,0.1-2.8,0.6-3.7,1.4c-1.2,1.2-1.4,3.3-1.5,8c-0.1,1.4,0,2.4,0,4
			c0,1.4,0.1,3.4,0.1,6.7c0,0.7,0,1.3,0,1.7l0,0.4c0,2,0,4-1.4,5.2c-0.8,0.7-1.8,0.8-2.5,0.9c-0.2,0-0.5,0-0.7,0.1c0,0.2,0,0.6,0,1
			c0,0.4,0,0.8,0,1.4l0,0.2c0,0.1,0,0.3,0,0.5l0,5.8C52.1,66.7,52.1,67,52.1,67.4"/>
		<path class="st1" d="M52.4,65.6c-0.5,0-1,0-1.4-0.1L50,65.4l0-3c0-0.3,0-0.7,0-1c0-0.5,0.1-0.9,0.3-1.2c0.4-0.9,1.5-0.9,2.4-1
			c0.4,0,0.8,0,1.1-0.1c1.6-0.2,2.5-1,2.9-1.3c1.4-1.1,2.1-3.2,2.1-4.6V33.8c0-1.7,1.4-3,3-3c1.7,0,3,1.4,3,3v19.5
			c0,1,0,2.1-0.3,3.1c-0.2,0.8-0.9,3.4-2.9,5.6c-2.2,2.4-4.8,3-6,3.3c-1.2,0.3-2.3,0.4-2.4,0.4C52.9,65.6,52.6,65.6,52.4,65.6
			 M52.1,63.5c0.3,0,0.7,0,1,0c0,0,1-0.1,2-0.3c1.1-0.3,3.2-0.8,5-2.7c1.7-1.9,2.3-4.1,2.4-4.6c0.2-0.8,0.3-1.7,0.2-2.5l0,0V33.8
			c0-0.5-0.4-0.9-0.9-0.9c-0.5,0-0.9,0.4-0.9,0.9v19.5c0,1.9-0.9,4.6-2.8,6.2c-0.7,0.6-1.9,1.4-3.9,1.7c-0.5,0.1-0.9,0.1-1.4,0.1
			c-0.2,0-0.5,0-0.7,0c0,0.4,0,0.8,0,1.1V63.5z M50.2,60.4C50.2,60.4,50.2,60.4,50.2,60.4C50.2,60.4,50.2,60.4,50.2,60.4"/>
		<path class="st1" d="M36.7,65.3c-2.2,0-5.2-0.5-8.1-2.3c-2.7-1.7-4.8-4.2-6.2-7.4c-0.6-1.5-1.1-3.1-1.2-4.8l0-0.1v-9.6
			c0-3.9,3.2-7.1,7.1-7.1c3.9,0,7.1,3.2,7.1,7.1l0,8.3c0.3,1.4,0.7,1.6,0.9,1.7c0.3,0.1,0.6,0.1,0.9,0.1c0.6,0,1.3,0,2,0.6
			c0.4,0.4,0.5,0.5,0.6,6.4c0,2.5,0,5.5,0,5.8L39.8,65L39,65.1C38.4,65.2,37.6,65.3,36.7,65.3 M23.3,50.7c0.2,1.4,0.5,2.8,1.1,4.1
			c1.2,2.8,3,5,5.4,6.4c3.1,1.9,6.1,2.1,8.1,1.9c0-2.3,0-8.1-0.2-9.7c-0.1,0-0.3,0-0.4,0c-0.5,0-1.1,0-1.7-0.4
			c-1.1-0.5-1.8-1.6-2.1-3.3l0-0.2l0-8.4c0-2.8-2.3-5.1-5.1-5.1c-2.8,0-5.1,2.3-5.1,5.1V50.7z"/>
		<path class="st1" d="M36.2,61c-1.1,0-2.1-0.2-2.6-0.3c-0.7-0.2-2.6-0.7-4.5-2.3c-2.6-2.2-3.2-5-3.5-6c-0.2-1-0.4-2-0.3-3.1v-8.4
			c0-1.7,1.3-3,3-3c1.6,0,3,1.4,3,3v8.4c0,0.7,0.1,1.8,0.8,2.9c0.2,0.4,1.4,2.4,3.4,2.8c0.5,0.1,1,0.1,1.5,0c1,0,2.1-0.1,2.6,0.9
			c0.1,0.3,0.2,0.7,0.3,1c0,0.3,0,0.5,0,1c0,0.1,0,0.3,0,0.5c0,0.6,0,0.8-0.1,1.1c-0.4,1.1-1.8,1.3-2.3,1.4C37,61,36.6,61,36.2,61
			 M28.3,40c-0.5,0-0.9,0.4-0.9,0.9v8.4c0,0.9,0.1,1.7,0.3,2.6c0.2,0.8,0.7,3.1,2.8,4.9c1.5,1.3,3,1.7,3.6,1.9
			c0.5,0.1,1.7,0.4,3.1,0.2c0.3,0,0.5-0.1,0.6-0.1c0-0.1,0-0.2,0-0.4c0-0.2,0-0.3,0-0.4c0-0.4,0-0.6,0-0.7c0,0,0-0.1,0-0.1
			c-0.2,0-0.4,0-0.6,0c-0.6,0-1.3,0.1-2-0.1c-2.8-0.6-4.4-3.1-4.9-3.9c-0.7-1.2-1-2.5-1-3.9v-8.4C29.2,40.4,28.8,40,28.3,40"/>
	</g>
</g>
</svg>
